<svg xmlns="http://www.w3.org/2000/svg" width="165" height="156" viewBox="0 0 165 156" fill="none"><rect width="165" height="156" fill="#15CCFF"></rect><path d="M97.817 119.001C96.617 119.001 96.017 118.561 96.017 117.681C96.017 116.801 96.537 116.321 97.577 116.241L102.977 115.401C104.577 115.161 105.657 114.761 106.217 114.201C106.777 113.561 107.057 112.401 107.057 110.721V38.7208C107.057 37.6008 106.817 36.8008 106.337 36.3208C105.857 35.8408 104.857 35.6008 103.337 35.6008C100.377 35.6008 97.457 36.8808 94.577 39.4408C91.697 42.0008 89.817 46.1208 88.937 51.8008L88.337 55.7608C88.177 56.8008 87.617 57.3208 86.657 57.3208C85.457 57.3208 84.937 56.6408 85.097 55.2808L86.177 33.5608C86.337 31.7208 87.057 30.8008 88.337 30.8008C88.897 30.8008 89.417 30.9608 89.897 31.2808C90.377 31.5208 91.177 31.8008 92.297 32.1208C93.497 32.4408 95.377 32.6008 97.937 32.6008H124.697C127.257 32.6008 129.097 32.4408 130.217 32.1208C131.417 31.8008 132.257 31.5208 132.737 31.2808C133.297 30.9608 133.817 30.8008 134.297 30.8008C135.577 30.8008 136.297 31.7208 136.457 33.5608L137.537 55.2808C137.697 56.6408 137.177 57.3208 135.977 57.3208C135.017 57.3208 134.457 56.8008 134.297 55.7608L133.697 51.8008C132.897 46.1208 131.057 42.0008 128.177 39.4408C125.297 36.8808 122.337 35.6008 119.297 35.6008C117.777 35.6008 116.777 35.8408 116.297 36.3208C115.817 36.8008 115.577 37.6008 115.577 38.7208V110.721C115.577 112.401 115.857 113.561 116.417 114.201C117.057 114.761 118.137 115.161 119.657 115.401L125.057 116.241C126.097 116.321 126.617 116.801 126.617 117.681C126.617 118.561 126.017 119.001 124.817 119.001H97.817Z" fill="white"></path><path d="M60.3208 120.081C54.4008 120.081 49.2008 118.241 44.7208 114.561C40.3208 110.881 36.8808 105.721 34.4008 99.0808C32.0008 92.3608 30.8008 84.4408 30.8008 75.3208C30.8008 66.5208 32.1208 58.8408 34.7608 52.2808C37.4808 45.6408 41.0808 40.5208 45.5608 36.9208C50.1208 33.2408 55.1608 31.4008 60.6808 31.4008C63.9608 31.4008 66.8408 31.7208 69.3208 32.3608C71.8008 32.9208 74.0008 33.6808 75.9208 34.6408C76.8808 35.2008 77.3608 36.0408 77.3608 37.1608L77.7208 55.4008C77.7208 56.7608 77.2408 57.4408 76.2808 57.4408C75.4008 57.4408 74.8408 56.9208 74.6008 55.8808L73.4008 51.4408C71.7208 45.2008 69.7608 40.8808 67.5208 38.4808C65.3608 36.0808 62.7608 34.8808 59.7208 34.8808C54.1208 34.8808 49.4408 38.3608 45.6808 45.3208C42.0008 52.2008 40.1608 62.2008 40.1608 75.3208C40.1608 84.2808 41.0808 91.8408 42.9208 98.0008C44.8408 104.161 47.2808 108.801 50.2408 111.921C53.2808 115.041 56.4808 116.601 59.8408 116.601C63.4408 116.601 66.3208 115.481 68.4808 113.241C70.7208 111.001 72.6008 106.681 74.1208 100.281L75.5608 94.4008C75.8008 93.2008 76.4408 92.6808 77.4808 92.8408C78.3608 93.0008 78.8008 93.6808 78.8008 94.8808L78.3208 114.321C78.3208 115.441 77.8008 116.281 76.7608 116.841C74.8408 117.801 72.5608 118.561 69.9208 119.121C67.3608 119.761 64.1608 120.081 60.3208 120.081Z" fill="white"></path></svg>