<svg width="964" height="876" viewBox="0 0 964 876" fill="none" xmlns="http://www.w3.org/2000/svg">
<g clip-path="url(#clip0_80_35)">
<path d="M352.65 268.11C359.36 251.6 367.13 236.03 377 221.62C419.55 159.51 477.72 121.57 552.58 111.88C666.71 97.1 773.11 159.36 816.64 264.96C828.3 293.26 834.36 322.77 834.97 353.35C835.04 356.87 836.32 358.02 839.35 359.22C905.64 385.4 947.36 433.03 960.23 503.28C971.22 563.24 954.88 616.65 914.46 662.46C913.55 663.49 912.98 666.35 910.34 664.11C907.88 662.03 909.54 660.81 910.89 659.32C937.87 629.48 954 594.51 957.63 554.53C962.88 496.62 944.81 446.56 903.63 405.27C884.17 385.76 861.14 371.7 835.03 362.85C831.43 361.63 830.29 359.85 830.12 356.07C825.73 254.08 777.39 180.44 685.77 136.08C643.55 115.64 598.15 109.53 551.78 116.85C458.27 131.61 393.75 183.85 356.93 270.76C354.76 275.87 354.05 276.04 349.65 272.1C289.35 218.07 194.31 242.95 168.32 319.6C164.06 332.17 161.76 345.16 162.76 358.4C163.17 363.85 161.42 365.33 156.55 365.81C135.6 367.88 115.9 374.25 97.2599 383.91C34.6499 416.37 -2.18013 485.34 6.03987 555.16C12.0599 606.27 37.9799 645.47 79.7099 674.45C118.95 701.71 163.32 716.25 209.94 724.57C224.22 727.12 238.67 728.23 253.18 728.55C254.97 728.59 257 728.14 256.86 731.12C256.71 734.26 254.48 733.27 252.85 733.23C192.3 731.61 135.82 715.2 84.4299 683.54C43.9899 658.62 16.2999 622.98 4.74987 576.08C-1.01013 552.66 -1.44013 529 3.00987 505.34C16.6099 433.03 69.1999 378.87 140.69 363.37C144.92 362.45 149.19 361.5 153.48 361.22C157.18 360.98 158.01 359.67 157.94 356.05C157.47 330.95 164.78 308.18 179.22 287.7C218.18 232.44 295.95 221.94 348.51 264.8C349.78 265.83 351.06 266.85 352.65 268.14V268.11Z" fill="white"/>
<path d="M734.76 466.41C734.76 490.72 734.69 515.02 734.83 539.33C734.85 543.14 733.94 544.74 729.82 544.51C723.84 544.18 717.84 544.33 711.84 544.48C708.88 544.55 707.4 543.66 706.71 540.52C705.52 535.12 705.26 535.17 700.51 538.46C683.39 550.28 659.95 549.43 645.46 536.06C635.14 526.54 630.78 514.02 629.57 500.4C628.15 484.42 629.17 468.64 637.8 454.52C651.12 432.75 676.28 426.5 698.59 439.06C703.45 441.79 703.51 441.78 703.54 436.06C703.63 421.25 703.78 406.43 703.68 391.62C703.66 388.52 704.56 387.62 707.58 387.69C714.9 387.88 722.24 387.98 729.55 387.69C733.69 387.53 734.92 388.8 734.89 393.01C734.69 417.48 734.79 441.95 734.79 466.43H734.74L734.76 466.41ZM703.84 489.39H703.81C703.81 483.9 703.79 478.41 703.81 472.92C703.87 459.64 702.87 458.51 689.26 456.71C688.11 456.56 686.96 456.33 685.8 456.21C674.81 455.15 666.84 459.81 663.35 470.27C659.19 482.72 659.11 495.52 662.92 508.05C666.18 518.76 673.6 523.64 684.71 523.38C689.74 523.26 694.54 522 699.18 520.01C702.46 518.61 704.05 516.65 703.91 512.82C703.63 505.01 703.83 497.19 703.83 489.37L703.84 489.39Z" fill="white"/>
<path d="M314.94 667.88C314.6 653.34 316.83 639.29 323.5 626.24C334.1 605.51 351.87 595.03 374.34 592.03C389.17 590.05 403.89 591.17 418.38 595.26C422.29 596.37 424.35 597.88 423.92 602.41C423.45 607.36 423.64 612.4 423.88 617.39C424.06 621.06 422.97 622.02 419.27 621.23C409.17 619.05 398.96 617.35 388.57 617.91C376.59 618.56 365.53 621.45 357.52 631.37C352.65 637.4 350.3 644.47 349.23 651.96C347.76 662.23 347.8 672.54 349.2 682.84C352.12 704.47 365.88 716.17 389.09 716.65C400.16 716.88 410.99 714.98 421.72 712.62C425.25 711.84 426.11 712.73 425.98 716.12C425.76 721.94 425.85 727.78 425.9 733.61C425.92 735.67 425.42 737.07 423.24 737.76C400.71 744.85 378.02 746.09 355.52 738.29C331.52 729.97 320.25 711.31 316.17 687.32C315.08 680.89 314.88 674.4 314.94 667.9V667.88Z" fill="white"/>
<path d="M216.01 471.18C215.8 478.19 216 485.15 217.74 492.01C222 508.79 233.33 518.4 250.65 519.89C263.24 520.97 275.63 519.39 287.81 516.54C292.7 515.4 293.56 516.87 293.31 521.24C293.01 526.55 293.18 531.9 293.24 537.23C293.26 539.24 292.9 540.76 290.68 541.44C266.41 548.81 242.13 550.1 218.32 540.12C201.02 532.87 190.72 519.09 185.93 501.24C180.55 481.18 180.31 460.92 186.49 441.07C194.62 414.97 213.13 400.33 239.84 396.06C255.68 393.52 271.36 394.79 286.8 399.33C290.13 400.31 291.38 401.77 291.22 405.24C290.95 410.89 291.06 416.57 291.17 422.23C291.22 424.92 290.46 425.55 287.67 425.01C277.87 423.11 268.04 421.5 257.96 421.63C231.98 421.97 217.34 435.8 216.01 461.7C215.85 464.86 215.99 468.03 215.99 471.19L216.01 471.18Z" fill="white"/>
<path d="M483.1 490.13C483.51 504.14 480.92 517.44 472.19 528.74C459.97 544.55 442.87 548.66 424.01 547.27C392.03 544.91 377.38 522.5 376.22 494.65C375.64 480.6 377.16 466.86 385.15 454.85C397.46 436.34 415.92 431.35 436.71 433.37C464.29 436.05 481.95 455.36 483.09 483.14C483.19 485.47 483.1 487.8 483.1 490.14V490.13ZM452.01 490.45C451.93 482.76 451.47 475.13 448.11 468.02C444.35 460.08 437.92 456.55 429.24 456.72C420.73 456.88 414.28 460.55 411.25 468.53C405.73 483.08 405.69 497.87 411.45 512.37C414.35 519.68 420.37 523.32 428.23 523.7C436.54 524.1 443.24 521.4 447.35 513.69C451.25 506.4 451.89 498.49 452 490.45H452.01Z" fill="white"/>
<path d="M605.03 490.25C605.03 506.73 604.94 523.22 605.11 539.7C605.15 543.47 603.92 544.67 600.23 544.49C594.92 544.23 589.56 544.19 584.25 544.53C580.42 544.78 579.03 543.12 578.26 539.68C576.8 533.18 576.64 533.2 570.86 536.94C560.42 543.69 549.09 547.62 536.55 547.53C519.49 547.4 507.95 537.05 507.08 520.08C505.72 493.3 506.84 466.49 506.52 439.69C506.48 436.78 507.78 435.98 510.45 436.01C517.94 436.1 525.44 436.17 532.92 435.94C536.63 435.82 537.8 437.09 537.78 440.81C537.63 461.62 537.79 482.43 537.66 503.24C537.54 521.38 545.45 527.41 562.9 522.21C563.06 522.16 563.21 522.1 563.37 522.05C573.89 518.73 574.06 518.52 574.07 507.54C574.09 485.56 574.25 463.58 573.97 441.61C573.91 436.79 575.49 435.75 579.88 435.95C586.86 436.28 593.86 436.15 600.85 435.98C604.11 435.9 605.11 437.06 605.08 440.32C604.93 456.97 605.01 473.62 605.02 490.27L605.03 490.25Z" fill="white"/>
<path d="M613.83 686.76C613.83 702.92 613.66 719.09 613.94 735.24C614.02 739.82 612.49 741 608.23 740.7C603.42 740.36 598.55 740.34 593.75 740.71C589.4 741.05 587.55 739.52 586.81 735.19C585.81 729.3 585.46 729.32 580.4 732.68C570.33 739.36 559.45 743.56 547.23 743.7C527.84 743.92 516.02 733.6 515.52 714.29C514.85 688.15 515.33 661.98 515.21 635.82C515.2 632.78 516.62 632.21 519.18 632.24C526.18 632.31 533.19 632.55 540.17 632.15C544.91 631.87 546.41 633.16 546.34 638.12C546.07 658.78 546.47 679.44 546.2 700.1C545.95 718.85 555.17 722.33 570.82 718.73C571.63 718.54 572.41 718.24 573.2 717.96C579.693 715.7 582.933 711.117 582.92 704.21C582.92 681.88 583.01 659.56 582.84 637.23C582.81 633.33 583.86 632.01 587.85 632.18C595 632.49 602.18 632.42 609.34 632.2C612.84 632.09 613.95 633.31 613.93 636.77C613.79 653.43 613.87 670.09 613.87 686.75H613.84L613.83 686.76Z" fill="white"/>
<path d="M805.22 743.85C792 743.93 780.65 741.79 769.78 737.04C767.19 735.91 765.87 734.46 766.07 731.45C766.32 727.63 766.38 723.77 766.09 719.96C765.79 715.91 766.7 714.82 770.97 716.09C781.2 719.14 791.68 721.14 802.43 721.15C805.92 721.15 809.42 721.3 812.81 720.13C817.04 718.67 819.5 715.82 819.71 711.33C819.91 707.1 818.15 703.79 814.19 702.11C805.77 698.52 797.22 695.23 788.82 691.6C780.26 687.9 772.64 683.13 768.84 673.87C762.73 658.96 768.05 642.66 782.43 635.38C801.3 625.83 820.49 628.07 839.57 635.22C841.48 635.94 841.9 637.27 841.87 639.12C841.8 643.45 841.63 647.8 841.94 652.11C842.22 656.08 840.67 656.48 837.32 655.57C826.33 652.58 815.19 650.71 803.76 652.53C797.92 653.46 795.28 656.05 795.03 660.46C794.77 665.14 797.73 667.48 801.34 669.09C808.18 672.14 815.16 674.89 822.06 677.81C824.82 678.98 827.56 680.18 830.25 681.5C842.73 687.65 849.09 697.41 848.03 711.6C847 725.38 839.34 734.27 827.21 739.73C819.8 743.06 811.91 744.22 805.2 743.84L805.22 743.85Z" fill="white"/>
<path d="M447.22 650.25C447.22 629.76 447.34 609.28 447.13 588.8C447.09 584.75 448.39 583.68 452.23 583.83C459.21 584.1 466.23 584.12 473.21 583.81C477.15 583.63 478.29 584.85 478.25 588.81C478.07 611.29 478.16 633.78 478.16 656.26C478.16 673.08 478.14 689.9 478.2 706.72C478.23 716.56 480.33 718.8 489.97 717.99C494.53 717.61 495.42 719.2 495.08 723.15C494.82 726.12 494.62 729.21 495.13 732.12C496.14 737.88 493.08 739.74 488.23 740.7C483.12 741.71 478.01 742.07 472.84 741.86C459.24 741.31 450.22 733.16 448.08 719.64C447.19 714.02 447.2 708.36 447.2 702.7C447.21 685.21 447.2 667.73 447.2 650.24L447.22 650.25Z" fill="white"/>
<path d="M314.91 455.1C314.91 434.44 315.06 413.78 314.79 393.13C314.73 388.55 316.17 387.44 320.45 387.66C326.93 387.99 333.45 387.97 339.93 387.64C344.37 387.41 345.59 389 345.58 393.34C345.44 431.33 345.5 469.31 345.5 507.3C345.5 508.47 345.48 509.63 345.5 510.8C345.75 520.53 347.95 522.86 357.51 521.94C361.84 521.52 362.67 523 362.41 526.73C362.18 530.05 362.05 533.43 362.44 536.71C362.96 541.12 361.1 543.15 356.95 543.92C352.85 544.69 348.79 545.53 344.6 545.59C325.65 545.84 315.27 536.11 315 517.08C314.71 496.43 314.94 475.76 314.94 455.1H314.9H314.91Z" fill="white"/>
<path d="M270.61 123.42C268.07 134.06 265.51 144.69 263.01 155.34C262.24 158.63 261.87 161.72 257.09 161.81C252.5 161.89 250.3 160.55 249.01 155.93C245.17 142.15 240.74 128.53 236.71 114.8C236.17 112.97 233.81 110.27 237.54 109.07C242.12 107.6 245.69 109.27 246.69 113.17C249.26 123.16 251.73 133.17 254.27 143.17C254.71 144.91 255.25 146.62 256.79 148.46C258.58 141.04 260.38 133.63 262.15 126.21C263.16 122 264.27 117.81 265.06 113.56C265.74 109.91 267.69 108.77 271.33 108.85C274.82 108.92 276.85 109.72 277.69 113.48C280.38 125.47 283.37 137.39 287.14 149.42C289.14 141.76 291.15 134.1 293.15 126.43C294.28 122.08 295.34 117.71 296.55 113.38C297.65 109.44 302.45 107.34 305.97 109.14C307.82 110.09 307.29 111.73 306.88 113.07C302.16 128.33 297.38 143.57 292.59 158.82C291.4 162.62 288.18 161.53 285.48 161.71C282.5 161.91 280.86 160.6 280.18 157.67C277.88 147.78 275.49 137.91 273.11 128.04C272.73 126.45 272.24 124.89 271.81 123.31C271.41 123.34 271.01 123.37 270.61 123.4V123.42Z" fill="white"/>
<path d="M268.7 214.17C236.75 213.92 208.31 203.91 183.74 183.34C182.25 182.09 178.58 180.85 180.44 178.29C181.88 176.31 184.28 178.92 186.07 179.85C233.53 204.64 282.41 208.09 332.76 189.7C334.48 189.07 336.17 188.36 337.89 187.74C339.62 187.12 341.31 187.19 342.16 189.05C342.98 190.84 341.5 191.84 340.29 192.67C332.31 198.16 323.83 202.71 314.67 205.94C299.8 211.19 284.53 214.17 268.7 214.16V214.17Z" fill="white"/>
<path d="M229.81 134.83C230.17 142.58 229.04 149.31 232.33 155.59C233.97 158.71 230.79 159.46 229.1 160.78C226.89 162.51 224.72 161.86 223.68 159.62C221.58 155.09 219.49 156.17 216.44 158.73C212.62 161.94 207.89 163.01 202.89 162.92C194.85 162.76 188.79 158.32 187.37 151.44C185.61 142.88 189.37 135.5 197.12 132.25C203.07 129.75 209.27 129.94 215.3 131.34C219.97 132.42 220.37 130.43 220.06 126.79C219.38 118.82 216.41 116.09 208.26 115.77C203.81 115.59 199.72 116.9 195.57 118.13C193.97 118.61 191.96 120.48 190.79 118.04C189.78 115.92 189.84 113.25 192.15 111.74C199.17 107.18 217.1 104.89 224.76 112.29C228.38 115.78 229.49 120.25 229.76 124.98C229.97 128.63 229.8 132.31 229.8 134.82L229.81 134.83ZM206.3 155.11C210.73 155.04 215.02 153.28 217.45 150.44C220.02 147.45 220.93 143.69 219.88 140.18C218.88 136.81 215.1 138.1 212.5 137.83C209.89 137.56 207.16 137.6 204.57 138.03C199.76 138.82 196.94 142.9 197.42 147.8C197.9 152.67 200.96 155.18 206.29 155.1L206.3 155.11Z" fill="white"/>
<path d="M329.57 163.28C325.04 163.2 320.61 162.45 316.35 160.9C314.13 160.09 312.04 159.09 311.58 156.34C310.97 152.6 312.3 151.32 315.86 152.58C321.28 154.49 326.78 155.65 332.53 154.85C336.31 154.33 339.86 153.14 340.63 148.72C341.43 144.08 338.26 142.16 334.59 140.86C330.67 139.48 326.64 138.39 322.76 136.9C315.89 134.26 312.15 129.02 312.26 122.63C312.36 116.48 316.13 111.33 322.86 108.91C330.25 106.26 337.62 107.07 344.8 110.02C346.66 110.78 347.67 112.11 347.85 114.18C348.14 117.48 347.21 119.19 343.67 117.62C339.1 115.59 334.33 115.31 329.47 115.79C325.88 116.14 322.92 117.52 322.31 121.51C321.72 125.36 324.2 127.39 327.33 128.6C331.21 130.1 335.21 131.27 339.14 132.64C347.14 135.43 350.97 140.14 350.82 146.92C350.66 154.06 346.05 159.7 338.43 162.03C335.54 162.92 332.58 163.32 329.56 163.28H329.57Z" fill="white"/>
<path d="M877.61 140.52C877.21 143 875.34 142.88 873.45 143.07C858.98 144.51 848.26 153.05 844.65 166.14C843.95 168.67 843.88 171.39 843.6 174.02C843.41 175.75 842.67 176.97 840.81 176.8C839.22 176.65 838.92 175.39 838.71 173.91C836.04 154.5 826.97 145.33 808.21 143.07C806.41 142.85 804.67 142.71 804.79 140.45C804.92 138.22 806.87 138.12 808.54 138.06C816.17 137.77 822.8 135 828.44 129.93C834.82 124.21 838.12 116.95 838.75 108.45C838.89 106.59 838.84 104.42 841.43 104.55C843.59 104.66 843.81 106.68 843.82 108.34C843.89 123.66 857.81 137.61 873.84 138.08C875.65 138.13 877.15 138.5 877.61 140.53V140.52ZM820.45 140.53C825.39 143.01 829.33 145.38 832.7 148.64C836.16 151.99 838.55 156.11 841.25 160.79C845.6 151.13 852.47 144.77 861.89 140.53C851.89 136.65 845.93 129.36 841.18 120.14C836.71 129.77 830.16 136.29 820.45 140.53Z" fill="white"/>
<path d="M945.22 301.52C945 303.66 943.53 303.93 941.96 303.95C927.06 304.09 912.47 316.54 911.52 333.85C911.43 335.47 911.55 337.59 909.29 337.67C906.7 337.77 906.88 335.54 906.64 333.72C904.29 315.97 894.21 305.98 876.6 303.96C874.89 303.76 872.98 303.81 873.06 301.5C873.13 299.37 874.91 299.17 876.68 298.95C894.49 296.73 904.01 287.39 906.63 269.71C906.88 268 906.41 265.55 909.02 265.5C912.04 265.44 911.41 268.16 911.64 269.97C913.74 286.83 924.39 297.28 941.27 298.91C943.18 299.09 944.97 299.17 945.22 301.52ZM888.29 301.57C898.33 305.62 904.59 312.61 909.21 321.95C913.57 312.28 920.13 305.8 929.82 301.5C919.94 297.28 913.58 290.44 909.02 281.08C904.61 290.74 898.1 297.25 888.29 301.57Z" fill="white"/>
<path d="M394.76 36.35C394.28 38.06 392.91 38.4 391.34 38.66C372.41 41.76 364.44 49.78 361.58 68.55C361.33 70.19 361.55 72.12 359.13 72.12C356.66 72.12 357.01 70.13 356.77 68.52C354 49.91 345.64 41.54 327.02 38.69C325.29 38.43 323.55 38.1 323.71 35.89C323.84 33.96 325.46 33.87 327.03 33.66C344.9 31.25 354.39 21.79 356.72 4.18002C356.95 2.47002 356.49 0.0500248 359.14 0.0200248C361.78 -0.0199752 361.44 2.38002 361.68 4.11002C364.1 21.87 373.29 31.1 391.28 33.68C393.09 33.94 394.59 34.16 394.77 36.38L394.76 36.35ZM338.74 36.11C348.46 40.27 354.9 46.91 359.15 56.61C363.43 46.83 370.05 40.48 379.53 35.92C369.57 31.87 363.54 24.89 359.05 15.77C354.74 25.29 348.53 31.72 338.74 36.11Z" fill="white"/>
<path d="M112.16 301.78C111.62 304.25 109.6 303.87 107.83 304.06C97.8601 305.1 89.8001 309.47 84.0701 317.84C80.9001 322.47 79.1501 327.58 78.8601 333.2C78.7601 335.13 78.9801 337.72 76.1601 337.69C73.3201 337.66 73.7801 335.02 73.5601 333.13C71.5701 316.46 61.3501 306.23 44.5201 304.1C42.7601 303.88 40.3601 304.25 40.3201 301.71C40.2701 298.91 42.7801 299.15 44.7301 298.94C60.9901 297.22 71.4801 286.73 73.5301 270.3C73.7701 268.39 73.0601 265.35 76.4201 265.54C79.2901 265.71 78.6301 268.46 78.8501 270.26C80.9101 286.78 91.1801 297.05 107.63 298.93C109.56 299.15 111.8 298.93 112.14 301.78H112.16ZM55.8901 301.52C65.4901 305.99 72.0301 312.46 76.2001 321.99C80.6801 312.16 87.1801 305.79 96.5101 301.53C86.9301 297.27 80.4901 290.69 76.1701 281.22C71.8401 290.82 65.4501 297.27 55.8801 301.52H55.8901Z" fill="white"/>
<path d="M345.12 173.97C359.91 174.33 359.64 176.67 356.69 188.91C355.2 195.08 352.22 200.69 347.6 205.25C346.77 206.07 345.81 207.09 344.64 206.26C343.66 205.57 344.41 204.44 344.71 203.52C346.29 198.81 348.43 194.28 349.24 189.32C350.25 183.09 349.14 181.69 342.79 181.04C337.95 180.54 333.2 181.71 328.4 181.84C327.32 181.87 325.78 182.47 325.27 181.15C324.62 179.47 326.34 178.87 327.42 178.32C332.96 175.44 338.85 173.89 345.12 173.98V173.97Z" fill="white"/>
<path fill-rule="evenodd" clip-rule="evenodd" d="M669.14 583.64C673.18 583.46 674.591 584.46 674.511 588.79C674.231 602.94 674.4 617.1 674.43 631.26C674.43 633.4 674.02 636 676.1 637.22C678.34 638.54 680.06 636.24 681.88 635.26C703.95 623.43 734.25 627.56 744.81 657.1C753.02 680.06 752.22 703.02 738.92 724.32C724.8 746.93 695.88 747.03 678.471 735.73C672.221 731.67 672.24 731.51 669.79 738.25C669.06 740.27 668.2 741.08 665.87 740.98C659.88 740.72 653.87 740.65 647.89 740.92C644.061 741.09 643.15 739.7 643.17 736.04C643.32 711.39 643.25 686.75 643.25 662.1H643.27L643.28 662.09C643.28 637.61 643.37 613.13 643.19 588.65C643.16 584.75 644.16 583.45 648.16 583.64C655.14 583.97 662.16 583.95 669.14 583.64ZM695.39 649.86C690.36 649.98 685.57 651.25 680.92 653.23C677.64 654.63 676.05 656.6 676.19 660.42C676.47 668.223 676.271 676.037 676.27 683.85H676.261L676.27 683.87C676.27 683.864 676.27 683.856 676.27 683.85H676.29C676.29 689.34 676.32 694.83 676.29 700.32C676.23 713.6 677.231 714.73 690.841 716.53C692 716.69 693.141 716.92 694.301 717.03C705.28 718.1 713.25 713.44 716.75 702.97C720.91 690.52 720.99 677.72 717.18 665.19C713.92 654.48 706.5 649.6 695.39 649.86Z" fill="white"/>
<path d="M54 302.07C64.5442 297.481 71.6568 290.424 76.5108 280C81.6689 289.98 88.1409 297.871 99 302.07C88.7599 306.66 81.3106 313.544 76.5869 324C73.6549 318.934 71.0705 314.475 67.3024 310.849C63.6429 307.32 59.3644 304.755 54 302.07Z" fill="white"/>
<path d="M334 36.5688C345.716 32.0836 353.619 25.1867 359.012 15C364.743 24.753 371.934 32.4645 384 36.5688C372.622 41.0539 364.345 47.7816 359.097 58C355.839 53.0494 352.967 48.6913 348.78 45.1476C344.714 41.6991 339.96 39.1921 334 36.5688Z" fill="white"/>
<path d="M819 140.07C829.31 135.481 836.264 128.424 841.011 118C846.054 127.98 852.382 135.871 863 140.07C852.987 144.66 845.704 151.544 841.085 162C838.218 156.934 835.691 152.475 832.007 148.849C828.429 145.32 824.245 142.755 819 140.07Z" fill="white"/>
<path d="M888 301.569C898.076 297.084 904.872 290.187 909.51 280C914.439 289.753 920.624 297.464 931 301.569C921.215 306.054 914.097 312.782 909.583 323C906.781 318.049 904.312 313.691 900.711 310.148C897.214 306.699 893.126 304.192 888 301.569Z" fill="white"/>
</g>
<path d="M753.781 783.75H767.797V828.844C767.797 834.094 766.672 838.516 764.422 842.109C762.203 845.703 759.125 848.406 755.188 850.219C751.281 852.031 746.781 852.938 741.688 852.938C736.594 852.938 732.062 852.031 728.094 850.219C724.156 848.406 721.062 845.703 718.812 842.109C716.594 838.516 715.484 834.094 715.484 828.844V783.75H729.547V828.844C729.547 831.906 730.031 834.406 731 836.344C731.969 838.281 733.359 839.703 735.172 840.609C737.016 841.516 739.188 841.969 741.688 841.969C744.25 841.969 746.422 841.516 748.203 840.609C750.016 839.703 751.391 838.281 752.328 836.344C753.297 834.406 753.781 831.906 753.781 828.844V783.75ZM805.953 827.672H788.562V816.703H805.953C808.641 816.703 810.828 816.266 812.516 815.391C814.203 814.484 815.438 813.234 816.219 811.641C817 810.047 817.391 808.25 817.391 806.25C817.391 804.219 817 802.328 816.219 800.578C815.438 798.828 814.203 797.422 812.516 796.359C810.828 795.297 808.641 794.766 805.953 794.766H793.438V852H779.375V783.75H805.953C811.297 783.75 815.875 784.719 819.688 786.656C823.531 788.562 826.469 791.203 828.5 794.578C830.531 797.953 831.547 801.812 831.547 806.156C831.547 810.562 830.531 814.375 828.5 817.594C826.469 820.812 823.531 823.297 819.688 825.047C815.875 826.797 811.297 827.672 805.953 827.672ZM867.969 822.047H850.438L850.344 812.391H865.062C867.656 812.391 869.781 812.062 871.438 811.406C873.094 810.719 874.328 809.734 875.141 808.453C875.984 807.141 876.406 805.547 876.406 803.672C876.406 801.547 876 799.828 875.188 798.516C874.406 797.203 873.172 796.25 871.484 795.656C869.828 795.062 867.688 794.766 865.062 794.766H855.312V852H841.25V783.75H865.062C869.031 783.75 872.578 784.125 875.703 784.875C878.859 785.625 881.531 786.766 883.719 788.297C885.906 789.828 887.578 791.766 888.734 794.109C889.891 796.422 890.469 799.172 890.469 802.359C890.469 805.172 889.828 807.766 888.547 810.141C887.297 812.516 885.312 814.453 882.594 815.953C879.906 817.453 876.391 818.281 872.047 818.438L867.969 822.047ZM867.359 852H846.594L852.078 841.031H867.359C869.828 841.031 871.844 840.641 873.406 839.859C874.969 839.047 876.125 837.953 876.875 836.578C877.625 835.203 878 833.625 878 831.844C878 829.844 877.656 828.109 876.969 826.641C876.312 825.172 875.25 824.047 873.781 823.266C872.312 822.453 870.375 822.047 867.969 822.047H854.422L854.516 812.391H871.391L874.625 816.188C878.781 816.125 882.125 816.859 884.656 818.391C887.219 819.891 889.078 821.844 890.234 824.25C891.422 826.656 892.016 829.234 892.016 831.984C892.016 836.359 891.062 840.047 889.156 843.047C887.25 846.016 884.453 848.25 880.766 849.75C877.109 851.25 872.641 852 867.359 852Z" fill="white"/>
<path d="M643.871 816.357C642.924 816.914 642.195 816.518 641.517 816.181C629.87 810.417 616.134 816.919 611.861 828.547C609.792 834.181 610.115 839.948 612.501 845.092C616.553 853.832 625.128 858.701 634.778 857.215C639.898 856.427 644.515 853.87 648.786 850.818C658.499 843.872 665.372 834.716 669.55 823.635C672.73 815.198 673.973 806.472 672.504 797.385C671.5 791.163 669.504 785.363 666.863 779.712C666.606 779.162 665.994 778.388 666.581 777.939C667.157 777.5 667.883 778.064 668.395 778.558C676.491 786.376 684.82 793.993 689.187 804.776C692.107 811.988 692.547 819.405 691.449 827.017C690.53 833.401 688.431 839.34 684.834 844.692C679.98 851.913 673.342 857.001 665.45 860.543C659.899 863.033 654.072 864.272 648.018 863.978C635.639 863.379 624.489 859.414 614.613 851.758C607.135 845.96 601.412 838.878 597.499 830.311C591.86 817.968 596.258 804.398 609.974 799.559C616.696 797.187 623.46 797.91 629.456 802.272C634.81 806.167 639.035 811.248 643.659 815.91C643.743 815.995 643.768 816.136 643.871 816.357Z" fill="white"/>
<path d="M587.043 835.319C587.021 845.281 589.381 853.802 593.525 861.876C593.816 862.445 594.704 863.076 593.909 863.743C592.96 864.54 592.539 863.392 592.077 862.924C586.502 857.241 580.562 851.905 575.882 845.383C563.805 828.558 566.605 806.46 577.525 793.444C589.668 778.968 606.578 773.327 626.252 779.437C633.741 781.763 640.687 785.151 646.69 790.241C654.974 797.266 661.692 805.454 664.451 816.215C667.57 828.378 658.742 840.931 646.228 842.458C638.797 843.364 632.446 841.19 627.155 835.904C623.827 832.578 620.492 829.259 617.187 825.913C616.822 825.544 615.966 825.248 616.403 824.554C616.954 823.677 617.544 824.545 618.031 824.775C630.845 830.814 645.426 823.989 648.905 810.292C650.196 805.208 649.499 800.307 647.286 795.627C643.539 787.702 636.96 783.844 628.451 783.534C622.871 783.332 617.922 785.909 613.367 788.888C600.07 797.594 591.876 809.902 588.223 825.296C587.376 828.865 587.105 832.508 587.046 835.324L587.043 835.319Z" fill="white"/>
<defs>
<clipPath id="clip0_80_35">
<rect width="963.56" height="743.92" fill="white"/>
</clipPath>
</defs>
</svg>
