<svg width="2855" height="1151" viewBox="0 0 2855 1151" fill="none" xmlns="http://www.w3.org/2000/svg">
<path d="M8.20714 291.025V859.994L500.785 1144.47L993.344 859.994V291.025L500.785 6.53066L8.20714 291.025Z" fill="#161E2D"/>
<path fill-rule="evenodd" clip-rule="evenodd" d="M495.823 0.875026C497.843 -0.291656 500.332 -0.291677 502.352 0.874973L994.93 285.369C996.949 286.536 998.194 288.692 998.194 291.025V859.994C998.194 862.327 996.949 864.483 994.929 865.65L502.352 1150.13C500.332 1151.29 497.843 1151.29 495.823 1150.12L3.26422 865.65C1.24431 864.483 0 862.327 0 859.994V291.025C0 288.692 1.24424 286.536 3.26406 285.369L495.823 0.875026ZM499.088 14.0717L13.0568 294.795V856.224L499.088 1136.93L985.137 856.223V294.795L499.088 14.0717Z" fill="#A166FF"/>
<path d="M304.037 238.835V266.824H311.498V238.835H341.342V231.372H311.498V201.517H304.037V231.372H276.058V238.835H304.037Z" fill="#A166FF"/>
<path d="M231.292 876.974V904.962H238.753V876.974H268.597V869.51H238.753V839.656H231.292V869.51H203.313V876.974H231.292Z" fill="#A166FF"/>
<path d="M496.177 126.9V153.041H503.638V126.9H529.771V119.436H503.638V93.2951H496.177V119.436H470.045V126.9H496.177Z" fill="white"/>
<path d="M475.641 1016.92V1052.37H483.102V1016.92H518.542V1009.45H483.102V974.001H475.641V1009.45H440.201V1016.92H475.641Z" fill="white"/>
<path d="M680 223.087V246.504H687.461V223.087H710.869V215.624H687.461V192.188H680V215.624H656.571V223.087H680Z" fill="#A166FF"/>
<path d="M734.093 935.862V959.279H741.554V935.862H764.962V928.398H741.554V904.962H734.093V928.398H710.664V935.862H734.093Z" fill="#A166FF"/>
<path fill-rule="evenodd" clip-rule="evenodd" d="M492.259 275.28C481.009 278.415 475.142 285.935 474.153 298.483C473.621 305.231 473.525 305.582 470.741 310.871C468.223 315.658 467.874 316.749 467.852 319.915C467.793 328.154 467.025 331.599 464.178 336.385C462.704 338.863 461.386 341.683 461.249 342.654C461.112 343.626 460.729 346.719 460.398 349.525C459.456 357.51 457.485 359.228 444.947 363.001C435.547 365.829 423.194 370.843 404.682 379.343C371.132 394.749 364.911 395.863 317.528 394.968L298.666 394.611L291.986 391.508C277.502 384.782 273.005 384.833 273.497 391.715L273.695 394.481L261.213 394.837C244.655 395.31 242.709 395.954 239.958 401.865C235.876 410.632 242.425 419.974 255.698 424.319C259.455 425.548 260.992 425.667 276.017 425.876L292.271 426.102V438.411C292.271 461.653 290.361 460.848 345.428 460.822C394.877 460.798 391.256 460.135 409.952 472.648L419.656 479.144L419.675 483.499C419.686 485.894 419.051 498.959 418.265 512.533C412.367 614.305 412.582 606.753 415.534 608.739C416.597 609.454 419.674 610.872 422.371 611.891C428.462 614.19 427.96 612.805 427.233 625.302C424.196 677.476 424.171 680.136 426.674 685.33C428.504 689.126 433.145 693.692 437.175 695.662L440.434 697.254L440.21 701.145C440.085 703.285 439.333 718.102 438.536 734.07C436.753 769.846 436.542 771.059 431.057 777.162C425.624 783.207 420.689 785.204 408.954 786.106C391.276 787.463 379.085 797.448 374.193 814.576C373.262 817.837 373.25 817.849 370.588 818.249C342.583 822.45 330.647 835.941 329.856 864.287L329.561 874.881L459.238 875.03C611.94 875.206 666.557 875.093 669.253 874.591L671.22 874.226L670.897 865.121C670.009 840.112 660.528 827.46 637.969 821.186C628.872 818.657 628.943 818.698 628.445 815.573C625.499 797.154 611.936 786.065 592.329 786.046C578.702 786.033 568.238 780.566 563.526 770.999L562.212 768.331L561.875 676.664L583.984 655.095L582.84 622.867C581.581 587.395 580.602 564.419 578.449 519.793C577.662 503.504 577.018 488.733 577.017 486.968L577.014 483.757L583.185 479.128C599.93 466.564 602.489 464.944 608.652 463.003C614.661 461.109 618.664 460.903 656.782 460.523C699.12 460.099 697.517 460.238 701.611 456.642C705.41 453.305 705.874 451.424 706.287 437.693L706.651 425.517L720.929 425.288C746.232 424.885 761.136 417.573 761.025 405.618C760.951 397.547 755.824 395.232 738.015 395.232H725.007L725.361 392.474C726.203 385.896 721.255 385.43 709.637 390.995L702.116 394.597L683.655 394.816C645.544 395.27 630.265 394.262 619.245 390.569C607.777 386.725 577.657 374.591 560.179 366.773C556.508 365.13 551.159 362.877 548.293 361.767C538.685 358.043 537.632 356.655 536.691 346.465C536.045 339.474 535.856 338.731 533.937 335.593C531.194 331.112 531.09 330.672 530.635 321.796L530.243 314.129L527.733 309.973C525.358 306.041 525.181 305.434 524.448 298.77C522.549 281.499 508.01 270.888 492.259 275.28ZM505.917 280.474C511.457 283.161 514.648 285.625 516.624 288.741C518.266 291.332 518.698 293.181 520.044 303.364C520.488 306.725 521.108 308.436 523.048 311.647L525.492 315.693L526.363 331.861L528.864 336.398C531.222 340.679 531.389 341.288 531.778 347.074C532.496 357.745 535.635 362.036 544.526 364.5C565.388 370.283 568.015 374.548 569.171 404.524C569.363 409.474 570.025 425.806 570.643 440.817C571.262 455.828 572.289 481.176 572.924 497.145C573.56 513.115 574.227 528.794 574.406 531.987C576.037 561.071 579.494 652.492 578.982 653.022C578.85 653.16 576.536 653.387 573.843 653.529C567.826 653.844 568.524 656.422 567.726 630.996C567.38 619.978 566.327 592.801 565.386 570.604C564.444 548.407 563.02 514.828 562.221 495.984C559.042 420.994 560.26 431.104 554.17 429.246C545.68 426.655 541.312 421.436 539.816 412.093C539.163 408.011 538.528 406.846 536.958 406.846C534.726 406.846 534.388 408.339 534.023 419.839C533.421 438.807 535.702 437.739 496.322 437.505L467.587 437.334L467.297 405.976C467.004 374.318 466.923 373.167 465.003 373.167C463.216 373.167 463.236 372.103 463.154 474.11C463.111 528.619 462.915 584.754 462.719 598.855L462.362 624.492L445.648 617.073C436.457 612.994 428.781 609.502 428.593 609.314C428.405 609.125 428.562 604.324 428.944 598.643C429.572 589.275 433.084 541.671 433.995 530.171C434.472 524.157 434.067 522.406 432.204 522.406C429.972 522.406 429.918 522.764 428.104 549.989C425.211 593.419 424.048 607.218 423.287 607.153C423.067 607.134 421.712 606.537 420.275 605.826L417.663 604.536L417.81 598.167C417.89 594.664 418.603 581.085 419.392 567.991C420.182 554.895 421.102 538.955 421.437 532.568C421.772 526.18 422.561 512.853 423.192 502.952C424.801 477.674 424.784 476.955 422.553 475.267C417.892 471.743 415.086 468.741 413.807 465.911L412.438 462.884V435.882C412.438 409.344 412.32 407.427 410.682 407.427C408.769 407.427 408.472 409.884 408.108 428.743C407.909 439.03 407.574 447.619 407.363 447.829C407.152 448.041 403.687 447.262 399.664 446.099L392.349 443.985L296.624 444.023V433.676C296.624 419.699 298.662 421.124 278.543 421.03C252.521 420.909 243.798 417.227 243.798 406.368C243.798 399.917 245.644 399.297 264.562 399.395C281.252 399.481 280.258 399.711 278.529 396.15C275.893 390.723 279.272 390.03 287.948 394.217C297.885 399.013 295.994 398.826 331.887 398.562C373.552 398.255 374.958 397.943 409.826 381.291C427.523 372.839 432.403 370.823 443.325 367.448C461.772 361.746 463.88 359.919 464.991 348.675C465.468 343.848 465.847 342.628 468.479 337.453C471.376 331.752 471.44 331.513 471.97 324.43C472.608 315.883 472.574 316.008 475.767 310.451C478.211 306.2 478.284 305.917 478.848 298.644C480.065 282.986 493.08 274.25 505.917 280.474ZM596.262 386.533C609.122 391.009 619.844 394.87 620.085 395.113C620.655 395.683 613.541 407.759 608.358 415.023C600.067 426.639 590.217 437.178 580.208 445.14L575.563 448.834L575.19 443.664C574.983 440.821 574.787 436.188 574.753 433.368L574.692 428.241L582.226 420.106C593.476 407.961 603.306 392.829 601.27 390.792C599.832 389.354 598.714 390.182 596.694 394.189C592.976 401.566 586.552 409.931 578.511 417.866L574.112 422.206L574.096 419.897C574.087 418.629 573.702 410.273 573.238 401.33C572.357 384.312 572.199 378.393 572.626 378.393C572.765 378.393 583.403 382.055 596.262 386.533ZM720.286 391.865C721.246 392.825 721.157 394.951 720.069 397.057C719.566 398.029 719.253 398.922 719.372 399.042C719.818 399.489 728.615 399.842 739.749 399.86L751.259 399.878L752.866 401.485C756.152 404.772 755.627 410.767 751.729 414.48C747.043 418.944 738.162 420.753 718.815 421.186C700.259 421.6 702.188 420.008 701.826 435.205C701.665 441.913 701.318 447.619 701.052 447.884C700.257 448.677 634.141 448.858 630.561 448.076C619.117 445.578 621.242 439.284 639.977 420.203C647.031 413.017 654.186 405.407 655.875 403.293L658.947 399.45L679.371 399.131C701.705 398.783 702.744 398.646 709.36 395.174C716.766 391.287 719.026 390.603 720.286 391.865ZM630.132 397.539C636.137 398.496 638.046 398.633 645.999 398.675L653.74 398.717L651.828 401.185C644.904 410.12 631.246 421.855 618.522 429.801C608.582 436.009 590.228 445.173 587.733 445.173C587.575 445.173 590.683 441.972 594.64 438.059C605.353 427.462 615.141 414.535 622.051 401.858C624.943 396.549 624.709 396.674 630.132 397.539ZM547.201 431.995C548.752 432.776 550.886 433.603 551.944 433.832C554.719 434.432 554.82 434.98 555.524 453.303C555.873 462.405 556.539 478.607 557.004 489.305C557.468 500.005 558.641 527.051 559.609 549.407C560.578 571.765 561.879 604.168 562.5 621.415C563.869 659.384 563.757 658.852 570.323 658.884L573.241 658.897L556.647 674.838L556.645 750.329L553.308 746.752C545.821 738.724 545.9 739.226 545.087 694.583C544.42 657.972 544.164 647.49 541.877 562.764C538.438 435.382 539.19 448.232 534.896 443.396L532.316 440.49L534.274 438.771C536.587 436.739 538.472 432.655 539.027 428.475L539.426 425.47L541.903 428.022C543.267 429.425 545.651 431.212 547.201 431.995ZM620.276 435.736C618.024 441.424 618.87 446.477 622.626 449.776C626.394 453.086 627.593 453.198 663.732 453.64C688.397 453.94 696.476 454.207 695.661 454.689C694.918 455.128 687.147 455.373 671.348 455.457C601.12 455.826 607.644 454.378 579.627 475.808L577.155 477.699L576.798 470.001C576.602 465.767 576.38 460.431 576.304 458.143L576.168 453.985L579.218 451.931C581.984 450.069 582.537 449.908 585.136 450.216C589.475 450.73 603.65 444.801 615.038 437.707C620.179 434.505 620.865 434.247 620.276 435.736ZM527.143 443.501C533.791 446.619 533.937 447.24 534.637 475.369C534.952 487.984 535.472 507.844 535.795 519.503C536.116 531.16 536.901 560.166 537.537 583.96C538.173 607.754 538.955 636.89 539.275 648.707C539.595 660.525 540.006 682.345 540.188 697.196C540.727 741.038 540.401 739.571 552.724 753.768C556.361 757.958 556.612 758.431 556.984 761.823C558.133 772.255 560.63 776.892 568.503 783.208L571.313 785.462H427.809L431.444 782.374C440.724 774.489 440.949 773.567 442.936 735.232C443.582 722.775 444.509 705.398 444.998 696.615C446.133 676.204 446 671.422 444.289 671.179C442.299 670.894 440.684 679.444 440.607 690.678L440.594 692.58L438.706 691.608C431.066 687.671 427.768 680.569 430.65 674.258C432.101 671.079 435.732 667.898 444.486 662.132C456.97 653.91 462.328 648.135 465.496 639.48L467.007 635.351L467.587 442.56L480.358 442.269C487.383 442.109 500.053 441.978 508.514 441.978H523.897L527.143 443.501ZM398.944 451.003C408.04 453.798 406.708 452.53 407.439 459.078C408.184 465.749 408.458 465.489 403.727 462.591C393 456.024 393.391 456.07 344.517 455.674C312.899 455.418 302.438 455.16 301.559 454.618C299.122 453.116 298.307 452.213 297.805 450.465L297.287 448.656H391.304L398.944 451.003ZM511.133 491.737C510.954 492.476 510.879 536.327 510.967 589.186L511.126 685.291L512.937 685.467C514.411 685.611 514.814 685.397 515.106 684.306C515.569 682.578 515.441 511.627 514.968 499.758L514.609 490.758L513.033 490.575C511.79 490.433 511.388 490.678 511.133 491.737ZM524.39 538.81C525.049 622.741 525.97 706.107 526.269 708.579C526.527 710.735 526.691 710.938 527.965 710.693C530.823 710.147 530.765 711.281 530.037 670.626C529.662 649.628 529.125 600.959 528.846 562.473C528.3 487.507 528.426 490.467 525.779 490.467H524.012L524.39 538.81ZM450.898 624.167C464.171 630.187 463.569 629.541 461.864 635.932C459.512 644.758 454.072 651.061 441.956 658.996C437.757 661.746 433.25 664.964 431.942 666.147L429.563 668.296V663.73C429.563 658.194 431.808 617.646 432.171 616.623C432.461 615.806 432.504 615.823 450.898 624.167ZM458.79 662.466C458.114 663.512 457.881 715.264 458.429 742.49L458.88 764.847L462.659 765.211L462.362 662.064L460.821 661.885C459.973 661.787 459.059 662.048 458.79 662.466ZM603.985 791.123C613.054 794.544 619.636 801.162 622.563 809.799C624.738 816.213 624.884 817.818 623.343 818.308C622.046 818.719 379.557 818.067 379.124 817.652C379.001 817.533 379.209 815.795 379.588 813.788C381.673 802.724 391.005 793.152 402.437 790.354C404.85 789.763 425.46 789.632 502.998 789.713L600.525 789.817L603.985 791.123ZM632.744 824.147C652.588 827.435 664.113 840.688 665.072 861.32L665.426 868.948L661.144 869.378C658.791 869.614 584.431 869.612 495.902 869.372L334.939 868.939V861.584C334.939 840.821 347.825 826.173 368.698 823.206C375.812 822.195 626.353 823.088 632.744 824.147Z" fill="white"/>
<path d="M510.967 589.186C510.879 536.327 510.954 492.476 511.133 491.737C511.388 490.678 511.79 490.433 513.033 490.575L514.609 490.758L514.968 499.758C515.441 511.627 515.569 682.578 515.106 684.306C514.814 685.397 514.411 685.611 512.937 685.467L511.126 685.291L510.967 589.186Z" fill="#A166FF"/>
<path d="M526.269 708.579C525.97 706.107 525.049 622.741 524.39 538.81L524.012 490.467H525.779C528.426 490.467 528.3 487.507 528.846 562.473C529.125 600.959 529.662 649.628 530.037 670.626C530.765 711.281 530.823 710.147 527.965 710.693C526.691 710.938 526.527 710.735 526.269 708.579Z" fill="#A166FF"/>
<path d="M458.429 742.49C457.881 715.264 458.114 663.512 458.79 662.466C459.059 662.048 459.973 661.787 460.821 661.885L462.362 662.064L462.659 765.211L458.88 764.847L458.429 742.49Z" fill="#A166FF"/>
<path fill-rule="evenodd" clip-rule="evenodd" d="M52.3491 381.405C57.0348 380.429 61.8659 380.391 66.5664 381.293C71.2668 382.194 75.7436 384.018 79.7413 386.658C83.739 389.299 87.1791 392.704 89.8659 396.679C91.5326 399.145 92.8892 401.8 93.9104 404.584C96.9967 402.822 100.356 401.565 103.863 400.872C109.171 399.823 114.653 400.098 119.83 401.672C125.007 403.247 129.719 406.073 133.555 409.902C136.562 412.904 138.96 416.451 140.627 420.342C141.191 420.247 141.759 420.17 142.329 420.111C149.709 419.326 157.095 421.52 162.863 426.207C168.631 430.895 172.307 437.69 173.088 445.096C173.869 452.502 171.692 459.919 167.032 465.716C162.372 471.513 155.608 475.216 148.225 476.004L148.031 476.024L71.8011 476.162L71.7876 468.698L147.62 468.561C152.951 467.944 157.836 465.246 161.218 461.039C164.64 456.782 166.243 451.329 165.668 445.879C165.093 440.43 162.389 435.439 158.158 432C153.928 428.562 148.516 426.957 143.113 427.533L143.1 427.535C141.836 427.665 140.587 427.92 139.372 428.296L135.808 429.399L134.706 425.833C133.462 421.807 131.257 418.152 128.285 415.185C125.313 412.219 121.664 410.031 117.659 408.813C113.654 407.595 109.414 407.382 105.309 408.194C101.204 409.005 97.3581 410.816 94.1078 413.47L89.3377 417.364L88.0952 411.332C87.3231 407.583 85.8242 404.024 83.6852 400.86C81.5461 397.695 78.8088 394.986 75.6305 392.887C72.4521 390.788 68.8947 389.339 65.1614 388.623C61.4281 387.907 57.5911 387.937 53.8694 388.712C50.1476 389.487 46.6132 390.991 43.4679 393.141C40.3226 395.29 37.6279 398.042 35.5384 401.24C33.4489 404.438 32.0057 408.02 31.2922 411.78C30.5786 415.541 30.6088 419.406 31.3809 423.155L31.4577 423.528V423.604L31.4672 423.636C31.4984 423.741 31.549 423.913 31.5958 424.11L24.3357 425.831C24.3369 425.836 24.3377 425.839 24.3377 425.839C24.3377 425.839 24.3329 425.821 24.3178 425.771C24.3157 425.764 24.3125 425.753 24.3084 425.739C24.2892 425.676 24.2513 425.55 24.2213 425.443C24.1626 425.232 24.0659 424.864 24.0209 424.402C23.1034 419.779 23.0831 415.021 23.962 410.388C24.8574 405.67 26.6685 401.173 29.2929 397.156C31.9173 393.14 35.3037 389.68 39.2597 386.977C43.2156 384.274 47.6634 382.381 52.3491 381.405Z" fill="white"/>
<path fill-rule="evenodd" clip-rule="evenodd" d="M32.0195 466.328C36.6668 465.396 41.4561 465.369 46.1138 466.25C50.7715 467.13 55.2097 468.901 59.173 471.464C63.1366 474.028 66.5486 477.334 69.2097 481.198C70.8496 483.578 72.184 486.142 73.1871 488.829C76.2502 487.139 79.5787 485.936 83.0482 485.276C88.2947 484.277 93.7115 484.545 98.8291 486.059C103.947 487.573 108.617 490.289 112.428 493.978C115.406 496.859 117.789 500.267 119.456 504.013C120.019 503.917 120.585 503.838 121.152 503.776L121.182 503.772L121.212 503.77C128.468 503.09 135.717 505.233 141.385 509.753C147.056 514.275 150.691 520.82 151.468 527.976C152.245 535.133 150.095 542.288 145.51 547.885C140.928 553.478 134.289 557.059 127.048 557.881L126.839 557.905H7.80163V550.441H126.408C131.671 549.792 136.45 547.169 139.739 543.154C143.068 539.091 144.609 533.926 144.05 528.782C143.492 523.636 140.874 518.891 136.734 515.589C132.598 512.29 127.282 510.705 121.937 511.198C120.668 511.339 119.415 511.592 118.193 511.954L114.695 512.99L113.581 509.515C112.352 505.679 110.178 502.185 107.241 499.342C104.302 496.498 100.69 494.393 96.7133 493.217C92.7367 492.04 88.5236 491.831 84.4434 492.608C80.3633 493.385 76.547 495.123 73.3251 497.663L68.5804 501.405L67.3618 495.485C66.6228 491.895 65.1643 488.479 63.0658 485.432C60.9672 482.385 58.2689 479.767 55.1222 477.732C51.9753 475.697 48.4433 474.286 44.7284 473.583C41.0166 472.882 37.1989 472.902 33.4954 473.644C26.0044 475.188 19.4711 479.564 15.309 485.781C11.1476 491.997 9.68706 499.556 11.2307 506.807L11.3125 507.191V507.272C11.3165 507.285 11.3205 507.299 11.3244 507.313C11.3573 507.427 11.4104 507.618 11.4562 507.842L4.14701 509.339C4.15458 509.376 4.16086 509.4 4.16086 509.4C4.16086 509.4 4.15864 509.392 4.15323 509.373L4.12343 509.271C4.11041 509.227 4.09181 509.163 4.07247 509.094C4.02067 508.908 3.92483 508.551 3.87827 508.098C2.00249 498.941 3.88447 489.433 9.10977 481.628C14.3829 473.751 22.6213 468.262 32.0009 466.331L32.0195 466.328Z" fill="#A166FF"/>
<path fill-rule="evenodd" clip-rule="evenodd" d="M940.064 478.348C935.843 477.473 931.49 477.446 927.258 478.268C923.026 479.09 919 480.746 915.414 483.139C911.827 485.531 908.752 488.613 906.366 492.205C905.311 493.793 904.088 496.709 903.065 499.524C902.575 500.873 902.164 502.106 901.875 503.001C901.731 503.448 901.618 503.808 901.542 504.055C901.504 504.178 901.475 504.273 901.456 504.335L901.435 504.405L901.43 504.42L899.978 509.293L895.768 506.45L895.757 506.443L895.711 506.412C895.67 506.385 895.607 506.342 895.523 506.287C895.355 506.177 895.107 506.014 894.795 505.814C894.169 505.413 893.291 504.862 892.286 504.268C890.209 503.041 887.833 501.774 886.046 501.154C882.321 499.862 878.784 499.596 874.903 499.93C871.112 500.257 867.424 501.329 864.048 503.086C860.673 504.843 857.679 507.25 855.236 510.168C854.174 511.437 852.814 513.869 851.623 516.27C851.056 517.414 850.569 518.463 850.224 519.227C850.052 519.608 849.916 519.916 849.824 520.126C849.778 520.231 849.744 520.312 849.721 520.365L849.696 520.423L849.689 520.438L848.436 523.387L845.328 522.592L845.304 522.586L845.208 522.562C845.122 522.54 844.995 522.509 844.838 522.471C844.522 522.394 844.084 522.289 843.599 522.181C842.568 521.949 841.53 521.745 840.937 521.684L840.926 521.682C834.819 521.035 828.706 522.841 823.93 526.703C819.155 530.565 816.108 536.167 815.461 542.276C814.815 548.385 816.62 554.501 820.481 559.278C824.341 564.055 829.941 567.102 836.048 567.75C839.343 568.099 858.352 568.324 877.787 568.36C897.223 568.396 916.232 568.24 919.529 567.903L920.287 575.328C916.491 575.716 896.918 575.859 877.774 575.824C858.629 575.788 839.057 575.574 835.262 575.172C827.187 574.316 819.783 570.287 814.679 563.97C809.574 557.654 807.186 549.567 808.042 541.49C808.897 533.412 812.925 526.006 819.24 520.899C825.553 515.794 833.634 513.406 841.707 514.26C842.43 514.335 843.309 514.493 844.115 514.658C844.364 514.13 844.641 513.554 844.94 512.952C846.12 510.574 847.82 507.403 849.515 505.377C852.589 501.705 856.357 498.676 860.604 496.465C864.851 494.254 869.493 492.905 874.263 492.494C878.943 492.091 883.567 492.395 888.491 494.103C890.919 494.945 893.695 496.444 895.801 497.678C895.883 497.448 895.967 497.213 896.053 496.975C897.068 494.183 898.547 490.49 900.151 488.075C903.084 483.659 906.865 479.87 911.274 476.929C915.683 473.988 920.633 471.952 925.836 470.941C931.038 469.93 936.389 469.964 941.579 471.04C946.768 472.116 951.692 474.213 956.064 477.209C960.436 480.206 964.169 484.041 967.046 488.493C969.924 492.946 971.888 497.925 972.824 503.143C973.758 508.349 973.651 513.689 972.509 518.853C972.457 519.11 972.383 519.43 972.33 519.654C972.3 519.781 972.273 519.895 972.253 519.976L972.23 520.074L972.22 520.112L964.973 518.338L964.98 518.31L965.001 518.225C965.011 518.182 965.024 518.129 965.038 518.069C965.047 518.029 965.058 517.986 965.068 517.941C965.125 517.702 965.177 517.472 965.202 517.348L965.209 517.309L965.218 517.27C966.153 513.061 966.242 508.707 965.481 504.462C964.719 500.218 963.121 496.167 960.781 492.545C958.44 488.924 955.404 485.804 951.847 483.367C948.291 480.929 944.286 479.223 940.064 478.348Z" fill="white"/>
<path fill-rule="evenodd" clip-rule="evenodd" d="M998.564 557.906C993.492 559.894 988.999 563.123 985.496 567.297C981.993 571.471 979.591 576.457 978.512 581.799L977.287 587.858L972.498 583.952C968.845 580.972 964.517 578.936 959.894 578.022C955.27 577.108 950.493 577.344 945.982 578.71C941.471 580.075 937.365 582.529 934.024 585.854C930.683 589.179 928.21 593.274 926.822 597.78L925.723 601.348L922.157 600.246C920.782 599.822 919.369 599.534 917.938 599.386L917.926 599.385C911.817 598.736 905.701 600.541 900.923 604.404C896.144 608.266 893.095 613.869 892.447 619.98C891.798 626.091 893.603 632.209 897.464 636.989C901.285 641.721 906.812 644.757 912.849 645.447L996.9 645.602L996.887 653.065L912.439 652.91L912.246 652.89C904.17 652.032 896.765 648 891.66 641.68C886.556 635.36 884.17 627.271 885.027 619.192C885.885 611.112 889.916 603.705 896.233 598.598C902.549 593.493 910.633 591.107 918.708 591.963C919.44 592.038 920.168 592.141 920.891 592.271C922.718 587.901 925.389 583.92 928.762 580.563C932.969 576.375 938.14 573.286 943.821 571.566C949.502 569.846 955.518 569.549 961.34 570.7C965.341 571.491 969.166 572.949 972.661 575.002C974.256 570.452 976.663 566.214 979.781 562.498C984.086 557.369 989.608 553.401 995.842 550.957L998.564 557.906Z" fill="#A166FF"/>
<path d="M1216.8 412.32L1182.96 322.56L1148.88 412.32H1216.8ZM1115.76 474C1113.84 474 1112.88 473.12 1112.88 471.36C1112.88 470.88 1113.2 469.84 1113.84 468.24L1174.56 310.8C1175.2 308.72 1176.72 307.68 1179.12 307.68H1187.52C1189.92 307.68 1191.44 308.72 1192.08 310.8L1252.8 468.24C1253.44 469.84 1253.76 470.88 1253.76 471.36C1253.76 473.12 1252.8 474 1250.88 474H1243.2C1241.12 474 1239.76 472.96 1239.12 470.88L1221.36 424.08H1144.56L1126.8 470.88C1126.16 472.96 1124.8 474 1122.72 474H1115.76Z" fill="white"/>
<path d="M1304.7 474C1302.46 474 1301.02 472.96 1300.38 470.88L1252.86 315.12C1252.06 312.56 1251.66 311.04 1251.66 310.56C1251.66 308.64 1252.7 307.68 1254.78 307.68H1262.94C1265.02 307.68 1266.38 308.72 1267.02 310.8L1309.98 457.92L1345.5 316.32C1345.98 314.24 1347.42 313.2 1349.82 313.2H1359.9C1362.3 313.2 1363.74 314.24 1364.22 316.32L1399.5 458.4L1443.42 310.8C1444.06 308.72 1445.42 307.68 1447.5 307.68H1455.18C1457.26 307.68 1458.3 308.64 1458.3 310.56C1458.3 311.2 1457.9 312.72 1457.1 315.12L1408.62 470.88C1407.98 472.96 1406.54 474 1404.3 474H1394.46C1392.06 474 1390.62 472.96 1390.14 470.88L1354.38 331.68L1318.86 470.88C1318.38 472.96 1316.94 474 1314.54 474H1304.7Z" fill="white"/>
<path d="M1527.24 478.08C1510.92 478.08 1496.12 475.2 1482.84 469.44C1480.76 468.64 1479.72 467.04 1479.72 464.64V459.84C1479.72 457.76 1480.6 456.72 1482.36 456.72C1483.48 456.72 1485.48 457.28 1488.36 458.4C1500.36 462.72 1512.92 464.88 1526.04 464.88C1539.32 464.88 1549.88 461.76 1557.72 455.52C1565.72 449.28 1569.72 440.8 1569.72 430.08C1569.72 423.52 1567.56 417.92 1563.24 413.28C1558.92 408.64 1551.96 404.48 1542.36 400.8L1514.52 390C1502.2 385.2 1493.16 379.52 1487.4 372.96C1481.64 366.24 1478.76 358 1478.76 348.24C1478.76 334.96 1483.48 324.24 1492.92 316.08C1502.52 307.76 1515.08 303.6 1530.6 303.6C1544.04 303.6 1557.72 306.32 1571.64 311.76C1573.72 312.56 1574.76 314.16 1574.76 316.56V321.36C1574.76 323.28 1573.8 324.24 1571.88 324.24C1570.92 324.24 1567.32 323.28 1561.08 321.36C1556.44 319.92 1551.4 318.8 1545.96 318C1540.52 317.2 1535.64 316.8 1531.32 316.8C1519 316.8 1509.56 319.52 1503 324.96C1496.44 330.24 1493.16 337.84 1493.16 347.76C1493.16 352.88 1493.96 357.2 1495.56 360.72C1497.32 364.08 1500.44 367.2 1504.92 370.08C1509.4 372.96 1516.28 376.16 1525.56 379.68L1551.24 389.52C1562.76 394 1571.16 399.52 1576.44 406.08C1581.72 412.48 1584.36 420.56 1584.36 430.32C1584.36 444.56 1579.08 456.08 1568.52 464.88C1558.12 473.68 1544.36 478.08 1527.24 478.08Z" fill="white"/>
<path d="M1742.85 478.08C1722.53 478.08 1707.01 472.56 1696.29 461.52C1685.57 450.48 1680.21 434.48 1680.21 413.52V311.28C1680.21 308.88 1681.41 307.68 1683.81 307.68H1690.77C1693.17 307.68 1694.37 308.88 1694.37 311.28V416.16C1694.37 431.84 1698.53 443.92 1706.85 452.4C1715.17 460.72 1727.17 464.88 1742.85 464.88C1758.53 464.88 1770.53 460.72 1778.85 452.4C1787.17 443.92 1791.33 431.84 1791.33 416.16V311.28C1791.33 308.88 1792.53 307.68 1794.93 307.68H1801.89C1804.29 307.68 1805.49 308.88 1805.49 311.28V413.52C1805.49 434.48 1800.13 450.48 1789.41 461.52C1778.69 472.56 1763.17 478.08 1742.85 478.08Z" fill="white"/>
<path d="M1872.61 477.6C1866.21 477.6 1859.81 476.96 1853.41 475.68C1847.17 474.4 1841.49 472.64 1836.37 470.4C1834.45 469.6 1833.49 468 1833.49 465.6V461.52C1833.49 459.6 1834.37 458.64 1836.13 458.64C1836.45 458.64 1837.17 458.8 1838.29 459.12C1839.57 459.44 1841.89 460.16 1845.25 461.28C1854.21 464 1863.65 465.36 1873.57 465.36C1883.33 465.36 1890.77 463.44 1895.89 459.6C1901.01 455.6 1903.57 449.84 1903.57 442.32C1903.57 438 1901.97 434.32 1898.77 431.28C1895.73 428.24 1890.53 425.36 1883.17 422.64L1861.33 414.48C1844.21 408.08 1835.65 397.6 1835.65 383.04C1835.65 373.12 1839.33 365.12 1846.69 359.04C1854.21 352.8 1863.97 349.68 1875.97 349.68C1886.69 349.68 1897.17 351.68 1907.41 355.68C1909.33 356.48 1910.29 358.08 1910.29 360.48V364.08C1910.29 366.16 1909.41 367.2 1907.65 367.2C1906.53 367.2 1904.53 366.8 1901.65 366C1891.57 363.28 1882.77 361.92 1875.25 361.92C1866.61 361.92 1860.05 363.68 1855.57 367.2C1851.09 370.56 1848.85 375.6 1848.85 382.32C1848.85 387.76 1850.37 392 1853.41 395.04C1856.61 397.92 1862.77 401.12 1871.89 404.64L1891.09 411.84C1900.05 415.2 1906.53 419.36 1910.53 424.32C1914.69 429.12 1916.77 435.12 1916.77 442.32C1916.77 453.2 1912.77 461.84 1904.77 468.24C1896.93 474.48 1886.21 477.6 1872.61 477.6Z" fill="white"/>
<path d="M1994.26 477.6C1975.22 477.6 1960.9 472.24 1951.3 461.52C1941.7 450.64 1936.9 434.56 1936.9 413.28C1936.9 393.12 1941.7 377.52 1951.3 366.48C1961.06 355.28 1974.66 349.68 1992.1 349.68C2006.66 349.68 2017.78 353.84 2025.46 362.16C2033.3 370.48 2037.22 382.4 2037.22 397.92C2037.22 404.32 2036.9 409.12 2036.26 412.32C2035.78 414.72 2034.42 415.92 2032.18 415.92H1950.82C1950.98 432.72 1954.66 445.12 1961.86 453.12C1969.06 461.12 1980.18 465.12 1995.22 465.12C2006.74 465.12 2017.7 463.12 2028.1 459.12C2030.18 458.32 2031.62 457.92 2032.42 457.92C2033.06 457.92 2033.62 458.24 2034.1 458.88C2034.58 459.36 2034.82 460 2034.82 460.8V464.4C2034.82 466.96 2033.94 468.64 2032.18 469.44C2020.66 474.88 2008.02 477.6 1994.26 477.6ZM2023.78 404.88C2023.94 402.64 2024.02 400 2024.02 396.96C2024.02 385.44 2021.22 376.72 2015.62 370.8C2010.02 364.88 2001.78 361.92 1990.9 361.92C1965.62 361.92 1952.26 376.24 1950.82 404.88H2023.78Z" fill="white"/>
<path d="M2070.96 474C2068.56 474 2067.36 472.8 2067.36 470.4V356.88C2067.36 354.48 2068.56 353.28 2070.96 353.28H2075.52C2078.08 353.28 2079.44 354.48 2079.6 356.88L2080.8 370.8C2086.88 364.08 2092.8 359.36 2098.56 356.64C2104.48 353.76 2111.12 352.32 2118.48 352.32C2121.04 352.32 2123.12 352.4 2124.72 352.56C2127.12 352.72 2128.32 354 2128.32 356.4V362.4C2128.32 363.04 2128.08 363.68 2127.6 364.32C2127.12 364.8 2126.48 365.04 2125.68 365.04C2124.4 365.04 2123.2 365.04 2122.08 365.04C2120.96 364.88 2119.28 364.8 2117.04 364.8C2109.68 364.8 2103.12 366.16 2097.36 368.88C2091.76 371.6 2086.32 376 2081.04 382.08V470.4C2081.04 472.8 2079.84 474 2077.44 474H2070.96Z" fill="white"/>
<path d="M2289.71 476.64C2236.75 476.64 2210.27 448.24 2210.27 391.44C2210.27 363.6 2216.99 342.4 2230.43 327.84C2243.87 313.12 2263.31 305.76 2288.75 305.76C2302.99 305.76 2316.75 308.48 2330.03 313.92C2331.95 314.72 2332.91 316.24 2332.91 318.48V323.28C2332.91 325.36 2332.11 326.4 2330.51 326.4C2329.23 326.4 2327.23 325.92 2324.51 324.96C2312.83 320.96 2301.31 318.96 2289.95 318.96C2267.87 318.96 2251.55 324.56 2240.99 335.76C2230.43 346.96 2225.15 364.48 2225.15 388.32V394.32C2225.15 417.84 2230.59 435.28 2241.47 446.64C2252.51 457.84 2269.39 463.44 2292.11 463.44C2304.27 463.44 2314.99 462 2324.27 459.12V403.44H2285.15C2282.75 403.44 2281.55 402.24 2281.55 399.84V394.32C2281.55 391.92 2282.75 390.72 2285.15 390.72H2334.83C2337.23 390.72 2338.43 391.92 2338.43 394.32V461.52C2338.43 463.44 2338.19 464.88 2337.71 465.84C2337.23 466.64 2336.27 467.36 2334.83 468C2321.39 473.76 2306.35 476.64 2289.71 476.64Z" fill="white"/>
<path d="M2378.46 474C2376.06 474 2374.86 472.8 2374.86 470.4V356.88C2374.86 354.48 2376.06 353.28 2378.46 353.28H2383.02C2385.58 353.28 2386.94 354.48 2387.1 356.88L2388.3 370.8C2394.38 364.08 2400.3 359.36 2406.06 356.64C2411.98 353.76 2418.62 352.32 2425.98 352.32C2428.54 352.32 2430.62 352.4 2432.22 352.56C2434.62 352.72 2435.82 354 2435.82 356.4V362.4C2435.82 363.04 2435.58 363.68 2435.1 364.32C2434.62 364.8 2433.98 365.04 2433.18 365.04C2431.9 365.04 2430.7 365.04 2429.58 365.04C2428.46 364.88 2426.78 364.8 2424.54 364.8C2417.18 364.8 2410.62 366.16 2404.86 368.88C2399.26 371.6 2393.82 376 2388.54 382.08V470.4C2388.54 472.8 2387.34 474 2384.94 474H2378.46Z" fill="white"/>
<path d="M2504.46 477.6C2486.86 477.6 2473.18 472 2463.42 460.8C2453.66 449.44 2448.78 433.68 2448.78 413.52C2448.78 393.36 2453.66 377.68 2463.42 366.48C2473.18 355.28 2486.86 349.68 2504.46 349.68C2522.06 349.68 2535.74 355.28 2545.5 366.48C2555.26 377.68 2560.14 393.36 2560.14 413.52C2560.14 433.68 2555.26 449.44 2545.5 460.8C2535.74 472 2522.06 477.6 2504.46 477.6ZM2504.46 465.12C2532.14 465.12 2545.98 447.92 2545.98 413.52C2545.98 379.28 2532.14 362.16 2504.46 362.16C2476.78 362.16 2462.94 379.28 2462.94 413.52C2462.94 447.92 2476.78 465.12 2504.46 465.12Z" fill="white"/>
<path d="M2626.22 477.6C2614.7 477.6 2605.82 474.48 2599.58 468.24C2593.5 462 2590.46 452.88 2590.46 440.88V356.88C2590.46 354.48 2591.66 353.28 2594.06 353.28H2600.54C2602.94 353.28 2604.14 354.48 2604.14 356.88V435.12C2604.14 445.68 2606.14 453.36 2610.14 458.16C2614.14 462.8 2620.46 465.12 2629.1 465.12C2636.94 465.12 2644.3 463.92 2651.18 461.52C2658.06 459.12 2665.42 455.2 2673.26 449.76V356.88C2673.26 354.48 2674.46 353.28 2676.86 353.28H2683.34C2685.74 353.28 2686.94 354.48 2686.94 356.88V470.4C2686.94 472.8 2685.74 474 2683.34 474H2678.54C2676.14 474 2674.78 472.8 2674.46 470.4L2673.5 460.8C2658.3 472 2642.54 477.6 2626.22 477.6Z" fill="white"/>
<path d="M2727.91 523.44C2725.51 523.44 2724.31 522.24 2724.31 519.84V356.88C2724.31 354.48 2725.51 353.28 2727.91 353.28H2732.47C2735.03 353.28 2736.39 354.48 2736.55 356.88L2737.51 366.72C2744.87 360.8 2751.99 356.48 2758.87 353.76C2765.91 351.04 2773.11 349.68 2780.47 349.68C2795.99 349.68 2808.23 355.28 2817.19 366.48C2826.15 377.52 2830.63 392.72 2830.63 412.08C2830.63 431.76 2825.91 447.44 2816.47 459.12C2807.03 470.8 2794.31 476.64 2778.31 476.64C2763.59 476.64 2750.15 471.2 2737.99 460.32V519.84C2737.99 522.24 2736.79 523.44 2734.39 523.44H2727.91ZM2776.87 464.16C2789.99 464.16 2799.83 459.92 2806.39 451.44C2813.11 442.8 2816.47 430 2816.47 413.04C2816.47 379.12 2803.59 362.16 2777.83 362.16C2764.55 362.16 2751.27 367.28 2737.99 377.52V447.84C2744.55 453.44 2750.95 457.6 2757.19 460.32C2763.43 462.88 2769.99 464.16 2776.87 464.16Z" fill="white"/>
<path d="M1227.66 836.6C1194.86 836.6 1169.96 827.6 1152.96 809.6C1136.16 791.4 1127.76 764.8 1127.76 729.8C1127.76 695.2 1136.46 668.6 1153.86 650C1171.46 631.4 1196.56 622.1 1229.16 622.1C1243.16 622.1 1257.16 624.1 1271.16 628.1C1273.56 628.9 1275.16 630 1275.96 631.4C1276.76 632.6 1277.16 634.5 1277.16 637.1V648.5C1277.16 652.3 1275.76 654.2 1272.96 654.2C1272.16 654.2 1271.06 654.1 1269.66 653.9C1268.46 653.7 1266.16 653.2 1262.76 652.4C1251.96 650 1241.96 648.8 1232.76 648.8C1207.56 648.8 1189.16 655 1177.56 667.4C1165.96 679.6 1160.16 699.1 1160.16 725.9V733.1C1160.16 759.5 1165.76 778.9 1176.96 791.3C1188.36 803.7 1206.36 809.9 1230.96 809.9C1239.16 809.9 1251.06 808.3 1266.66 805.1C1269.46 804.5 1271.46 804.1 1272.66 803.9C1273.86 803.7 1274.86 803.6 1275.66 803.6C1278.66 803.6 1280.16 805.5 1280.16 809.3V820.4C1280.16 823 1279.76 825 1278.96 826.4C1278.16 827.6 1276.56 828.6 1274.16 829.4C1259.76 834.2 1244.26 836.6 1227.66 836.6Z" fill="white"/>
<path d="M1377.79 837.5C1354.99 837.5 1337.19 830.4 1324.39 816.2C1311.59 802 1305.19 782.2 1305.19 756.8C1305.19 731.6 1311.59 711.9 1324.39 697.7C1337.19 683.5 1354.99 676.4 1377.79 676.4C1400.59 676.4 1418.39 683.5 1431.19 697.7C1443.99 711.9 1450.39 731.6 1450.39 756.8C1450.39 782.2 1443.99 802 1431.19 816.2C1418.39 830.4 1400.59 837.5 1377.79 837.5ZM1377.79 813.5C1405.99 813.5 1420.09 794.6 1420.09 756.8C1420.09 719.2 1405.99 700.4 1377.79 700.4C1349.59 700.4 1335.49 719.2 1335.49 756.8C1335.49 794.6 1349.59 813.5 1377.79 813.5Z" fill="white"/>
<path d="M1552.11 836.3C1528.51 836.3 1510.41 829.6 1497.81 816.2C1485.41 802.6 1479.21 783 1479.21 757.4C1479.21 732 1485.61 712.4 1498.41 698.6C1511.41 684.6 1529.71 677.6 1553.31 677.6C1564.11 677.6 1574.71 679.5 1585.11 683.3C1587.31 684.1 1588.81 685.1 1589.61 686.3C1590.61 687.5 1591.11 689.5 1591.11 692.3V700.4C1591.11 704.4 1589.81 706.4 1587.21 706.4C1586.21 706.4 1584.61 706.1 1582.41 705.5C1574.21 703.1 1565.91 701.9 1557.51 701.9C1540.71 701.9 1528.61 706.2 1521.21 714.8C1513.81 723.2 1510.11 736.7 1510.11 755.3V759.2C1510.11 777.4 1513.81 790.8 1521.21 799.4C1528.81 807.8 1540.71 812 1556.91 812C1565.31 812 1574.31 810.6 1583.91 807.8C1586.11 807.2 1587.61 806.9 1588.41 806.9C1591.01 806.9 1592.31 808.9 1592.31 812.9V821C1592.31 823.6 1591.91 825.5 1591.11 826.7C1590.31 827.9 1588.71 829 1586.31 830C1576.51 834.2 1565.11 836.3 1552.11 836.3Z" fill="white"/>
<path d="M1631.29 833C1627.29 833 1625.29 831 1625.29 827V617C1625.29 613 1627.29 611 1631.29 611H1648.99C1652.99 611 1654.99 613 1654.99 617V696.5C1673.99 683.1 1693.39 676.4 1713.19 676.4C1727.79 676.4 1738.89 680.3 1746.49 688.1C1754.09 695.7 1757.89 706.8 1757.89 721.4V827C1757.89 831 1755.89 833 1751.89 833H1734.19C1730.19 833 1728.19 831 1728.19 827V731.3C1728.19 720.7 1725.99 712.9 1721.59 707.9C1717.39 702.9 1710.69 700.4 1701.49 700.4C1685.69 700.4 1670.19 705.5 1654.99 715.7V827C1654.99 831 1652.99 833 1648.99 833H1631.29Z" fill="white"/>
<path d="M1838.86 836.9C1824.66 836.9 1813.26 832.9 1804.66 824.9C1796.26 816.7 1792.06 805.8 1792.06 792.2C1792.06 777.6 1797.26 766 1807.66 757.4C1818.06 748.6 1832.06 744.2 1849.66 744.2C1860.86 744.2 1873.46 745.9 1887.46 749.3V729.5C1887.46 718.7 1884.96 711.1 1879.96 706.7C1875.16 702.3 1866.86 700.1 1855.06 700.1C1841.26 700.1 1827.76 702.1 1814.56 706.1C1809.96 707.5 1807.06 708.2 1805.86 708.2C1803.46 708.2 1802.26 706.4 1802.26 702.8V694.7C1802.26 692.1 1802.66 690.2 1803.46 689C1804.26 687.8 1805.86 686.7 1808.26 685.7C1814.46 682.9 1822.26 680.7 1831.66 679.1C1841.26 677.3 1850.76 676.4 1860.16 676.4C1879.16 676.4 1893.16 680.4 1902.16 688.4C1911.16 696.2 1915.66 708.2 1915.66 724.4V827C1915.66 831 1913.66 833 1909.66 833H1896.76C1892.96 833 1890.76 831.1 1890.16 827.3L1888.66 817.4C1881.46 823.6 1873.46 828.4 1864.66 831.8C1856.06 835.2 1847.46 836.9 1838.86 836.9ZM1846.06 814.4C1852.66 814.4 1859.56 813.1 1866.76 810.5C1873.96 807.9 1880.86 804.1 1887.46 799.1V768.5C1876.66 765.9 1866.06 764.6 1855.66 764.6C1833.06 764.6 1821.76 773.3 1821.76 790.7C1821.76 798.3 1823.86 804.2 1828.06 808.4C1832.26 812.4 1838.26 814.4 1846.06 814.4Z" fill="white"/>
<path d="M2029.16 812.3C2056.76 812.3 2070.56 793.7 2070.56 756.5C2070.56 737.5 2067.16 723.4 2060.36 714.2C2053.76 705 2043.56 700.4 2029.76 700.4C2015.56 700.4 2002.16 705 1989.56 714.2V797.9C2002.16 807.5 2015.36 812.3 2029.16 812.3ZM2036.06 836.3C2017.66 836.3 2001.56 829.9 1987.76 817.1L1985.66 827C1985.06 831 1982.76 833 1978.76 833H1965.86C1961.86 833 1959.86 831 1959.86 827V617C1959.86 613 1961.86 611 1965.86 611H1983.56C1987.56 611 1989.56 613 1989.56 617V695.3C2004.56 682.7 2020.76 676.4 2038.16 676.4C2057.56 676.4 2072.86 683.4 2084.06 697.4C2095.26 711.4 2100.86 730.6 2100.86 755C2100.86 779.6 2094.96 799.3 2083.16 814.1C2071.36 828.9 2055.66 836.3 2036.06 836.3Z" fill="white"/>
<path d="M2174.6 836.9C2160.4 836.9 2149 832.9 2140.4 824.9C2132 816.7 2127.8 805.8 2127.8 792.2C2127.8 777.6 2133 766 2143.4 757.4C2153.8 748.6 2167.8 744.2 2185.4 744.2C2196.6 744.2 2209.2 745.9 2223.2 749.3V729.5C2223.2 718.7 2220.7 711.1 2215.7 706.7C2210.9 702.3 2202.6 700.1 2190.8 700.1C2177 700.1 2163.5 702.1 2150.3 706.1C2145.7 707.5 2142.8 708.2 2141.6 708.2C2139.2 708.2 2138 706.4 2138 702.8V694.7C2138 692.1 2138.4 690.2 2139.2 689C2140 687.8 2141.6 686.7 2144 685.7C2150.2 682.9 2158 680.7 2167.4 679.1C2177 677.3 2186.5 676.4 2195.9 676.4C2214.9 676.4 2228.9 680.4 2237.9 688.4C2246.9 696.2 2251.4 708.2 2251.4 724.4V827C2251.4 831 2249.4 833 2245.4 833H2232.5C2228.7 833 2226.5 831.1 2225.9 827.3L2224.4 817.4C2217.2 823.6 2209.2 828.4 2200.4 831.8C2191.8 835.2 2183.2 836.9 2174.6 836.9ZM2181.8 814.4C2188.4 814.4 2195.3 813.1 2202.5 810.5C2209.7 807.9 2216.6 804.1 2223.2 799.1V768.5C2212.4 765.9 2201.8 764.6 2191.4 764.6C2168.8 764.6 2157.5 773.3 2157.5 790.7C2157.5 798.3 2159.6 804.2 2163.8 808.4C2168 812.4 2174 814.4 2181.8 814.4Z" fill="white"/>
<path d="M2301.61 833C2297.61 833 2295.61 831 2295.61 827V686.9C2295.61 682.9 2297.61 680.9 2301.61 680.9H2314.81C2316.81 680.9 2318.31 681.3 2319.31 682.1C2320.51 682.9 2321.31 684.4 2321.71 686.6L2323.51 696.2C2342.71 683 2361.41 676.4 2379.61 676.4C2398.21 676.4 2410.81 683.5 2417.41 697.7C2437.21 683.5 2457.01 676.4 2476.81 676.4C2490.61 676.4 2501.21 680.3 2508.61 688.1C2516.01 695.9 2519.71 707 2519.71 721.4V827C2519.71 831 2517.71 833 2513.71 833H2496.01C2492.01 833 2490.01 831 2490.01 827V729.8C2490.01 719.8 2488.11 712.4 2484.31 707.6C2480.51 702.8 2474.51 700.4 2466.31 700.4C2451.71 700.4 2437.01 704.9 2422.21 713.9C2422.41 715.3 2422.51 716.8 2422.51 718.4C2422.51 720 2422.51 721.6 2422.51 723.2V827C2422.51 831 2420.51 833 2416.51 833H2398.81C2394.81 833 2392.81 831 2392.81 827V729.8C2392.81 719.8 2390.91 712.4 2387.11 707.6C2383.31 702.8 2377.31 700.4 2369.11 700.4C2353.91 700.4 2339.31 704.8 2325.31 713.6V827C2325.31 831 2323.31 833 2319.31 833H2301.61Z" fill="white"/>
<path d="M2632.68 812.3C2660.28 812.3 2674.08 793.7 2674.08 756.5C2674.08 737.5 2670.68 723.4 2663.88 714.2C2657.28 705 2647.08 700.4 2633.28 700.4C2619.08 700.4 2605.68 705 2593.08 714.2V797.9C2605.68 807.5 2618.88 812.3 2632.68 812.3ZM2639.58 836.3C2621.18 836.3 2605.08 829.9 2591.28 817.1L2589.18 827C2588.58 831 2586.28 833 2582.28 833H2569.38C2565.38 833 2563.38 831 2563.38 827V617C2563.38 613 2565.38 611 2569.38 611H2587.08C2591.08 611 2593.08 613 2593.08 617V695.3C2608.08 682.7 2624.28 676.4 2641.68 676.4C2661.08 676.4 2676.38 683.4 2687.58 697.4C2698.78 711.4 2704.38 730.6 2704.38 755C2704.38 779.6 2698.48 799.3 2686.68 814.1C2674.88 828.9 2659.18 836.3 2639.58 836.3Z" fill="white"/>
<path d="M2778.12 836.9C2763.92 836.9 2752.52 832.9 2743.92 824.9C2735.52 816.7 2731.32 805.8 2731.32 792.2C2731.32 777.6 2736.52 766 2746.92 757.4C2757.32 748.6 2771.32 744.2 2788.92 744.2C2800.12 744.2 2812.72 745.9 2826.72 749.3V729.5C2826.72 718.7 2824.22 711.1 2819.22 706.7C2814.42 702.3 2806.12 700.1 2794.32 700.1C2780.52 700.1 2767.02 702.1 2753.82 706.1C2749.22 707.5 2746.32 708.2 2745.12 708.2C2742.72 708.2 2741.52 706.4 2741.52 702.8V694.7C2741.52 692.1 2741.92 690.2 2742.72 689C2743.52 687.8 2745.12 686.7 2747.52 685.7C2753.72 682.9 2761.52 680.7 2770.92 679.1C2780.52 677.3 2790.02 676.4 2799.42 676.4C2818.42 676.4 2832.42 680.4 2841.42 688.4C2850.42 696.2 2854.92 708.2 2854.92 724.4V827C2854.92 831 2852.92 833 2848.92 833H2836.02C2832.22 833 2830.02 831.1 2829.42 827.3L2827.92 817.4C2820.72 823.6 2812.72 828.4 2803.92 831.8C2795.32 835.2 2786.72 836.9 2778.12 836.9ZM2785.32 814.4C2791.92 814.4 2798.82 813.1 2806.02 810.5C2813.22 807.9 2820.12 804.1 2826.72 799.1V768.5C2815.92 765.9 2805.32 764.6 2794.92 764.6C2772.32 764.6 2761.02 773.3 2761.02 790.7C2761.02 798.3 2763.12 804.2 2767.32 808.4C2771.52 812.4 2777.52 814.4 2785.32 814.4Z" fill="white"/>
</svg>
