<?xml version="1.0" encoding="UTF-8" standalone="no"?>
<!-- Created with Inkscape (http://www.inkscape.org/) -->

<svg
   width="525mm"
   height="177.59962mm"
   viewBox="0 0 525.00001 177.59962"
   version="1.1"
   id="svg5"
   xml:space="preserve"
   inkscape:version="1.2.2 (732a01da63, 2022-12-09)"
   sodipodi:docname="Logo Banco de Desarrollo Productivo.svg"
   xmlns:inkscape="http://www.inkscape.org/namespaces/inkscape"
   xmlns:sodipodi="http://sodipodi.sourceforge.net/DTD/sodipodi-0.dtd"
   xmlns="http://www.w3.org/2000/svg"
   xmlns:svg="http://www.w3.org/2000/svg"><sodipodi:namedview
     id="namedview7"
     pagecolor="#ffffff"
     bordercolor="#000000"
     borderopacity="0.25"
     inkscape:showpageshadow="2"
     inkscape:pageopacity="0.0"
     inkscape:pagecheckerboard="0"
     inkscape:deskcolor="#d1d1d1"
     inkscape:document-units="mm"
     showgrid="false"
     inkscape:zoom="0.34565095"
     inkscape:cx="656.73188"
     inkscape:cy="593.08385"
     inkscape:window-width="1920"
     inkscape:window-height="974"
     inkscape:window-x="-11"
     inkscape:window-y="1609"
     inkscape:window-maximized="1"
     inkscape:current-layer="g5248" /><defs
     id="defs2"><clipPath
       clipPathUnits="userSpaceOnUse"
       id="clipPath1426"><rect
         style="fill:#a13d3d;fill-opacity:0.733894;stroke-width:0.00922443"
         id="rect1428"
         width="157.30284"
         height="79.23983"
         x="31.575386"
         y="64.100449" /></clipPath></defs><g
     inkscape:label="Layer 1"
     inkscape:groupmode="layer"
     id="layer1"
     transform="translate(220.72333,194.34683)"><g
       id="g1442"
       transform="translate(0.9568299,-52.81701)" /><g
       id="g5248"
       transform="translate(0,-29.066701)"><g
         id="g5317"
         transform="translate(12.813269,4.3345419)"><path
           style="fill:#06aacf;stroke-width:0.264583"
           d="m -207.65439,-18.901099 c -2.02924,-0.659236 -3.01852,-2.026152 -8.56787,-11.83841 -0.37034,-0.654844 -1.44804,-2.514256 -2.39486,-4.131998 -0.94683,-1.617768 -1.81198,-3.344174 -1.92256,-3.836458 -0.51526,-2.294017 0.0141,-4.260268 2.09296,-7.774252 0.34436,-0.582083 1.48988,-2.546614 2.54559,-4.365624 5.78037,-9.959657 5.5988,-9.698858 7.47625,-10.739093 l 1.39021,-0.770282 h 10.18646 c 11.13249,0 11.74081,0.06776 13.35813,1.487779 0.75431,0.662278 3.31062,4.427987 3.31062,4.876852 0,0.07051 0.27873,0.572294 0.61941,1.115113 0.34068,0.542793 0.92228,1.522704 1.29245,2.177547 0.37018,0.654844 1.47754,2.559844 2.4608,4.233333 3.1616,5.380937 3.56484,6.268747 3.56484,7.848626 0,1.437958 -0.69615,3.268874 -2.19669,5.777415 -0.79096,1.322282 -3.60709,6.16757 -3.99824,6.879167 -2.05024,3.729804 -3.89523,6.694249 -4.61339,7.412592 -1.87369,1.874203 -1.65466,1.842982 -13.26877,1.891401 -6.91538,0.02881 -10.7502,-0.05363 -11.33534,-0.243708 z m 111.265374,-5.650071 c -2.241822,-0.810366 -3.969694,-2.403104 -5.300894,-4.886325 -0.34487,-0.64336 -0.97857,-1.765035 -1.40821,-2.492639 -0.42964,-0.727604 -0.86252,-1.50151 -0.96195,-1.719792 -0.0994,-0.218281 -0.65775,-1.152974 -1.24072,-2.077085 -0.58296,-0.92411 -1.05993,-1.717966 -1.05993,-1.764082 0,-0.04614 -1.44711,-2.564263 -3.21581,-5.595832 -4.21315,-7.221378 -4.63066,-8.097996 -4.8551,-10.19376 -0.2463,-2.299944 0.22759,-3.877918 2.12992,-7.092156 0.81819,-1.382448 1.81725,-3.108854 2.22013,-3.836458 0.9513,-1.718072 1.43581,-2.559076 3.5528,-6.166829 0.96556,-1.645496 1.75556,-3.050196 1.75556,-3.121554 0,-0.07136 0.41672,-0.781182 0.92604,-1.577393 0.50933,-0.796184 0.92605,-1.506881 0.92605,-1.579271 0,-0.291386 2.52012,-4.260479 3.027626,-4.7684 0.299334,-0.299588 0.960964,-0.842671 1.470287,-1.206844 2.036598,-1.45624 1.637355,-1.423458 17.330207,-1.423458 h 14.552083 l 1.351343,0.712946 c 2.39141,1.261666 3.386733,2.34614 5.374063,5.855361 0.30285,0.534776 0.78876,1.389036 1.079802,1.898359 0.291042,0.509323 0.780484,1.372526 1.087652,1.918229 0.307165,0.545703 1.419936,2.480469 2.472824,4.299479 1.052886,1.81901 2.214888,3.843073 2.582225,4.497917 0.367337,0.654843 1.237517,2.143124 1.933731,3.307291 2.234025,3.735599 2.772003,5.16173 2.767499,7.336366 -0.0051,2.47912 -0.268504,3.232917 -2.428673,6.951133 -0.50726,0.873125 -1.614445,2.778125 -2.460416,4.233333 -0.845968,1.455209 -1.740831,3.003021 -1.988579,3.439584 -5.977549,10.533088 -6.540828,11.437989 -8.070064,12.964582 -2.625603,2.621042 -1.888644,2.521479 -18.385781,2.484014 -11.297052,-0.02566 -14.358842,-0.105754 -15.163715,-0.396716 z m 278.016076,-4.666985 c -0.0698,-0.181901 -0.0958,-22.178697 -0.0578,-48.881768 l 0.069,-48.551037 0.65103,-1.27444 c 0.83627,-1.63706 2.5735,-3.23128 4.40259,-4.04019 l 1.44375,-0.6385 h 29.2441 c 18.80944,0 29.92313,0.098 31.14715,0.27462 7.84796,1.13247 11.12496,2.03218 15.39679,4.22725 2.4016,1.23404 3.84646,2.28588 5.91558,4.30642 5.19512,5.07319 7.90152,12.1204 8.70887,22.67713 0.29128,3.808788 -0.0864,17.675089 -0.56367,20.69634 -1.25849,7.966207 -3.43445,12.993713 -7.23913,16.72574 -3.97397,3.898106 -8.87254,5.993977 -17.3214,7.411032 -3.02977,0.508159 -8.03145,0.682255 -19.37565,0.674476 -8.133,-0.0056 -13.25464,0.09594 -14.2875,0.28321 -3.00574,0.545042 -5.35678,2.127488 -6.50703,4.37978 l -0.65923,1.290875 -0.1323,10.054167 c -0.0728,5.529791 -0.22862,10.202994 -0.34634,10.384895 -0.16711,0.258207 -3.51938,0.330729 -15.28799,0.330729 -11.8151,0 -15.10136,-0.07149 -15.20079,-0.330729 z m 58.88096,-51.075905 c 2.17865,-0.58838 2.75587,-0.861325 3.84648,-1.818905 1.0831,-0.950965 1.59041,-1.947439 2.13265,-4.189041 0.484,-2.000795 0.48675,-13.063064 0.004,-15.081254 -0.97705,-4.08261 -2.98434,-5.88637 -7.51535,-6.75341 -1.58716,-0.30371 -4.4018,-0.39026 -12.69249,-0.39029 -11.1507,-5e-5 -11.04961,-0.01 -12.45695,1.19058 -1.3775,1.17483 -1.36393,1.02902 -1.36393,14.651835 0,11.861371 0.0304,12.702614 0.46302,12.828952 0.25466,0.07435 6.23755,0.09456 13.29531,0.04487 10.3029,-0.07252 13.11913,-0.167799 14.2875,-0.483341 z m -404.68019,27.350057 c -2.27373,-0.567954 -4.82627,-2.805985 -6.24318,-5.473938 -0.95127,-1.791202 -1.82515,-3.332268 -4.40931,-7.775733 -1.22714,-2.110052 -2.9202,-5.027083 -3.76237,-6.482291 -0.84217,-1.455209 -2.04903,-3.538802 -2.68192,-4.630209 -2.10585,-3.631538 -2.18218,-3.862784 -2.1831,-6.614583 -7.9e-4,-2.024168 0.10959,-2.745343 0.56632,-3.704166 0.62909,-1.320636 0.63111,-1.324202 6.41043,-11.282616 2.25558,-3.886601 4.40368,-7.611191 4.77357,-8.276861 1.90998,-3.43729 2.54772,-4.40341 3.5757,-5.41684 1.11448,-1.09873 2.55448,-1.92368 4.36952,-2.50324 1.28699,-0.41095 28.62177,-0.42442 29.90579,-0.0147 2.94796,0.94059 4.83747,2.57463 6.66926,5.76753 0.6359,1.10842 2.14572,3.74171 3.35514,5.85177 2.65212,4.627097 2.41574,4.217355 6.05865,10.502114 3.34408,5.769226 3.90423,7.335401 3.61905,10.11887 -0.18458,1.801654 -0.81836,3.179974 -3.83985,8.350885 -0.76528,1.309687 -1.66212,2.8575 -1.99296,3.439583 -0.33085,0.582083 -1.04833,1.832239 -1.59442,2.778125 -0.54608,0.945885 -1.35283,2.374635 -1.79279,3.175 -0.43995,0.800364 -1.01987,1.771253 -1.2887,2.157518 -0.26884,0.386265 -0.48879,0.778933 -0.48879,0.872596 0,0.09366 -0.41672,0.821742 -0.92604,1.617953 -0.50933,0.796184 -0.92605,1.502542 -0.92605,1.569641 0,0.0671 -0.40236,0.750993 -0.89413,1.519766 -1.17478,1.836473 -2.37936,2.999264 -4.00066,3.861832 l -1.32291,0.703818 -15.08125,0.04323 c -8.29469,0.02381 -15.43844,-0.04599 -15.875,-0.155019 z"
           id="path5252"
           sodipodi:nodetypes="ssssssscssssssssssssssssssssssssssssscsssssssssssssssscsscssssssssssscssssscsscsscsssccssssscsssssssssssssssssssscsss" /><path
           style="fill:#094076;stroke-width:0.264583"
           d="m -151.78629,3.1010679 c -1.71269,-0.6584685 -2.46992,-1.5164063 -4.54939,-5.1543212 -0.90838,-1.5891668 -1.76442,-3.0679759 -1.90231,-3.2862571 -0.1379,-0.2182812 -1.67833,-2.8937742 -3.42318,-5.9455316 l -3.17246,-5.548629 v -2.048748 c 0,-1.669812 0.11726,-2.258431 0.63401,-3.182594 0.34871,-0.623623 2.55136,-4.450714 4.89479,-8.504634 2.34343,-4.053945 4.26078,-7.452836 4.26078,-7.553086 0,-0.337159 1.97512,-2.088885 2.98461,-2.64705 0.97164,-0.537237 1.3158,-0.55245 12.03854,-0.531548 l 11.03831,0.02143 1.31844,0.706093 c 1.56626,0.838809 1.93401,1.34919 5.37021,7.452969 0.36865,0.654843 1.12788,1.946936 1.68717,2.871311 0.55929,0.924374 1.01689,1.724633 1.01689,1.778317 0,0.05371 0.55109,1.023805 1.22465,2.155772 1.82458,3.066388 2.10197,3.560736 3.00868,5.361834 0.14552,0.289084 0.26085,1.211818 0.25628,2.050521 -0.01,1.754399 -0.21786,2.21017 -3.96209,8.668702 -2.47337,4.2664058 -3.01155,5.2006496 -3.9529,6.8619153 -0.28322,0.4998244 -0.79194,1.3630274 -1.13048,1.9182291 -0.33854,0.55520162 -0.76861,1.3070945 -0.95571,1.67089656 -0.7883,1.53278414 -2.15001,2.62127984 -3.91184,3.12697794 -0.75684,0.2172494 -4.18687,0.3083984 -11.24479,0.2988204 -9.49211,-0.012964 -10.24545,-0.04826 -11.52821,-0.5414697 z m 104.990946,0.1948392 c -2.769629,-0.5867135 -3.9253,-2.68983341 -3.774969,-6.8697736 0.120034,-3.3375069 0.982353,-5.0808729 2.913258,-5.8897835 1.09551,-0.4589462 5.542714,-0.5045604 6.503678,-0.066728 0.491839,0.2241021 0.673907,0.5100373 0.673907,1.0583333 v 0.7512843 l -2.711979,0.00926 c -4.13612,0.014288 -4.69701,0.5620015 -4.695364,4.5849379 0.0016,3.9831961 0.956312,4.8349956 5.171111,4.6137511 2.072098,-0.1087438 2.210671,-0.081915 2.465618,0.4776522 0.366599,0.8045979 0.02482,1.0311606 -2.103141,1.3942483 -2.037088,0.3475566 -2.536177,0.3404658 -4.442119,-0.063288 z m 12.485343,-0.00741 C -35.66752,2.922155 -36.549376,2.226539 -37.198004,1.0104082 c -0.405922,-0.7610739 -0.494369,-1.5152422 -0.496491,-4.2333331 -0.0024,-3.1349948 0.0341,-3.363833 0.701455,-4.3925594 1.031907,-1.5906749 2.549848,-2.2239815 5.308081,-2.2145624 4.267044,0.014552 5.807369,1.6279018 5.981152,6.2647245 0.103712,2.76719759 -0.333814,4.52620042 -1.416163,5.6934891 -1.236102,1.3330766 -4.561401,1.8697045 -7.190031,1.1603302 z m 4.621088,-2.1618574 c 1.053753,-0.73800228 1.380276,-1.76694036 1.380276,-4.3494852 0,-2.5539964 -0.360466,-3.7182423 -1.308262,-4.2255015 -0.671036,-0.3591189 -3.608831,-0.3499114 -4.287781,0.013494 -0.875599,0.4686035 -1.318374,1.9489472 -1.30936,4.3776368 0.0089,2.40717908 0.232598,3.09125925 1.307931,4.00026171 0.866071,0.73212849 3.283849,0.83743269 4.217196,0.18370019 z m 15.229768,1.969664 c -1.574387,-0.7640637 -2.287405,-2.45440713 -2.423102,-5.7444478 -0.156718,-3.799734 0.571804,-5.8747551 2.379133,-6.7763757 1.042102,-0.5198533 3.700791,-0.5322094 5.1121841,-0.023813 1.7691311,0.6373548 1.7197916,0.7134754 1.7197916,-2.6534262 v -3.057922 l 1.1244791,0.08136 1.1244791,0.08136 0.06962,9.0619782 c 0.03829,4.98408829 -0.021246,9.0761339 -0.1322917,9.0934377 -1.0916496,0.1701535 -1.52459,0.055139 -1.6123866,-0.428334 -0.1692646,-0.9320741 -0.5058728,-1.0113433 -1.5467197,-0.3642783 -1.087665,0.6761691 -2.9834309,1.2679097 -4.0542629,1.2654491 -0.363802,0 -1.156219,-0.2416175 -1.760924,-0.5350668 z m 4.440592,-1.9295797 c 0.4907119,-0.20505203 1.2196283,-0.63042263 1.6198106,-0.94522386 0.723937,-0.56954206 0.7276041,-0.58896248 0.7276041,-3.85696334 V -6.9200006 L -8.6294908,-7.320421 c -0.527095,-0.2202391 -1.6969662,-0.4004203 -2.5997142,-0.4004203 -2.057421,0 -2.623907,0.5141647 -3.032849,2.7527777 -0.30702,1.6806862 -0.01159,4.52299898 0.566319,5.44837914 0.649849,1.04055326 2.156621,1.32183176 3.677182,0.68640846 z M 2.0380245,3.3291388 C 0.4670319,3.0021932 -0.87830814,1.8028105 -1.308301,0.345856 -2.2804383,-2.9480476 -1.7294938,-7.1410582 -0.13232076,-8.6040981 0.81609668,-9.472831 2.1177567,-9.8375062 4.270306,-9.8375062 c 2.311392,0 4.1233088,0.6332008 4.809757,1.6808714 0.5369454,0.8194674 0.7567162,2.4821355 0.5114105,3.8690548 -0.1647058,0.931201 -0.4002564,1.3128624 -1.1022515,1.7859374 -0.8136017,0.5482695 -1.1943662,0.601636 -4.2932374,0.601636 -3.75462522,0 -3.71451439,-0.02249 -3.001076,1.68497242 C 1.809988,1.2570545 2.9290273,1.6180784 6.402112,1.4648847 9.3813784,1.3334662 9.6447552,1.4281605 9.3573252,2.5272926 9.2470098,2.9491442 8.8236156,3.0901936 6.8980391,3.3465483 4.2542299,3.69855 3.8052056,3.696936 2.0380245,3.3290858 Z m 4.6889879,-7.506414 C 7.4004537,-4.4356938 7.2929482,-6.6048801 6.5758771,-7.2267832 5.8340728,-7.870144 2.9339221,-7.9206265 1.996641,-7.3065022 c -0.6664113,0.4366419 -1.20111303,1.6243035 -1.20111303,2.6678466 0,0.6131189 0.0392827,0.6219824 2.75648463,0.6219824 1.5160677,0 2.9448176,-0.072258 3.1749998,-0.160602 z M 39.776059,3.3433204 C 38.168372,3.0495536 36.917686,1.9469026 36.353383,0.32569475 35.914254,-0.93581207 35.87282,-5.0820973 36.286364,-6.3791376 c 0.555731,-1.7430485 0.813567,-2.082112 2.126933,-2.7969103 1.201631,-0.6540235 1.503574,-0.7037652 3.738985,-0.6158971 2.778787,0.1091936 3.727,0.4756415 4.604729,1.7795081 0.475853,0.7069137 0.605181,1.2656078 0.605181,2.6145859 0,1.6244093 -0.05019,1.7629187 -0.94488,2.6067013 l -0.94488,0.8911431 h -3.420744 c -3.27197,0 -3.420745,0.023548 -3.420745,0.5423164 0,0.90826165 0.755967,2.07039097 1.646317,2.5308189 0.686778,0.3551237 1.373187,0.411136 3.692075,0.3012281 2.543333,-0.1205442 2.864088,-0.085778 2.994368,0.3246966 0.307367,0.9684279 -0.105648,1.2443354 -2.327142,1.554771 -2.449883,0.3423179 -2.935393,0.341286 -4.860502,-0.010583 z m 4.930987,-7.8717771 c 0.427328,-0.7984595 0.324458,-1.7338409 -0.274479,-2.4952324 -0.494824,-0.6290997 -0.720831,-0.6970183 -2.315104,-0.6958276 -1.433327,0 -1.906587,0.1134004 -2.507774,0.5953124 -0.703103,0.563589 -1.386654,2.3969662 -1.079182,2.8944886 0.07242,0.117184 1.430126,0.2130425 3.017149,0.2130425 2.582016,0 2.914306,-0.053816 3.15939,-0.5117835 z m 9.402021,8.0513763 C 53.963546,3.4725429 53.03388,3.3526602 52.043174,3.2565106 50.284674,3.0858279 50.243769,3.0648994 50.323382,2.3767711 L 50.404901,1.6718682 53.844484,1.532327 C 57.628898,1.3788157 58.141502,1.2435607 58.368567,0.338871 58.721733,-1.068236 58.104355,-1.5505979 55.1674,-2.1622616 52.819435,-2.651238 51.443364,-3.201439 50.766559,-3.921873 c -0.829442,-0.882888 -0.884581,-3.9510491 -0.08541,-4.7518635 1.101196,-1.1034183 1.740905,-1.2301801 5.664094,-1.1224418 3.992059,0.1096169 4.276301,0.2106348 4.042013,1.4361847 l -0.124169,0.6495256 -3.552455,-0.027279 c -3.865483,-0.02966 -4.32136,0.110781 -4.32136,1.3312245 0,0.9916318 0.633889,1.4666383 2.645834,1.9826816 4.92072,1.2620889 5.132493,1.3736636 5.65859,2.9817746 0.303636,0.92805246 0.349568,1.53535056 0.173726,2.2957101 -0.372296,1.6095926 -1.168506,2.2154091 -3.318775,2.5252626 -1.861793,0.268261 -2.948993,0.3137693 -3.439583,0.1440127 z m 49.477083,-0.04146 c -2.75492,-0.5903383 -3.733987,-1.6847872 -4.142901,-4.6311342 -0.566684,-4.0829439 0.312156,-7.0111405 2.423111,-8.0736541 1.38721,-0.6982354 4.55866,-0.8388883 6.39111,-0.2834482 2.07428,0.6287558 3.12349,2.7117939 3.12989,6.2138981 0.008,4.24640351 -1.05971,6.0822943 -3.864,6.6454863 -1.4986,0.3009635 -2.91738,0.3473979 -3.93721,0.1288521 z m 4.21449,-2.83302592 0.94488,-0.89114308 v -2.6938551 c 0,-4.05847 -0.53512,-4.7910218 -3.48834,-4.7754643 -2.69433,0.014288 -3.46213,1.0796587 -3.41286,4.7360943 0.0462,3.43058736 0.91241,4.5038431 3.64122,4.5116219 1.19502,0.00344 1.49106,-0.1100667 2.3151,-0.88725372 z m 26.25122,2.71507462 c -1.39854,-0.3286124 -2.46544,-1.1458309 -3.08732,-2.36484568 -0.43135,-0.84550246 -0.52319,-1.55924242 -0.52319,-4.06630172 0,-3.2367271 0.20111,-4.0478073 1.30668,-5.2701822 1.01486,-1.1220449 2.1849,-1.4996847 4.64645,-1.4996847 4.56113,0 5.94146,1.581441 5.94913,6.8159044 0.006,4.1267855 -0.90482,5.6743333 -3.75118,6.3730449 -1.43034,0.3511286 -3.07888,0.3554942 -4.54057,0.012171 z m 4.28334,-2.1982376 c 1.18274,-0.61161076 1.46553,-1.46827864 1.44076,-4.3645135 -0.0322,-3.7699684 -0.63341,-4.5430014 -3.5438,-4.556945 -2.55548,-0.012171 -3.40985,1.1714956 -3.40913,4.7232092 0,2.33259297 0.51186,3.69699624 1.58707,4.2342327 0.89041,0.4449233 3.03316,0.4252647 3.9251,-0.035983 z m 42.64157,2.193237 c -1.53469,-0.414311 -2.15879,-0.8384645 -2.86912,-1.9499261 -0.63394,-0.99192291 -0.67759,-1.2734131 -0.68315,-4.4057886 -0.006,-3.5579048 0.15513,-4.198805 1.40634,-5.5835282 0.36158,-0.4001823 0.86625,-0.7276042 1.12149,-0.7276042 0.25522,0 0.53763,-0.1190625 0.62756,-0.2645833 0.0899,-0.1455208 1.22936,-0.2645833 2.53204,-0.2645833 1.86066,0 2.62408,0.1201208 3.56037,0.5602287 1.94717,0.9152731 2.47298,1.9930532 2.6956,5.5251877 0.25318,4.01708913 -0.93404,6.3139899 -3.62863,7.0205067 -1.63558,0.4288366 -3.38516,0.461936 -4.7625,0.090091 z m 5.06875,-2.88247651 c 0.70581,-0.84539663 0.75208,-1.04962849 0.75208,-3.31874799 0,-4.0045479 -0.63143,-4.8998979 -3.46511,-4.9134445 -2.00105,-0.00953 -2.69971,0.4315883 -3.25242,2.0536957 -0.84646,2.4842257 -0.40066,5.4483262 0.99621,6.62371114 0.71628,0.60269436 0.97909,0.66182876 2.50865,0.56443556 1.56043,-0.099351 1.77374,-0.1868752 2.46059,-1.00964991 z m 9.26111,2.83339631 c -2.1168,-0.7984595 -2.95278,-2.72512882 -2.95278,-6.805374 0,-3.5329811 0.585,-4.89794 2.57609,-6.0108304 0.79756,-0.4457699 3.65837,-0.4120356 4.96454,0.058526 1.76913,0.6373547 1.71979,0.7134754 1.71979,-2.6534271 V -15.1596 l 1.12448,0.08136 1.12448,0.08136 0.0696,9.0619788 c 0.0459,5.9748205 -0.0217,9.0720064 -0.19844,9.0913739 -1.22229,0.1340644 -1.44648,0.054689 -1.59835,-0.5659173 -0.18616,-0.7607035 -0.62846,-0.7500672 -2.05171,0.049318 -1.59044,0.8933126 -3.48178,1.1583457 -4.77771,0.6695545 z m 4.18621,-2.31936384 c 2.1145,-0.95914099 2.12143,-0.97438099 2.12143,-4.66436576 v -3.2798013 l -0.91755,-0.3833548 c -0.50464,-0.2108729 -1.67452,-0.3833812 -2.59972,-0.3833812 -1.40321,0 -1.77442,0.098716 -2.23858,0.5953124 -1.67574,1.7928431 -1.30667,7.45413236 0.54424,8.3483975 0.88456,0.427355 1.78417,0.3595688 3.09018,-0.23280684 z M 209.6726,3.1586942 c -1.57977,-0.7175764 -1.75064,-1.4993408 -1.65512,-7.5722423 l 0.0791,-5.0270831 0.66146,-0.033787 c 0.3638,-0.018521 0.92935,0.067786 1.25677,0.1919023 0.58756,0.2227262 0.59531,0.2888985 0.59531,5.0860058 0,4.37258328 0.0486,4.90426346 0.48384,5.2982016 0.88628,0.8020578 2.41359,0.5327385 4.60939,-0.81282645 l 0.99219,-0.60801247 V -4.8087033 -9.2982589 l 0.64235,-0.1612107 c 0.3533,-0.088688 0.88908,-0.08292 1.19063,0.0127 0.53409,0.1695186 0.54827,0.3344069 0.54827,6.3738916 0,3.40992337 -0.0893,6.2134482 -0.19844,6.2300376 -1.40229,0.2132012 -1.65388,0.1760802 -1.65769,-0.2444485 -0.01,-1.0416381 -0.41879,-1.223645 -1.42145,-0.6320631 -1.11644,0.6587331 -3.41485,1.3779235 -4.37722,1.3696949 -0.37377,-0.00318 -1.16099,-0.2244725 -1.74937,-0.4917281 z m 16.87084,0.2164556 c -1.49368,-0.2943754 -2.59278,-1.1091333 -3.25977,-2.41654529 -0.48091,-0.94265746 -0.53364,-1.45367368 -0.45704,-4.43010371 0.0792,-3.0772363 0.14308,-3.4474149 0.74805,-4.3354094 1.0051,-1.4752637 2.44068,-2.0305976 5.24931,-2.0305976 2.17464,0 4.01603,0.3462073 4.00749,0.7534804 -0.003,0.094906 -0.0754,0.4404518 -0.16315,0.7678737 -0.15213,0.5676635 -0.28403,0.5953389 -2.84064,0.59563 -2.40091,0 -2.75252,0.062521 -3.36402,0.5953124 -0.90122,0.7852304 -1.30149,2.0282164 -1.30149,4.0417484 0,2.0508117 0.55333,3.42180313 1.66058,4.1145616 0.73512,0.4599252 1.21854,0.5227638 3.4988,0.4549246 l 2.64583,-0.07874 v 0.79375 c 0,0.7695406 -0.0524,0.8029574 -1.71979,1.0959305 -2.04745,0.3597275 -3.17987,0.3785394 -4.70416,0.078184 z m 43.51954,-0.095832 c -2.53463,-0.6815401 -3.62887,-2.66104672 -3.6218,-6.5519561 0.009,-4.8918281 1.61851,-6.5648678 6.31613,-6.5648678 2.0964,0 2.41919,0.070829 3.52824,0.7741443 1.83923,1.1664156 2.19017,2.1234664 2.19017,5.9727304 0,2.96330669 -0.047,3.25503626 -0.70567,4.375335 -0.77594,1.3198474 -1.3467,1.7019057 -3.13079,2.0957644 -1.57458,0.3476096 -3.0267,0.3155156 -4.57628,-0.1011502 z m 4.71506,-2.3882084 c 1.39369,-1.0630164 1.8329,-3.7826154 1.04137,-6.4480278 -0.52705,-1.7747455 -1.18509,-2.2092178 -3.3306,-2.198952 -1.48209,0.00714 -1.73077,0.089932 -2.4611,0.8198644 -0.7756,0.7752291 -0.81658,0.9263062 -0.90458,3.335496 -0.10666,2.91943886 0.18997,3.9069961 1.39401,4.6412148 1.21033,0.7380816 3.18815,0.6686285 4.2609,-0.1495954 z M -95.718408,3.1707592 c 0,-9.2440943 0.0016,-9.2417545 -0.135343,-18.1525062 -0.0029,-0.188785 2.259873,-0.09872 4.630208,-0.06906 3.782402,0.04733 4.420595,0.119062 5.216062,0.586422 1.348436,0.792242 1.829816,1.80893 1.852425,3.91242 0.02249,2.0926693 -0.418113,3.1513995 -1.614265,3.8788184 l -0.814163,0.4951148 1.089935,0.5560483 c 1.390208,0.7092155 1.886998,1.8448601 1.886998,4.3135812 0,2.11687823 -0.611267,3.5274777 -1.797841,4.1487458 -0.809556,0.423889 -9.721371,0.7093744 -10.314016,0.3304117 z m 8.909909,-2.53208884 c 0.466535,-0.42283061 0.556115,-0.80965142 0.556115,-2.40127886 0,-1.6315266 -0.08338,-1.9726803 -0.595313,-2.4358863 -0.901837,-0.815975 -2.178224,-1.141095 -4.479779,-1.141095 -2.538481,0 -2.497648,-0.065802 -2.381935,3.8378605 l 0.0836,2.8202465 3.1306,-0.087921 c 2.628911,-0.073819 3.21972,-0.1686719 3.686712,-0.59192584 z m -0.878189,-8.21658206 c 0.899054,-0.5890948 1.236789,-1.6038248 1.031235,-3.0983763 -0.238173,-1.731725 -0.763032,-2.010595 -4.202673,-2.232951 l -2.802591,-0.181134 -0.01074,0.766577 c -0.02466,1.760061 -0.03108,4.7615476 -0.01095,5.104527 0.03201,0.5451739 5.07688,0.2434695 5.995709,-0.3585634 z m 8.974928,10.7172384 c -0.291041,-0.1203854 -0.81634,-0.5280025 -1.167331,-0.905801 -0.556535,-0.5990431 -0.641141,-0.9528175 -0.661458,-2.76576883 -0.03966,-3.53896067 0.608301,-4.01894127 5.532956,-4.09868667 l 2.910416,-0.047122 0.08366,-1.0181431 c 0.05697,-0.6932876 -0.06521,-1.1826609 -0.382945,-1.5337366 -0.421121,-0.4653491 -0.802401,-0.5115453 -3.910967,-0.4740274 l -3.444359,0.041593 -0.188854,-0.7061465 c -0.122029,-0.4563004 -0.07846,-0.7449872 0.123137,-0.8158955 2.233652,-0.7856802 7.533431,-0.8773841 8.778658,-0.1518973 1.420714,0.8277224 1.578869,1.5024628 1.674352,7.1433792 0.0927,5.4766366 0.08126,5.5276483 -1.228876,5.4788327 -0.601028,-0.02249 -0.722792,-0.1585119 -0.79297,-0.8863542 -0.09407,-0.9756774 -0.432638,-1.0783887 -1.222954,-0.3709987 -1.273315,1.1397191 -4.578154,1.7412757 -6.102469,1.1107737 z m 3.757864,-1.8971947 c 2.789219,-1.12135703 2.989011,-1.31810119 2.989011,-2.9432778 v -1.3066976 l -2.669601,0.090937 c -2.429661,0.082762 -2.715022,0.1470818 -3.175,0.7155656 -0.60665,0.7497497 -0.644236,1.64671362 -0.11212,2.67570461 0.532099,1.02896449 1.618756,1.31008429 2.96771,0.76776819 z m 10.728073,1.9359561 -1.124479,-0.081359 v -6.1738137 -6.1738136 l 0.717232,-0.1800225 c 0.737526,-0.1851025 1.399434,0.3348302 1.399434,1.0992643 0,0.5022056 0.468982,0.4271698 1.556272,-0.2489994 1.446707,-0.8996891 2.650958,-1.2483834 4.326532,-1.2527755 1.305486,-0.00344 1.637747,0.1037166 2.38125,0.7680324 l 0.864071,0.7720277 0.05662,5.7102637 c 0.04282,4.318185 -0.0217,5.7181218 -0.264583,5.7424634 -0.17666,0.017727 -0.678389,0.043048 -1.114952,0.05633 l -0.79375,0.024077 -0.07219,-4.8373504 c -0.08634,-5.7861726 -0.205848,-6.127538 -2.141056,-6.1157905 -0.866272,0.00529 -1.692449,0.2577306 -2.813841,0.8598958 l -1.5875,0.852461 -0.132291,4.6302081 -0.132292,4.6302081 -1.124479,-0.081359 z M 19.433296,3.0502679 c -0.06833,-0.1780645 -0.09282,-4.311491 -0.05444,-9.1854068 l 0.06979,-8.8616631 4.062042,-0.08295 c 3.386905,-0.06919 4.281593,-0.004 5.38308,0.392086 2.956851,1.063254 3.918267,3.269853 3.913478,8.9819683 -0.0032,3.7046692 -0.342,5.35035098 -1.444916,7.0170142 -1.155382,1.7458531 -1.789139,1.9242616 -7.096759,1.9976041 -3.518207,0.04863 -4.739447,-0.016669 -4.832281,-0.2586567 z m 7.634218,-1.9469892 c 1.299818,-0.21478877 2.307749,-1.28994955 2.737591,-2.9202061 0.40251,-1.5265135 0.475218,-7.3883834 0.09459,-7.6236245 -0.145521,-0.089932 -0.264583,-0.4501885 -0.264583,-0.8005501 0,-0.376396 -0.382482,-1.019492 -0.934852,-1.571889 l -0.934879,-0.934852 H 24.731508 21.69761 v 6.8350599 c 0,3.7593057 0.07937,6.9144618 0.176398,7.011458 0.222329,0.2223558 3.856381,0.2255838 5.193506,0.0045 z m 38.100739,1.7700095 c -1.200256,-0.731864 -1.666478,-1.7991931 -1.666478,-3.81518568 0,-1.58276392 0.06829,-1.78649302 0.891143,-2.65898302 l 0.891143,-0.9448799 3.276044,-0.00397 c 1.801813,-0.00265 3.433524,-0.1039018 3.626009,-0.2259541 0.472943,-0.2998523 0.151474,-1.9745854 -0.490538,-2.5556368 -0.395181,-0.3576108 -1.137999,-0.4466166 -4.008702,-0.4802981 l -3.523641,-0.041434 -0.07908,-0.6794765 c -0.07451,-0.6403974 0.01852,-0.6974945 1.618007,-0.9921874 0.933397,-0.1720056 2.79609,-0.312711 4.1393,-0.312711 2.826543,0 3.621246,0.3304381 4.483285,1.8642805 0.508555,0.904822 0.554117,1.4004924 0.554117,6.0274726 0,3.1557117 -0.101389,5.1042621 -0.271039,5.2091164 -0.149067,0.092128 -0.625317,0.089694 -1.058334,-0.00556 -0.602271,-0.1322652 -0.787294,-0.319749 -0.787294,-0.7977187 0,-0.8826764 -0.470614,-1.0660856 -1.144058,-0.4458494 -1.425681,1.3130477 -4.937945,1.7806987 -6.44988,0.8588375 z m 4.717679,-1.8514483 c 1.809406,-0.68751974 2.611676,-1.46732616 2.611676,-2.538624 0,-1.3032052 -0.459502,-1.507146 -3.158834,-1.4019212 -2.864511,0.1116542 -3.235272,0.3664214 -3.235272,2.22313489 0,1.02221766 0.121867,1.36739306 0.617379,1.74855181 0.796607,0.6128014 1.488254,0.6060016 3.165051,-0.031141 z m 9.072033,2.1273557 c -0.261435,-0.2611437 -0.0979,-12.4339343 0.169254,-12.5990343 0.529299,-0.3271308 1.572472,0.1267089 1.572472,0.6840801 0,0.8131704 0.637725,0.883629 1.761331,0.1946011 1.541806,-0.945515 2.405724,-1.2662693 3.410505,-1.2662693 0.88945,0 0.91358,0.02794 0.91358,1.0583332 0,0.9785615 -0.05493,1.0583333 -0.728742,1.0583333 -0.734483,0 -4.251192,1.1699346 -4.617349,1.5360914 -0.108426,0.1084263 -0.229844,2.2765014 -0.269796,4.8179035 l -0.07265,4.620736 -1.014122,0.00265 c -0.557768,0.00265 -1.063783,-0.046884 -1.124479,-0.1075267 z m 10.803704,0.046567 C 89.50976,3.1099315 89.43094,1.6131043 89.43094,-3.0842815 c 0,-6.6059312 -0.02408,-6.488562 1.332574,-6.488562 0.356844,0 0.544142,0.2591858 0.669264,0.9260416 0.09554,0.5093229 0.214021,0.9260416 0.263313,0.9260416 0.04927,0 0.601557,-0.3325812 1.227323,-0.7390606 1.386205,-0.9004299 2.73759,-1.3776059 3.901572,-1.3776059 0.837962,0 0.86733,0.034237 0.708818,0.8268228 -0.09094,0.4547659 -0.165364,0.915326 -0.165364,1.0234877 0,0.1081881 -0.446484,0.2567517 -0.992188,0.3302 -0.545703,0.073422 -1.706562,0.4169833 -2.579687,0.7634552 l -1.5875,0.6299464 -0.132292,4.7614943 -0.132291,4.7614679 -0.926042,0.024606 C 90.509117,3.2975475 89.94357,3.25786 89.761669,3.1958681 Z M 116.5129,3.1293784 c -1.38354,-0.5583238 -1.41738,-0.7939352 -1.41738,-9.8658887 V -15.15952 l 1.12448,0.08136 1.12448,0.08136 -0.0957,7.4083334 -0.0957,7.40833296 0.67837,0.72760413 c 0.44143,0.47344541 0.94884,0.72760411 1.45266,0.72760411 0.61601,0 0.84358,0.1672431 1.11321,0.8181975 0.28295,0.6831012 0.27734,0.8571441 -0.034,1.0542587 -0.47075,0.2980266 -3.09761,0.2856441 -3.85037,-0.018256 z m 7.95673,0.021167 c -0.30128,-0.1296987 -0.74777,-0.5410199 -0.99219,-0.914056 -0.39248,-0.5989902 -0.44442,-1.65523322 -0.44442,-9.0371608 v -8.3589016 l 1.08368,0.08136 1.08371,0.08136 -0.023,7.4480468 c -0.0259,8.41544295 -0.0132,8.47285753 1.95445,8.7927123 0.84905,0.1380067 1.05876,0.2989527 1.23164,0.9453033 0.11456,0.4284662 0.14816,0.8391789 0.0746,0.9127066 -0.24776,0.2477558 -3.41564,0.2865702 -3.96843,0.04863 z m 28.39516,0.046064 -0.99219,-0.1014413 v -8.9490016 -8.9490025 l 0.59532,-0.156633 c 0.32742,-0.08615 2.44078,-0.129804 4.69635,-0.097 4.81126,0.06993 5.56067,0.335306 6.53754,2.314892 1.02505,2.07727 0.72199,6.1794235 -0.56322,7.6235457 -0.96549,1.0848975 -2.091,1.3659643 -5.46979,1.3659643 h -3.13499 l -0.0738,3.48405963 c -0.0437,2.06128927 -0.18187,3.50080777 -0.3384,3.52504357 -0.14552,0.02249 -0.71107,-0.00476 -1.25677,-0.060431 z m 7.79801,-9.6855752 c 0.55759,-0.4795572 0.75835,-0.942922 0.88824,-2.0502032 0.17748,-1.512835 -0.21162,-3.520758 -0.74626,-3.851196 -0.61307,-0.378883 -2.74003,-0.583935 -4.50041,-0.433811 l -1.78593,0.152268 v 3.2251918 c 0,1.7738724 0.0794,3.3045927 0.17639,3.401589 0.097,0.097023 1.31739,0.1762654 2.71198,0.1760802 2.27719,0 2.60901,-0.063474 3.25599,-0.6199188 z m 7.80764,9.6876389 -0.99692,-0.104087 0.0709,-6.267582 0.0709,-6.2676085 0.8599,-0.08292 c 0.7453,-0.071861 0.86042,-0.00265 0.86394,0.5291667 0.007,1.0916178 0.35407,1.3500099 1.07477,0.800682 1.14363,-0.8717227 3.1234,-1.6438033 4.21502,-1.6438033 1.12181,0 1.15504,0.087948 0.66021,1.7475729 -0.0479,0.1608137 -0.54401,0.3649133 -1.10238,0.4535487 -1.76313,0.2798762 -4.01146,1.298231 -4.17013,1.8888074 -0.0798,0.2971535 -0.14676,2.4750447 -0.14875,4.83975811 -0.003,2.36471339 -0.0929,4.27947649 -0.20206,4.25500249 -0.10914,-0.024342 -0.64706,-0.091308 -1.19539,-0.1485371 z m 70.26706,-0.07411 c -1.31923,-0.5313891 -1.53167,-1.3526822 -1.60451,-6.2032088 l -0.0677,-4.5098756 -1.07233,-0.082127 c -1.03211,-0.079031 -1.06926,-0.1137708 -0.99062,-0.9260416 0.075,-0.7740121 0.15078,-0.8370093 0.91538,-0.7605712 1.06129,0.1060714 1.24481,-0.2110846 1.26592,-2.1879719 l 0.0172,-1.599538 1.12448,-0.08136 1.12448,-0.08136 v 1.725692 c 0,2.0172888 0.15647,2.165085 2.38125,2.2489315 1.59978,0.060272 1.9486,0.2510102 1.80827,0.988642 -0.0783,0.4115593 -0.41458,0.5125508 -2.07534,0.6234112 l -1.98189,0.1322917 -0.0742,3.5636992 c -0.10292,4.94183431 -0.0159,5.0981501 2.98466,5.3622572 0.67693,0.059584 0.80557,0.1913467 0.87407,0.8951912 0.0655,0.6723856 -0.0326,0.8556096 -0.52916,0.9885891 -0.88165,0.2361406 -3.42231,0.176239 -4.0998,-0.096652 z m 8.11028,-0.0037 c -0.16722,-0.1033463 -0.23821,-2.44091345 -0.1932,-6.3623822 l 0.0711,-6.199002 0.72761,0.026458 c 0.40018,0.014552 0.9062,0.044318 1.12448,0.066146 0.34038,0.034052 0.39687,0.9245599 0.39687,6.2573955 0,3.41973941 -0.0893,6.2330539 -0.19844,6.2518128 -0.69458,0.1194329 -1.70407,0.098266 -1.92846,-0.040428 z m 9.79868,-0.1830123 c -0.25254,-0.176874 -0.72633,-1.0103114 -1.05288,-1.8520832 -0.32655,-0.84174542 -0.74692,-1.88764329 -0.93419,-2.3242058 -0.18725,-0.4365624 -0.51964,-1.3295312 -0.73867,-1.9843749 -0.49916,-1.4925939 -1.1894,-3.344439 -1.99699,-5.3578122 -0.16052,-0.4001823 -0.20513,-0.7362296 -0.0991,-0.7467335 1.92717,-0.1913467 2.25218,-0.1063625 2.60305,0.6805877 0.58737,1.3174397 2.6295,7.65711217 2.7491,8.16877185 0.24059,0.7230292 0.40791,1.34260869 0.77843,1.87592225 0.26958,0.1666345 0.83989,-0.94810792 1.34876,-2.6363612 0.18616,-0.7834219 0.513,-1.5155602 0.78322,-2.2808405 0.13156,-0.4598326 1.84169,-5.577628 2.02735,-5.7785526 0.13245,-0.1433513 2.22075,-0.08382 2.3722,0.067628 0.0569,0.056938 -0.12658,0.6877579 -0.40786,1.4018153 -0.28128,0.7140575 -1.06577,2.7865651 -1.74331,4.6055754 -2.52336,6.7745766 -2.2247,6.2794883 -3.85445,6.3894755 -0.80177,0.054107 -1.56702,-0.041328 -1.83465,-0.2288116 z m -9.90184,-15.5722628 c -0.55756,-0.557583 -0.52573,-1.51937 0.0681,-2.056765 1.41362,-1.279287 3.02517,0.610155 1.82679,2.141802 -0.35981,0.459898 -1.39644,0.413358 -1.89486,-0.08504 z M 234.8702,-29.07274 c -0.34018,-0.08816 -0.45485,-0.327766 -0.39688,-0.829204 l 0.0816,-0.705247 3.46594,-0.132292 c 4.13382,-0.157797 4.33927,-0.264901 4.33927,-2.262161 0,-1.204886 -0.0998,-1.482037 -0.70445,-1.957705 -0.38743,-0.304773 -1.01251,-0.616532 -1.38907,-0.692784 -0.37652,-0.07625 -1.49635,-0.394124 -2.48848,-0.706385 -2.84176,-0.894371 -3.3555,-1.610254 -3.3555,-4.675769 0,-1.968289 0.0485,-2.14839 0.77356,-2.873481 0.67773,-0.677704 1.01381,-0.790125 2.71198,-0.907203 1.06614,-0.0735 2.83139,-0.06199 3.92279,0.02566 1.97234,0.158274 1.98438,0.163857 1.98438,0.919877 v 0.760651 l -2.9237,-0.04654 c -2.6203,-0.0417 -2.99786,0.01191 -3.63802,0.515329 -0.59703,0.469636 -0.71432,0.768377 -0.71432,1.819487 0,1.545669 0.60232,2.182759 2.51354,2.65856 2.94275,0.732631 4.44288,1.408668 4.99472,2.250889 0.31253,0.476965 0.42924,1.278652 0.42924,2.948252 0,2.286741 -0.003,2.295684 -0.94488,3.184313 l -0.94488,0.891143 -3.61919,-0.03069 c -1.99054,-0.01693 -3.83447,-0.08647 -4.09762,-0.154649 z m 11.45865,-0.311229 c 0,-0.273103 0.51528,-2.029275 1.14506,-3.902604 0.62979,-1.87333 1.66378,-5.013405 2.29772,-6.977936 0.63397,-1.964531 1.32776,-3.780234 1.54178,-4.034895 0.54161,-0.644446 2.71249,-0.638096 3.2987,0.0095 0.23526,0.259953 1.14474,2.670968 2.02107,5.357812 0.87633,2.686817 1.95286,5.956697 2.39228,7.266384 0.43942,1.309687 0.79854,2.470547 0.79804,2.579687 0,0.254979 -1.62915,0.251698 -2.01068,-0.004 -0.15951,-0.106919 -0.49469,-0.908765 -0.74485,-1.78189 -0.8768,-3.060303 -0.66387,-2.910416 -4.13467,-2.910416 h -3.03258 l -0.79375,2.440913 -0.79375,2.440887 -0.99218,0.0066 c -0.79637,0.0053 -0.99219,-0.09152 -0.99219,-0.490061 z m 8.8751,-7.374811 c -0.19153,-1.057963 -1.38573,-4.960223 -1.72061,-5.622395 -0.42077,-0.832009 -0.90868,-0.349383 -1.47114,1.455208 -1.20771,3.874955 -1.45002,4.697941 -1.45002,4.925166 0,0.128825 1.08482,0.234209 2.4107,0.234209 h 2.4107 z m 6.81355,3.704167 c 0.16529,-5.522674 0.44567,-10.966423 0.58592,-11.377083 0.15214,-0.44532 3.02908,-0.422725 3.62281,0.02842 0.42968,0.326523 0.78666,1.232535 1.52641,3.874188 0.18338,0.654844 0.43521,1.488281 0.55962,1.852083 0.21362,0.624681 1.03891,3.768778 1.40634,5.357812 0.0926,0.400183 0.26757,0.727605 0.38893,0.727605 0.19511,0 1.08191,-2.61366 1.93009,-5.688542 0.60446,-2.191385 0.8238,-2.927694 1.04798,-3.518191 0.21067,-0.798991 0.30473,-1.651125 0.77912,-2.26695 0.48157,-0.612219 0.7383,-0.69715 2.10736,-0.69715 1.27746,0 1.60909,0.09364 1.83644,0.518451 0.15261,0.285141 0.25506,0.612563 0.22765,0.727604 -0.0274,0.115041 0.0259,0.983059 0.11861,1.928945 0.0926,0.945885 0.22702,4.190338 0.29861,7.209895 l 0.13015,5.490104 h -1.04608 c -0.64971,0 -1.05379,-0.125333 -1.06635,-0.330729 -0.0111,-0.181901 -0.0655,-0.568854 -0.12092,-0.859896 -0.0553,-0.291041 -0.11951,-3.179762 -0.14255,-6.4194 -0.0236,-3.288453 -0.15045,-5.957278 -0.28758,-6.042051 -0.39378,-0.243364 -1.01621,0.433017 -1.01621,1.104318 -0.0817,1.057042 -0.53887,2.078928 -0.79513,3.022759 -0.17655,0.654843 -0.59314,2.083593 -0.92572,3.174999 -0.33261,1.091407 -0.67694,2.303463 -0.76526,2.693485 -0.24712,1.091565 -0.86209,1.539849 -2.11243,1.539849 -1.83216,0 -1.87833,-0.07218 -3.3854,-5.291667 -0.66749,-1.914767 -1.01833,-4.887289 -1.80615,-6.218025 -0.41166,-0.254424 -0.81473,1.125987 -0.80491,2.756561 0.005,0.812403 -0.0318,2.072402 -0.0816,2.800006 -0.0498,0.727604 -0.10869,2.840963 -0.13091,4.696354 l -0.0404,3.373437 h -1.08159 -1.08156 z m -293.881216,3.71639 c -0.980406,-0.260562 -2.492759,-1.450578 -3.236783,-2.546932 l -0.748763,-1.103312 v -47.095831 c 0,-44.915442 0.02212,-47.136372 0.477988,-47.971532 0.670526,-1.22844 2.249046,-2.92075 3.167261,-3.39558 2.256893,-1.16708 1.682054,-1.1468 32.58893411,-1.14981 19.77095389,-0.002 30.09375989,0.0919 31.61770689,0.28746 2.205566,0.283 7.023285,1.355 8.083523,1.79868 3.165396,1.32462 3.325521,1.40461 5.291666,2.64342 2.177177,1.37177 4.693761,3.72829 6.220566,5.82494 1.102016,1.51329 2.945209,5.31652 3.282394,6.77284 0.663311,2.86483 0.806371,4.45853 0.783802,8.73125 -0.02381,4.48412 -0.127953,5.58474 -0.862277,9.103997 -0.406347,1.947415 -2.059728,5.617085 -3.46919,7.699734 -1.110986,1.64165 -3.810238,4.495226 -4.252119,4.495226 -0.115596,0 -0.372533,0.148828 -0.570971,0.330729 -0.198437,0.181901 -0.586819,0.458285 -0.863044,0.614204 -0.868495,0.49022 -0.738082,0.867357 0.406426,1.175543 1.466321,0.394838 4.583404,1.924262 5.777204,2.83464 1.473941,1.123977 3.998251,3.606403 3.998251,3.931867 0,0.160285 0.223123,0.493342 0.495855,0.740146 0.625846,0.566393 2.943728,5.207026 2.943728,5.893646 0,0.282125 0.09734,0.626083 0.216297,0.764328 0.535993,0.622856 1.635786,7.547504 1.635786,10.299329 0,3.157855 -1.106699,9.494837 -2.126615,12.177024 -0.110675,0.291042 -0.357452,0.945886 -0.548375,1.455209 -1.486668,3.965839 -5.274866,8.469153 -9.231259,10.973857 -3.311737,2.096612 -5.476743,2.94267 -11.244792,4.394438 -1.022297,0.257308 -9.04867,0.347001 -35.3218728,0.394811 -18.6994262,0.034 -34.2295222,0 -34.5113272,-0.07432 z M 18.68257,-52.054474 c 3.086637,-0.71583 4.715067,-1.821233 5.721675,-3.884003 0.962289,-1.971887 1.262115,-3.501576 1.262115,-6.439059 0,-5.110585 -1.406895,-7.694242 -4.894791,-8.988927 -1.200677,-0.445664 -2.42738,-0.499851 -13.275778,-0.586449 -13.1345907,-0.104828 -12.9321025,-0.126339 -14.0877363,1.496615 -0.5311219,0.745887 -0.5500263,1.08249 -0.5500263,9.793578 v 9.021128 H 4.880152 c 9.956469,0 12.328014,-0.07093 13.802418,-0.412883 z m 0.419642,-39.735194 c 1.98392,-0.680313 2.73703,-1.200232 3.462544,-2.390386 1.11625,-1.831128 1.29622,-2.808713 1.29622,-7.041326 0,-3.62021 -0.06072,-4.16624 -0.58809,-5.28812 -0.682545,-1.45206 -1.704101,-2.30254 -3.559651,-2.96351 -1.163171,-0.41434 -2.617589,-0.48471 -12.0447346,-0.58271 -11.8920492,-0.12363 -12.3983612,-0.072 -13.8863169,1.41595 l -0.9241551,0.92415 v 8.361401 8.361396 l 12.3692702,-0.140271 c 11.3580804,-0.128802 12.4923574,-0.182478 13.8749134,-0.656574 z m 53.661461,14.565224 c 0,-32.990646 0.08946,-48.436106 0.28149,-49.161936 0.699056,-2.64195 2.032661,-4.25551 4.456641,-5.39226 l 1.478095,-0.69316 h 27.252081 c 27.80374,0 30.22256,0.0717 35.45417,1.05051 2.32886,0.43573 3.68718,0.74357 5.29166,1.19927 0.58209,0.16532 1.32797,0.36605 1.65756,0.44606 0.32957,0.08 0.66403,0.25032 0.74322,0.37846 0.0792,0.12815 0.34533,0.23311 0.5914,0.23324 0.88497,5.3e-4 6.26469,2.95547 8.07095,4.43322 2.58059,2.11127 6.26708,6.34529 6.26708,7.1979 0,0.12694 0.093,0.27047 0.20667,0.31898 0.6509,0.27775 3.40807,7.5779 3.98055,10.53924 1.13456,5.86897 1.36887,10.170028 1.37093,25.164941 0.003,14.880219 -0.34935,21.821562 -1.3313,26.296513 -0.12771,0.582083 -0.37169,1.713177 -0.54216,2.513541 -0.17047,0.800365 -0.40182,1.693334 -0.51411,1.984375 -0.11231,0.291042 -0.40595,1.124479 -0.65257,1.852083 -0.24659,0.727605 -0.79496,2.072402 -1.21861,2.988443 -0.42363,0.91604 -0.77023,1.731353 -0.77023,1.811787 0,0.08046 -0.65757,1.079367 -1.46124,2.219801 -3.06309,4.346522 -6.70579,7.311786 -11.37105,9.256368 -1.46164,0.609256 -1.84695,0.752687 -2.77813,1.034256 -0.50932,0.153988 -1.46182,0.444209 -2.11667,0.644922 -0.65484,0.200713 -2.02406,0.511572 -3.0427,0.690827 -1.01865,0.179229 -2.38787,0.451564 -3.04271,0.605182 -0.78955,0.185234 -12.48744,0.314986 -34.72656,0.38518 l -33.535939,0.105886 0.0026,-48.103629 z m 58.738027,22.557157 c 4.5929,-1.553871 7.07543,-4.559802 8.4269,-10.20347 0.61711,-2.577016 0.83164,-7.085568 0.83452,-17.539017 0.003,-10.456396 -0.29416,-16.998526 -0.81634,-17.977706 -0.13476,-0.25269 -0.24501,-0.64151 -0.24501,-0.86406 0,-0.86257 -0.69916,-2.57518 -1.5862,-3.88546 -1.426,-2.10641 -3.44215,-3.28432 -7.01276,-4.09709 -0.9989,-0.22737 -25.90106,-0.4396 -27.01885,-0.23027 -1.08945,0.20403 -2.09582,1.10268 -2.60538,2.32651 -0.36517,0.87704 -0.41187,3.99908 -0.40211,26.884695 0.006,14.240853 0.0871,25.968456 0.17997,26.061377 0.0929,0.09292 6.50753,0.168937 14.25472,0.168937 h 14.08575 z m -234.55901,-42.844932 c -0.94406,-0.354076 -2.95073,-1.552112 -3.70607,-2.21262 -0.89396,-0.781711 -1.76703,-2.141291 -4.29322,-6.685501 -0.71257,-1.2818 -2.59536,-4.48249 -4.51357,-7.67292 -0.65619,-1.0914 -1.66723,-2.87734 -2.24675,-3.96874 -0.57951,-1.09141 -1.45363,-2.61177 -1.94248,-3.37858 -0.48885,-0.76681 -0.88882,-1.4628 -0.88882,-1.54666 0,-0.0838 -0.22394,-0.46849 -0.49765,-0.85475 -0.27371,-0.38627 -0.95832,-1.59527 -1.52135,-2.68668 -0.99923,-1.93693 -1.02358,-2.0508 -1.01847,-4.7625 0.006,-3.25579 -0.37149,-2.36152 4.74844,-11.24479 2.01293,-3.4925 3.86355,-6.70719 4.11249,-7.14375 0.24894,-0.43656 0.80949,-1.39532 1.24566,-2.13057 0.43617,-0.73524 1.09135,-1.86634 1.45595,-2.51354 3.97939,-7.06374 5.46397,-9.06657 7.36699,-9.93872 0.35442,-0.16243 0.98985,-0.46009 1.41206,-0.66146 0.6286,-0.2998 3.791951,-0.36613 17.4625,-0.36613 h 16.69484 l 1.455208,0.69349 c 0.800365,0.38142 1.899295,1.07913 2.442067,1.55047 0.955783,0.83 3.114183,3.94642 3.114183,4.49643 0,0.14909 0.105177,0.27107 0.233725,0.27107 0.128548,0 0.300114,0.20836 0.381256,0.46302 0.151268,0.47474 1.914274,3.69194 2.283595,4.16719 0.113086,0.14552 0.502367,0.80036 0.865069,1.45521 1.105513,1.99596 1.784675,3.18073 2.170982,3.78719 0.823392,1.29262 1.770531,2.98717 1.913062,3.4227 0.08334,0.25466 0.256704,0.46302 0.385252,0.46302 0.128548,0 0.233725,0.1038 0.233725,0.23067 0,0.23326 2.417723,4.56451 4.460578,7.99093 1.33654,2.24174 1.737204,5.62252 0.938292,7.91726 -0.34213,0.98271 -2.578266,5.06541 -4.974288,9.08198 -0.275804,0.46234 -0.861372,1.49546 -1.301263,2.29583 -0.439891,0.80036 -1.083831,1.90946 -1.43098,2.46465 -0.596183,0.95347 -0.898229,1.4737 -2.332657,4.01764 -0.328215,0.58208 -1.204349,2.10952 -1.946968,3.3943 -0.742617,1.28479 -1.350214,2.44565 -1.350214,2.57969 0,0.13405 -0.119062,0.24372 -0.264583,0.24372 -0.145521,0 -0.264583,0.12798 -0.264583,0.2844 0,0.46758 -2.251067,3.76398 -3.073162,4.500254 -1.020035,0.91355 -2.660737,1.829927 -3.276346,1.829927 -0.274137,0 -0.572013,0.119062 -0.66195,0.264583 -0.241565,0.390858 -32.81848,0.296879 -33.87055,-0.09771 z"
           id="path5250"
           sodipodi:nodetypes="cssscsssssccsssssscsssssccccssssccssssccsssssssscssssscccsscscccsssscccssscssssssssssssssssssssssssscssssssscssssssccsscssssssscssssssscsssssssssssscssscscssscssssssccssscsssscsssssssssssssssssssscccscsssssscsssssssccsssscccscsscssssssssscscsssscsssssssssssssssssssssssscsssssssssscssssscsssssssscssscsssscsssssscssssccccssssscssscssscccccsscsscsssscsssscccsscccssccssccsssssscssccsssssscsssssssscccccsssssssssscccscccscccccssssccssscccssssssccccssssscssscsssscsscsccccscsssssccscsscsssccccsssscsssssssscssssssssssscsccccsssssssssssssscsssssssscscssssssccsssssssssscssscccsssssssscsssssssssccssssscssscsccsssccssscccssscssscssssscsssssssssssssssssssssssssscssssssssscccssccscsssssssssscssssssssssssscccsscssssssssscsssssssssscssssssscssssssssssssssssssssssssss" /></g></g></g></svg>
