<svg width="651" height="545" viewBox="0 0 651 545" fill="none" xmlns="http://www.w3.org/2000/svg">
<path d="M650.591 488.378C650.591 519.519 625.119 544.99 593.957 544.99H56.6123C25.4712 544.99 0 519.519 0 488.378V56.6123C0 25.4712 25.4712 0 56.6123 0H593.957C625.098 0 650.591 25.4927 650.591 56.6123V488.378Z" fill="#0A1F8F"/>
<path d="M114.857 173.596C119.303 168.484 125.102 164.404 130.406 164.404H138.116V194.535H184.313V208.173C184.313 215.11 178.192 223.958 164.404 223.958H138.138V276.103C138.138 293.371 145.762 300.2 158.949 300.2C169.666 300.2 177.977 298.675 183.131 295.411H184.313V307.373C184.313 320.839 174.39 329.559 155.062 329.559C121.515 329.559 105.171 311.282 105.171 280.077V199.99C105.171 186.954 107.62 181.993 114.879 173.66" fill="white"/>
<path d="M248.248 329.279C222.347 329.279 208.237 314.675 208.237 287.722V197.521H217.794C232.441 197.521 241.419 205.488 241.419 222.24V284.501C241.419 297.902 247.131 302.069 261.692 302.069H267.835V309.263C267.835 323.567 262.208 329.279 248.248 329.279ZM224.559 185.172C213.95 185.172 205.316 176.366 205.316 165.649C205.316 154.932 213.95 146.385 224.559 146.385C235.169 146.385 244.125 154.954 244.125 165.649C244.125 176.345 235.104 185.172 224.559 185.172Z" fill="white"/>
<path d="M416.947 263.754C416.947 299.04 439.948 330.997 480.024 330.997C522.934 330.997 546.021 299.04 546.021 259.18C546.021 223.7 522.934 191.679 482.88 191.679C439.97 191.679 416.947 223.7 416.947 263.754ZM511.616 263.754C511.616 285.617 502.252 301.36 482.858 301.36C461.038 301.36 451.309 285.617 451.309 259.18C451.309 237.016 461.038 221.188 480.024 221.188C501.758 221.188 511.616 237.016 511.616 263.754Z" fill="white"/>
<path d="M423.369 177.461H424.078C434.859 162.213 455.992 149.391 484.814 149.391C511.38 149.391 529.507 162.063 542.371 177.569H542.929V163.523C542.929 159.12 540.825 152.076 537.839 148.103C527.509 134.594 506.655 123.168 482.129 123.168C457.603 123.168 434.859 137.708 427.858 148.983C425.259 153.15 423.369 159.12 423.369 162.943V177.461Z" fill="white"/>
<path d="M494.907 372.168C494.907 378.568 491.965 388.469 488.292 395.406C477.726 414.327 443.9 438.466 406.402 438.466C368.904 438.466 337.827 419.503 322.45 396.866C317.897 390.252 314.632 378.568 314.632 371.352V354.665H315.663C335.014 380.372 362.353 401.656 402.407 401.656C446.091 401.656 477.726 380.115 493.983 354.794H494.907" fill="white"/>
<path d="M383.38 263.475H365.769L366.392 266.546C366.542 266.589 368.518 275.309 368.518 285.36V296.077C368.518 301.36 367.358 306.192 354 306.192C334.714 306.192 311.54 298.375 311.54 261.779C311.54 238.584 329.667 221.574 354.279 221.574C370 221.574 384.754 225.805 393.194 232.334L393.817 232.828H398.155V221.338C398.155 207.378 385.506 192.56 357.694 192.56C310.381 192.56 277.328 222.562 277.328 265.494C277.328 311.282 314.289 335.186 350.778 335.186C384.196 335.186 400.41 323.438 400.41 299.427V278.187C400.41 270.606 392.292 263.454 383.38 263.454" fill="white"/>
</svg>
