<svg width="2500" height="536" viewBox="0 0 2500 536" fill="none" xmlns="http://www.w3.org/2000/svg">
<g clip-path="url(#clip0_1_2)">
<path d="M681.932 297.866C657.729 287.109 643.328 282.959 629.152 282.959C614.246 282.959 604.706 288.344 604.706 296.649C604.706 321.819 689.507 314.731 689.507 372.895C689.507 404.916 662.627 423.485 625.483 423.485C596.401 423.485 581.982 415.91 565.36 407.35V371.423C589.313 387.315 603.976 392.93 622.307 392.93C638.187 392.93 646.747 387.315 646.747 377.538C646.747 350.159 561.934 360.179 561.934 300.311C561.934 271.472 586.867 252.417 625.483 252.417C644.058 252.417 660.911 256.323 681.932 265.376V297.866ZM810.429 399.775C806.761 399.775 804.558 397.567 804.558 391.957V340.637C804.558 315.948 785.253 306.426 756.901 306.426C739.062 306.426 722.696 311.068 708.033 320.103V348.942C719.271 337.455 735.394 330.124 749.57 330.124C764.963 330.124 769.86 338.429 769.118 348.942C721.966 363.605 702.162 368.989 702.162 395.863C702.162 410.039 715.608 423.485 733.69 423.485C745.907 423.485 757.144 420.066 770.834 410.769C773.286 419.823 778.895 423.485 790.625 423.485C800.159 423.485 814.092 419.074 823.857 413.221V393.417C815.552 399.288 812.863 399.775 810.429 399.775ZM769.118 393.916C763.259 399.288 756.171 402.464 749.57 402.464C743.212 402.464 738.089 397.08 738.089 390.497C738.089 379.253 748.109 374.356 769.118 366.781V393.916ZM819.416 308.616H857.29L881.231 370.693L905.434 308.616H943.064L891.258 423.485H871.466L819.416 308.616ZM984.315 370.693H1065.2C1066.92 329.637 1039.78 306.426 1007.04 306.426C972.341 306.426 947.658 330.854 947.658 365.321C947.658 400.505 973.315 423.485 1012.91 423.485C1021.7 423.485 1042.97 423.485 1063.26 408.579V386.329C1046.63 398.315 1035.63 402.464 1021.46 402.464C999.221 402.464 985.532 390.74 984.315 370.693ZM1009.48 327.435C1023.17 327.435 1032.45 336.725 1033.93 352.118H985.045C986.517 336.482 995.552 327.435 1009.48 327.435ZM1227.13 332.819H1186.08V379.253C1186.08 390.253 1192.44 397.323 1203.44 397.323C1210.77 397.323 1217.59 395.62 1227.13 390.74V416.397C1214.67 421.526 1205.38 423.485 1194.38 423.485C1170.93 423.485 1150.64 412.734 1150.64 381.2V332.825H1134.51V325.98L1181.68 273.182H1186.08V308.622H1227.13V332.819ZM1276.45 325.244H1276.93C1287.2 312.285 1298.68 306.426 1312.62 306.426C1333.13 306.426 1353.91 318.886 1353.91 349.441V421.289H1318.47V357.004C1318.47 340.15 1311.14 332.332 1300.14 332.332C1291.84 332.332 1284.75 337.455 1276.45 349.441V421.289H1241.01V254.619H1276.45V325.244ZM1409.09 370.693H1489.98C1491.68 329.637 1464.57 306.426 1431.82 306.426C1397.11 306.426 1372.44 330.854 1372.44 365.321C1372.44 400.505 1398.1 423.485 1437.68 423.485C1446.48 423.485 1467.74 423.485 1488.02 408.579V386.329C1471.41 398.315 1460.41 402.464 1446.24 402.464C1424 402.464 1410.31 390.74 1409.09 370.693ZM1434.25 327.435C1447.94 327.435 1457.24 336.725 1458.7 352.118H1409.82C1411.28 336.482 1420.34 327.435 1434.25 327.435ZM1730.35 406.863C1707.14 418.831 1689.54 423.485 1664.86 423.485C1600.1 423.485 1567.85 381.444 1567.85 338.429C1567.85 293.953 1604.26 252.417 1668.03 252.417C1691.25 252.417 1712.02 257.296 1728.41 267.08V304.223C1710.08 293.953 1691.51 287.109 1670.97 287.109C1635.53 287.109 1610.6 308.13 1610.6 337.699C1610.6 367.511 1635.29 388.775 1670 388.775C1691.75 388.775 1706.41 381.93 1730.35 370.45V406.863ZM1790.48 325.244H1790.96C1801.23 312.285 1812.72 306.426 1826.65 306.426C1847.17 306.426 1867.95 318.886 1867.95 349.441V421.289H1832.51V357.004C1832.51 340.15 1825.18 332.332 1814.18 332.332C1805.87 332.332 1798.78 337.455 1790.48 349.441V421.289H1755.04V254.619H1790.48V325.244ZM1892.81 421.283H1928.25V308.622H1892.81V421.283ZM1929.96 271.959C1929.96 282.716 1921.17 291.52 1910.41 291.52C1899.66 291.52 1890.87 282.716 1890.87 271.959C1890.87 261.202 1899.66 252.417 1910.41 252.417C1921.17 252.417 1929.96 261.209 1929.96 271.959ZM1954.16 421.283H1989.59V254.619H1954.16V421.283ZM2092.73 254.619V313.514C2083.19 308.86 2073.66 306.426 2063.4 306.426C2031.14 306.426 2008.66 330.367 2008.66 364.834C2008.66 398.558 2031.14 423.485 2061.44 423.485C2073.41 423.485 2082.7 420.309 2092.73 412.248V421.283H2128.17V254.619H2092.73ZM2092.73 390.497C2085.4 397.08 2079.28 399.775 2071.71 399.775C2055.1 399.775 2044.58 386.086 2044.58 365.564C2044.58 343.083 2055.1 330.124 2072.92 330.124C2079.28 330.124 2087.59 333.062 2092.73 336.725V390.497ZM2188.72 340.881H2189.2C2199.7 317.426 2211.44 306.426 2225.12 306.426C2232.21 306.426 2238.32 309.103 2248.58 316.678L2238.81 347.969C2229.53 342.097 2223.41 339.664 2217.79 339.664C2204.84 339.664 2196.53 351.875 2188.72 372.652V421.283H2153.28V308.61H2188.72V340.881ZM2287.94 370.693H2368.83C2370.53 329.637 2343.41 306.426 2310.66 306.426C2275.95 306.426 2251.28 330.854 2251.28 365.321C2251.28 400.505 2276.94 423.485 2316.53 423.485C2325.32 423.485 2346.59 423.485 2366.86 408.579V386.329C2350.25 398.315 2339.26 402.464 2325.08 402.464C2302.84 402.464 2289.15 390.74 2287.94 370.693ZM2313.11 327.435C2326.78 327.435 2336.07 336.725 2337.53 352.118H2288.67C2290.14 336.482 2299.17 327.435 2313.11 327.435ZM2422.29 324.739C2433.53 311.798 2444.52 306.426 2458.94 306.426C2476.55 306.426 2500 316.434 2500 349.684V421.289H2464.56V352.599C2464.56 336.719 2456.99 330.118 2446.98 330.118C2438.17 330.118 2431.57 334.76 2422.29 348.693V421.277H2386.85V308.61H2422.29V324.739Z" fill="white"/>
<path d="M469.2 143.571C491.662 120.464 501.64 109.774 500.077 103.446C498.89 98.7007 494.327 94.2896 487.239 91.0164C479.616 87.5058 468.987 85.4068 463.371 88.2055C461.485 89.1303 458.339 92.2028 450.777 99.7045L443.689 106.653L443.676 106.64C439.795 102.083 435.742 97.675 431.526 93.4257C401.665 63.5646 363.974 42.8481 322.48 33.4359C306.832 14.3134 285.367 4.4753 263.433 6.39181C245.017 7.98586 228.255 17.7692 216.086 33.9226C172.585 43.9615 132.32 65.7549 99.4531 97.0579V97.0336C92.7605 94.5269 77.5927 96.1514 67.8581 100.641C62.2606 103.227 58.963 106.452 58.02 110.236C57.2899 113.114 58.1721 117.75 68.9228 131.865V131.902C35.6424 177.655 18.7467 233.343 21.4359 288.77C24.2225 345.596 47.464 398.619 86.9197 438.075C100.798 451.969 116.453 463.967 133.476 473.759C157.952 487.825 185.343 498.351 214.943 504.404C277.141 517.108 338.694 507.891 390.367 482.307L390.519 482.246C397.102 479.186 399.919 471.629 397.242 464.267L396.433 462.047C385.53 432.246 352.311 341.532 379.689 262.73C391.158 229.753 419.997 195.773 444.711 169.259H444.723C466.383 208.611 475.71 254.285 470.885 298.182C466.31 339.785 449.913 377.659 423.203 408.567V408.579C422.368 409.457 421.904 410.623 421.907 411.834C421.907 412.363 422.059 412.88 422.151 413.355L424.25 419.318C424.539 420.072 425.014 420.74 425.632 421.26C426.249 421.78 426.989 422.135 427.781 422.291C428.573 422.448 429.392 422.4 430.161 422.154C430.93 421.907 431.624 421.469 432.177 420.881L432.33 420.893C502.401 343.582 517.782 231.585 469.364 143.596V143.583L469.2 143.571ZM171.319 313.897C164.109 343.752 154.253 384.565 156.291 447.396V447.372C140.165 437.774 125.287 426.217 111.999 412.966C75.8101 376.783 52.9336 329.357 47.5796 279.449C42.4385 231.475 53.6333 183.733 79.1138 144.52V144.508H79.1259L79.1138 144.52C87.1266 154.115 96.8612 165.219 107.052 176.809C132.016 205.179 160.307 237.346 173.582 259.767C181.279 272.726 177.537 288.228 171.331 313.903L171.319 313.897ZM417.758 130.746C365.02 176.955 316.651 200.641 274.123 200.927C241.39 201.158 207.562 189.081 173.601 165.03C145.522 145.153 124.362 122.259 111.725 108.587L110.429 107.2C136.502 82.9078 168.548 65.9618 203.304 58.0889L203.316 58.0646V58.0767C203.304 58.0889 203.316 58.0889 203.316 58.0889C198.771 71.2307 197.128 85.5102 198.388 99.9905C200.669 125.988 212.351 149.595 230.439 164.775C244.585 176.651 261.742 182.37 278.717 180.898C295.691 179.407 311.583 170.798 323.466 156.634C338.646 138.552 346.05 113.272 343.769 87.2746C343.357 82.5107 342.621 77.7805 341.566 73.1168V73.1289C365.702 84.3056 387.665 99.6727 406.435 118.517C410.364 122.455 414.149 126.534 417.782 130.746" fill="#ED1B2D"/>
</g>
<defs>
<clipPath id="clip0_1_2">
<rect width="2500" height="536" fill="white"/>
</clipPath>
</defs>
</svg>
