<svg width="512" height="307" viewBox="0 0 512 307" fill="none" xmlns="http://www.w3.org/2000/svg">
<path d="M0.0100021 203.451C3.14 199.991 6.33 201.061 9.79 203.041C32.85 216.251 56.86 227.441 81.75 236.761C118.74 250.611 156.84 260.071 195.97 265.121C239.6 270.761 283.24 270.871 326.91 264.701C370.36 258.561 412.34 247.331 452.85 230.511C454.07 230.001 455.33 229.571 456.62 229.271C460.59 228.321 463.89 229.251 465.93 233.031C468.02 236.901 466.14 240.011 463.24 242.181C457.66 246.361 451.9 250.341 445.97 254.001C410.12 276.111 371.07 289.951 329.97 298.351C292.86 305.941 255.39 308.121 217.72 304.241C135.92 295.821 64 264.641 2.55 209.731C1.87 209.121 1.59 207.381 0 208.441V203.441L0.0100021 203.451Z" fill="#FDFDFD"/>
<path d="M511.81 222.451C509.15 221.501 510.04 223.781 509.82 224.781C505.86 242.651 499.15 259.281 487.54 273.621C484.73 277.091 481.45 280.221 478.11 283.201C476.49 284.651 474.34 286.451 471.91 284.531C469.62 282.721 471.12 280.561 471.87 278.641C477.29 264.761 482.81 250.921 486.18 236.351C487.16 232.141 487.96 227.921 487.87 223.551C487.73 216.861 485.86 214.131 479.41 212.551C471.44 210.601 463.29 210.231 455.13 210.861C444.19 211.701 433.27 212.701 422.34 213.641C420.06 213.841 417.23 214.791 416.22 211.971C415.2 209.131 417.73 207.441 419.74 206.031C429.7 199.051 440.95 195.221 452.79 193.051C468.46 190.171 484.12 190.031 499.82 193.321C504.28 194.251 507.66 197.131 511.82 198.451V200.451C511.51 200.551 511.2 200.651 510.9 200.751C511.21 200.981 511.52 201.221 511.82 201.451V217.441C511.3 217.531 510.91 217.761 511.08 218.351C511.11 218.441 511.56 218.411 511.82 218.441V222.441L511.81 222.451Z" fill="#FDFDFD"/>
<path d="M511.81 201.451C511.5 201.221 511.19 200.981 510.89 200.751C511.2 200.651 511.51 200.551 511.81 200.451V201.451Z" fill="#020303"/>
<path d="M511.81 218.451C511.55 218.421 511.1 218.451 511.07 218.361C510.9 217.771 511.29 217.541 511.81 217.451V218.451Z" fill="#020303"/>
<path d="M219.62 125.371C221.88 116.071 223.87 108.071 225.76 100.041C232.51 71.3008 239.21 42.5408 245.95 13.8008C247.77 6.04076 249.69 4.54076 257.59 4.52076C261.25 4.51076 264.92 4.51076 268.58 4.52076C276.38 4.54076 278.16 5.92077 279.94 13.4108C283.42 28.1008 286.88 42.7907 290.35 57.4807C295.65 79.9107 300.96 102.351 306.27 124.811C307.95 124.741 307.66 123.341 307.92 122.331C317.23 86.3808 326.52 50.4208 335.84 14.4708C338.09 5.79077 339.74 4.52075 348.54 4.51075C352.54 4.51075 356.54 4.47076 360.53 4.52076C365.67 4.58076 367.07 5.80077 365.85 10.8508C363.9 18.8808 361.32 26.7707 358.86 34.6707C347.28 71.8407 335.65 109.001 324.02 146.161C321.36 154.661 320.13 155.511 311.29 155.541C307.46 155.551 303.63 155.571 299.8 155.541C292.73 155.471 290.68 153.911 289.03 147.071C285.61 132.881 282.27 118.681 278.87 104.491C273.86 83.5208 268.84 62.5508 263.79 41.5908C263.57 40.6708 263.04 39.8307 262.41 38.4207C253.82 74.3107 245.36 109.571 236.94 144.851C234.69 154.281 233.3 155.441 223.83 155.451C220 155.451 216.17 155.491 212.34 155.451C206.12 155.381 203.92 153.831 201.96 147.531C197.73 133.921 193.65 120.271 189.51 106.631C180.23 76.0308 170.95 45.4208 161.68 14.8208C161.25 13.3908 160.91 11.9407 160.6 10.4807C159.76 6.54075 161.07 4.42076 165.41 4.52076C170.57 4.64076 175.74 4.52077 180.9 4.56077C186.96 4.61077 189.14 6.08075 190.8 12.2607C193.99 24.1007 196.9 36.0307 199.92 47.9207C206.36 73.2808 212.81 98.6508 219.6 125.411L219.62 125.371Z" fill="#FDFDFD"/>
<path d="M116.02 71.1408C115.67 63.0508 116.4 55.2708 115.1 47.4708C112.77 33.5508 105.47 26.5508 91.64 24.4508C74.57 21.8608 58.64 25.9108 42.95 31.8308C31.75 36.0608 31.47 35.7108 31 23.9208C30.71 16.6808 33.44 12.5408 40.05 9.83082C62.51 0.600819 85.49 -2.66916 109.26 3.41084C129.23 8.51084 140.98 22.8308 142.99 43.5708C144.88 63.0208 143.72 82.5108 143.83 101.981C143.9 114.931 144.76 127.531 151.69 138.971C153.65 142.201 152.73 145.111 149.78 147.261C146.42 149.701 142.98 152.041 139.48 154.271C134.63 157.371 132.03 156.911 128.2 152.661C123.84 147.821 120.97 142.021 117.82 135.901C107.8 147.391 96.09 155.321 81.49 157.991C63.76 161.231 46.74 159.991 33.21 146.321C10.34 123.211 20.58 81.9608 51.8 70.5708C69.5 64.1108 87.47 65.8308 105.46 69.0208C108.87 69.6208 112.24 70.3908 116.03 71.1508L116.02 71.1408ZM86.01 86.5508C83.35 86.5508 80.68 86.4108 78.03 86.5708C63.15 87.4908 53.74 94.8508 51.32 107.341C48.63 121.221 55.12 133.311 66.96 136.211C72.19 137.491 77.52 137.271 82.81 136.461C99.19 133.951 113.37 124.531 115.56 107.441C116.15 102.841 115.93 98.1508 116.27 93.5208C116.47 90.7508 115.32 89.9108 112.68 89.4108C103.86 87.7308 95.02 86.3608 86.01 86.5608V86.5508Z" fill="#FDFDFD"/>
<path d="M429.17 160.101C415.76 159.751 402.74 157.441 390.22 152.561C379.15 148.241 375.55 141.051 378.84 129.691C379.96 125.831 382.8 126.261 385.66 127.381C393.38 130.391 401.06 133.571 409.29 134.991C421.84 137.151 434.45 138.171 446.85 134.361C458.36 130.821 463.85 122.061 461.95 111.361C460.66 104.091 455.53 100.341 449.4 97.7007C439.34 93.3607 428.69 90.7307 418.27 87.4207C407.4 83.9607 396.98 79.6507 389.6 70.3807C372.04 48.3507 379.53 19.0007 406.05 6.4307C424.97 -2.5393 444.47 -0.929312 464.04 4.01069C465.8 4.46069 467.55 5.0207 469.26 5.6207C481.3 9.8907 484.68 15.9507 481.81 28.3007C480.81 32.6207 477.79 32.0407 474.79 30.8007C467.57 27.8107 460.29 24.9807 452.49 24.0107C442.22 22.7407 431.92 22.1107 421.85 25.4007C414.72 27.7307 409.68 31.9507 408.68 39.9507C407.62 48.4407 411.06 54.4507 418.38 58.4707C429.67 64.6807 442.29 67.2407 454.33 71.4107C458.72 72.9307 463.06 74.4907 467.3 76.4107C495.44 89.1207 496.22 123.001 479.9 141.031C469.2 152.851 455.28 157.421 440.14 159.431C436.52 159.911 432.84 159.891 429.18 160.101H429.17Z" fill="#FDFDFD"/>
</svg>
