<svg width="1019" height="470" viewBox="0 0 1019 470" fill="none" xmlns="http://www.w3.org/2000/svg">
<path d="M167.363 113.342L121.887 158.784C110.633 170.031 92.2229 191.052 78.5537 197.781C66.0949 203.764 51.7546 204.496 38.7504 199.815C24.0515 194.574 12.0018 183.769 5.19925 169.73C-0.565428 157.771 -1.3139 144.007 3.12004 131.494C8.4838 117.031 19.3343 105.264 33.3194 98.7438C42.9318 94.3027 54.5066 92.2456 64.7739 89.4975L121.982 74.2106L196.471 54.1734C210.29 50.4675 224.607 45.7178 238.773 43.6726C251.359 41.8557 267.821 41.3841 279.926 45.8501C303.582 49.764 328.448 68.4393 342.161 87.6048C359.705 112.126 366.021 140.702 361.035 170.34C358.884 183.13 354.665 195.98 351.299 208.522L332.137 279.575L316.827 336.794C313.922 347.643 311.722 359.435 307.133 369.676C302.76 379.432 296.07 387.361 287.364 393.57C276.372 401.409 263.138 405.111 249.714 402.852C235.113 400.395 222.151 391.537 213.661 379.53C205.31 367.72 201.534 353.212 204.049 338.877C206.817 323.098 216.583 313.245 227.448 302.341C249.398 281.152 270.631 259.131 292.284 237.627C298.88 230.613 304.099 222.93 308.885 214.603C309.888 210.44 312.461 206.295 313.778 202.133C317.521 190.31 317.619 178.931 317.45 166.682C314.897 147.386 307.296 129.694 293.911 115.409C277.771 98.2551 255.452 88.2445 231.902 87.5971C207.271 86.8526 185.105 96.6888 167.363 113.342Z" fill="url(#paint0_linear_33_1791)"/>
<path d="M167.363 113.342L121.887 158.784C110.633 170.031 92.2229 191.052 78.5537 197.781C66.0949 203.764 51.7546 204.496 38.7504 199.815C24.0515 194.574 12.0018 183.769 5.19925 169.73C-0.565428 157.771 -1.3139 144.007 3.12004 131.494C8.4838 117.031 19.3343 105.264 33.3194 98.7438C42.9318 94.3027 54.5066 92.2456 64.7739 89.4975L121.982 74.2106L196.471 54.1734C210.29 50.4675 224.607 45.7178 238.773 43.6726C251.359 41.8557 267.821 41.3841 279.926 45.8501L279.263 46.4789C277.616 46.1058 275.97 45.7634 274.352 45.2768C264.816 42.4082 248.866 43.1341 239.057 44.4482C232.661 45.3053 226.119 47.3359 219.864 48.9666L184.219 58.5709C176.021 60.7836 152.18 65.9609 145.866 69.467C144.731 70.0974 143.87 70.6069 143.14 71.7114C144.207 71.9755 144.931 71.9641 145.928 71.3996C147.885 70.2915 148.962 68.9311 151.286 68.5711C158.68 67.4245 165.992 64.5222 173.19 62.5175C178.117 61.1447 183.229 60.4111 188.16 59.0409C203.679 54.7301 228.133 46.3689 243.613 45.2052C253.038 44.4965 262.22 45.1771 271.567 46.3689C274.036 46.6838 276.377 47.7686 278.831 47.8791C275.28 47.8039 271.845 47.1004 268.312 46.9759C259.848 49.2135 250.937 48.73 242.423 51.13C208.269 60.7582 190.403 87.0751 165.682 110.312L167.363 113.342Z" fill="#3E47CC"/>
<path d="M146.489 72.3646C146.572 72.2899 146.654 72.2121 146.74 72.1405C146.883 72.0207 147.034 71.9091 147.177 71.7898C147.435 71.5745 147.687 71.3509 147.956 71.1496C151.667 68.375 231.253 47.9533 239.35 46.785C248.905 45.407 258.796 45.3006 268.312 46.9759C259.848 49.2135 250.937 48.73 242.423 51.13C208.269 60.7582 190.403 87.0751 165.682 110.312L125.255 150.658C118.15 157.768 111.199 165.307 103.678 171.97C103.17 170.578 103.073 169.181 103.075 167.714C103.082 163.499 103.704 159.185 104.148 154.991C107.683 121.62 123.017 95.6268 146.489 72.3646Z" fill="#B83DB9"/>
<path d="M167.363 113.342L121.887 158.784C110.633 170.031 92.2229 191.052 78.5537 197.781C66.0949 203.764 51.7546 204.496 38.7504 199.815C24.0515 194.574 12.0018 183.769 5.19925 169.73C-0.565428 157.771 -1.3139 144.007 3.12004 131.494C8.4838 117.031 19.3343 105.264 33.3194 98.7438C42.9318 94.3027 54.5066 92.2456 64.7739 89.4975L121.982 74.2106L196.471 54.1734C210.29 50.4675 224.607 45.7178 238.773 43.6726C251.359 41.8557 267.821 41.3841 279.926 45.8501L279.263 46.4789C277.616 46.1058 275.97 45.7634 274.352 45.2768C264.816 42.4082 248.866 43.1341 239.057 44.4482C232.661 45.3053 226.119 47.3359 219.864 48.9666L184.219 58.5709C176.021 60.7836 152.18 65.9609 145.866 69.467C144.731 70.0974 143.87 70.6069 143.14 71.7114C144.207 71.9755 144.931 71.9641 145.928 71.3996C147.885 70.2915 148.962 68.9311 151.286 68.5711C158.68 67.4245 165.992 64.5222 173.19 62.5175C178.117 61.1447 183.229 60.4111 188.16 59.0409C203.679 54.7301 228.133 46.3689 243.613 45.2052C253.038 44.4965 262.22 45.1771 271.567 46.3689C274.036 46.6838 276.377 47.7686 278.831 47.8791C275.28 47.8039 271.845 47.1004 268.312 46.9759C258.796 45.3006 248.905 45.407 239.35 46.785C231.253 47.9533 151.667 68.375 147.956 71.1496C147.687 71.3509 147.435 71.5745 147.177 71.7898C147.034 71.9091 146.883 72.0207 146.74 72.1405C146.654 72.2121 146.572 72.2899 146.489 72.3646C144.411 72.3895 142.224 71.8588 140.218 72.0181C136.185 72.3382 121.114 75.4998 118.649 78.0825C118.577 78.1588 118.511 78.2423 118.442 78.3222C118.337 78.3627 118.233 78.4047 118.128 78.4441C112.615 80.5137 106.425 81.6628 100.723 83.2048L61.3778 93.6937C37.6968 100.011 19.0292 104.447 7.71659 128.712C2.5754 139.848 2.07898 152.571 6.33691 164.073C11.345 177.663 22.3441 188.942 35.4373 194.966C46.9923 200.283 60.3397 201.37 72.3651 196.891C81.846 193.359 89.0738 187.27 96.0358 180.084C97.6163 178.453 99.7948 176.602 100.734 174.541C101.6 173.199 102.2 172.598 103.678 171.97C111.199 165.307 118.15 157.768 125.255 150.658L165.682 110.312L167.363 113.342Z" fill="url(#paint1_linear_33_1791)"/>
<path d="M118.442 78.3222C118.511 78.2423 118.577 78.1588 118.649 78.0825C121.114 75.4998 136.185 72.3382 140.218 72.0181C142.224 71.8588 144.411 72.3895 146.489 72.3646C123.017 95.6268 107.683 121.62 104.148 154.991C103.704 159.185 103.082 163.499 103.075 167.714C103.073 169.181 103.17 170.578 103.678 171.97C102.2 172.598 101.6 173.199 100.734 174.541C100.111 132.801 113.753 102.105 142.406 72.2853C134.323 73.6637 126.455 76.5131 118.442 78.3222Z" fill="#04396D"/>
<path d="M274.179 298.802C290.539 294.912 306.65 285.065 319.923 274.967C323.575 272.19 328.327 265.54 332.513 264.353L332.582 265.697L332.414 266.161C329.701 273.757 328.067 282.188 325.972 290.003L312.405 340.897C309.477 351.885 307.26 364.106 301.404 373.969C295.951 383.156 287.041 391.053 277.449 395.704C266.558 401.025 253.984 401.745 242.556 397.703C229.074 392.934 217.515 382.171 211.373 369.3C205.711 357.678 204.919 344.28 209.172 332.073C213.159 320.914 221.391 312.85 229.712 304.779C231.935 304.778 234.332 304.952 236.527 304.635C249.409 303.927 261.812 302.713 274.179 298.802Z" fill="#3E47CC"/>
<path d="M357.587 136.794L357.798 135.662L358.376 135.606C363.787 143.67 360.384 163.3 358.548 172.5C355.229 189.132 349.675 206.058 345.269 222.495L339.53 243.927C338.559 247.584 337.962 251.31 336.584 254.848C335.23 258.322 333.512 260.52 331.007 263.193L332.186 262.547C333.294 263.284 333.245 263.392 333.597 264.692L333.203 265.712L332.582 265.697L332.513 264.353C328.327 265.54 323.575 272.19 319.923 274.967C306.65 285.065 290.539 294.912 274.179 298.802C261.812 302.713 249.409 303.927 236.527 304.635C234.831 304.195 234.292 302.591 232.629 301.848C231.064 302.694 230.002 303.574 228.205 303.534L227.448 302.341C249.398 281.152 270.631 259.131 292.284 237.627C298.88 230.613 304.099 222.93 308.885 214.603C309.709 214.297 309.815 214.24 310.348 213.547L310.608 215.049C310.181 216.182 310.178 216.763 310.532 217.919C312.034 219.174 313.455 219.145 315.383 218.978C344.237 190.281 354.678 179.006 357.587 136.794Z" fill="#FECB19"/>
<path d="M357.587 136.794L357.798 135.662L358.376 135.606C363.787 143.67 360.384 163.3 358.548 172.5C355.229 189.132 349.675 206.058 345.269 222.495L339.53 243.927C338.559 247.584 337.962 251.31 336.584 254.848C335.23 258.322 333.512 260.52 331.007 263.193L332.186 262.547C333.294 263.284 333.245 263.392 333.597 264.692L333.203 265.712L332.582 265.697L332.513 264.353C328.327 265.54 323.575 272.19 319.923 274.967C306.65 285.065 290.539 294.912 274.179 298.802C261.812 302.713 249.409 303.927 236.527 304.635C234.831 304.195 234.292 302.591 232.629 301.848L233.427 301.172C233.579 301.258 233.727 301.35 233.883 301.428C240.582 304.838 269.498 297.542 277.519 295.209C288.267 291.247 298.533 286.444 308.072 280.074C316.399 274.514 328.951 265.372 334.343 256.854C336.816 252.949 355.733 180.819 357.543 171.65C359.116 163.681 362.201 143.667 357.587 136.794Z" fill="#04396D"/>
<path d="M292.284 237.627C293.066 239.227 293.132 239.244 294.768 239.965L253.625 281.102C247.01 287.713 240.514 295.104 233.427 301.172L232.629 301.848C231.064 302.694 230.002 303.574 228.205 303.534L227.448 302.341C249.398 281.152 270.631 259.131 292.284 237.627Z" fill="#0B166B"/>
<path d="M308.885 214.603C309.709 214.297 309.815 214.24 310.348 213.547L310.608 215.049C310.181 216.182 310.178 216.763 310.532 217.919C312.034 219.174 313.455 219.145 315.383 218.978C308.466 225.905 301.356 232.724 294.768 239.965C293.132 239.244 293.066 239.227 292.284 237.627C298.88 230.613 304.099 222.93 308.885 214.603Z" fill="#04396D"/>
<path d="M317.45 166.682C320.121 170.347 319.394 184.921 318.639 189.752C317.56 196.666 314.863 209.39 310.608 215.049L310.348 213.547C309.815 214.24 309.709 214.297 308.885 214.603C309.888 210.44 312.461 206.295 313.778 202.133C317.521 190.31 317.619 178.931 317.45 166.682Z" fill="#04396D"/>
<path d="M493.159 60.2316C516.812 57.5826 542.474 65.0945 562.406 77.6202C597.784 99.8494 617.051 135.381 626.078 175.184L550.229 175.205C549.284 171.603 547.924 168.052 546.492 164.62C540.237 149.627 529.436 134.656 513.89 128.408C504.452 124.686 493.917 124.897 484.638 128.996C469.095 135.793 458.597 151.298 452.591 166.601C441.745 194.24 442.136 227.998 454.101 255.222C460.642 270.105 471.279 284.082 486.891 290.066C496.252 293.654 506.425 293.186 515.525 289.077C530.863 282.157 541.524 266.781 547.317 251.474L623.296 251.49C616.693 273.4 607.153 293.482 592.199 310.99C571.115 335.67 542.059 351.986 509.447 354.436C479.118 356.714 449.046 345.43 426.164 325.762C394.738 298.749 378.056 259.238 374.998 218.448C371.931 177.548 384.952 134.304 411.834 103.111C432.478 79.158 461.311 62.613 493.159 60.2316Z" fill="#04396D"/>
<path d="M496.965 64.3832L497.412 64.3256C502.099 63.7513 507.204 64.3173 511.879 64.8226C532.96 66.984 552.975 75.1787 569.512 88.4235C590.383 104.846 604.838 126.028 614.295 150.654C616.143 155.465 618.744 161.14 619.268 166.289C619.444 168.001 619.206 168.905 618.147 170.209C611.845 171.458 604.112 170.6 597.618 170.599L554.257 170.583C551.963 166.696 550.468 162.211 548.526 158.119C543.061 146.574 535.306 135.626 524.411 128.635C514.17 122.058 502.44 119.697 490.488 122.377C475.912 125.647 464.432 136.066 456.628 148.414C440.096 174.571 436.953 208.714 443.766 238.438C448.267 258.074 458.57 278.978 476.187 289.912C486.386 296.242 498.243 298.48 509.998 295.72C524.328 292.358 535.493 282.275 543.133 270.018C545.973 265.467 548.21 260.584 551.044 256.02L557.112 256.039L594.468 255.992C601.101 255.979 608.222 255.441 614.794 256.311C615.432 256.939 615.707 257.055 615.811 257.987C616.865 267.288 596.814 297.882 590.839 305.161C570.55 329.874 543.191 346.674 511.056 349.765C482.242 352.537 453.695 342.311 431.565 324.065C401.372 299.173 383.575 261.907 379.951 223.254C376.173 182.957 386.887 140.509 413.053 109.079C435.598 81.997 461.912 67.5708 496.965 64.3832Z" fill="#FECB19"/>
<path d="M762.718 181.982C770.249 143.6 790.419 107.883 823.307 85.7428C848.003 68.832 878.409 62.4231 907.834 67.9277C941.037 74.4503 968.905 95.2356 987.544 123.115C1003.04 146.29 1012.88 175.105 1013.46 203.06C1013.75 216.935 1012.28 230.819 1011.75 244.677L860.99 244.686L860.974 181.996L935.639 182.006C930.921 164.714 920.395 146.149 904.372 137.062C895.382 131.966 884.97 130.431 874.962 133.234C860.689 137.231 849.83 149.171 842.875 161.756C839.324 168.182 836.719 174.953 834.585 181.963C840.072 181.936 849.321 180.941 854.398 182.372C852.228 182.832 849.846 182.708 847.624 182.748C843.523 182.248 834.233 183.904 831.321 181.32C829.172 183.014 772.533 182.094 765.791 182.073C761.861 183.65 752.56 182.579 747.873 182.633L746.414 182.04L762.718 181.982Z" fill="#B83DB9"/>
<path d="M762.718 181.982C770.249 143.6 790.419 107.883 823.307 85.7428C848.003 68.832 878.409 62.4231 907.834 67.9277C941.037 74.4503 968.905 95.2356 987.544 123.115C1003.04 146.29 1012.88 175.105 1013.46 203.06C1013.75 216.935 1012.28 230.819 1011.75 244.677L860.99 244.686L860.974 181.996L935.639 182.006C930.921 164.714 920.395 146.149 904.372 137.062C895.382 131.966 884.97 130.431 874.962 133.234C860.689 137.231 849.83 149.171 842.875 161.756C839.324 168.182 836.719 174.953 834.585 181.963C840.072 181.936 849.321 180.941 854.398 182.372C852.228 182.832 849.846 182.708 847.624 182.748C843.523 182.248 834.233 183.904 831.321 181.32C837.736 162.449 846.467 142.92 865.329 133.589C875.736 128.442 887.591 127.154 898.678 130.902C914.358 136.202 924.905 148.817 931.99 163.306C935.323 170.244 937.928 177.51 939.755 184.987L894.593 184.954C886.963 184.936 878.85 184.368 871.267 185.093C869.092 185.301 866.626 185.636 864.872 187.032C863.99 189.397 864.062 228.793 864.369 234.292C864.472 236.112 864.706 238.049 865.464 239.727C865.848 240.569 866.232 240.953 867.005 241.426C879.011 242.424 1003.99 242.235 1006.39 241.175C1011.46 235.561 1010.6 207.349 1010.18 199.173C1008.22 160.918 989.361 123.738 961.005 98.3064C940.269 79.71 911.644 67.4084 883.423 69.0193C849.098 70.9789 821.993 86.741 799.43 112.084C782.125 131.514 770.711 156.639 765.791 182.073C761.861 183.65 752.56 182.579 747.873 182.633L746.414 182.04L762.718 181.982Z" fill="#04396D"/>
<path d="M101.426 239.78C101.94 230.792 105.756 221.535 110.804 214.153C115.741 206.932 122.363 200.905 128.538 194.763L150.552 172.868C163.765 159.698 176.583 145.521 190.463 133.09C202.261 122.526 216.875 117.198 232.746 118.104C248.058 118.918 262.394 125.874 272.506 137.396C282.615 148.808 287.754 163.779 286.785 178.991C286.145 188.665 283.073 198.022 277.852 206.194C272.409 214.658 264.545 221.565 257.455 228.633L232.39 253.6C220.683 265.264 208.93 278.452 196.557 289.204C190.585 294.394 184.187 297.948 176.828 300.771C167.885 303.335 158.851 304.266 149.608 302.937C134.643 300.698 121.18 292.615 112.173 280.463C103.673 269.061 99.3868 253.936 101.426 239.78Z" fill="#FE8027"/>
<path d="M227.758 144.917C244.862 140.404 252.312 139.383 270.082 139.932C279.4 150.998 284.546 165.044 283.273 179.602C282.556 188.594 279.584 197.261 274.632 204.803C269.493 212.605 262.251 219.021 255.672 225.592L208.146 273.109C203.065 278.182 198.084 283.536 192.556 288.12C188.27 291.676 183.391 294.184 178.403 296.596C171.42 286.855 166.329 275.89 163.395 264.271C156.447 237.248 161.309 210.494 175.347 186.662L178.725 181.508C178.172 180.345 178.118 180.293 176.964 179.722C180.671 173.662 185.948 168.539 191.202 163.82C192.333 162.241 194.415 160.813 195.905 159.528C197.254 159.484 198.399 159.432 199.713 159.824C209.169 154.016 217.342 149.019 227.758 144.917Z" fill="#0DD245"/>
<path d="M176.964 179.722C180.671 173.662 185.948 168.539 191.202 163.82C190.837 165.228 190.529 165.917 190.937 167.348C186.682 171.876 182.477 176.554 178.725 181.508C178.172 180.345 178.118 180.293 176.964 179.722Z" fill="#073752"/>
<path d="M195.905 159.528C197.254 159.484 198.399 159.432 199.713 159.824L190.937 167.348C190.529 165.917 190.837 165.228 191.202 163.82C192.333 162.241 194.415 160.813 195.905 159.528Z" fill="#04396D"/>
<path d="M101.426 239.78C101.94 230.792 105.756 221.535 110.804 214.153C115.741 206.932 122.363 200.905 128.538 194.763L150.552 172.868C163.765 159.698 176.583 145.521 190.463 133.09C202.261 122.526 216.875 117.198 232.746 118.104C248.058 118.918 262.394 125.874 272.506 137.396C282.615 148.808 287.754 163.779 286.785 178.991C286.145 188.665 283.073 198.022 277.852 206.194C272.409 214.658 264.545 221.565 257.455 228.633L232.39 253.6C220.683 265.264 208.93 278.452 196.557 289.204C190.585 294.394 184.187 297.948 176.828 300.771L175.55 297.883C176.488 297.248 177.316 296.907 178.403 296.596C183.391 294.184 188.27 291.676 192.556 288.12C198.084 283.536 203.065 278.182 208.146 273.109L255.672 225.592C262.251 219.021 269.493 212.605 274.632 204.803C279.584 197.261 282.556 188.594 283.273 179.602C284.546 165.044 279.4 150.998 270.082 139.932C252.312 139.383 244.862 140.404 227.758 144.917C224.362 144.911 221.894 146.626 218.673 147.122C224.86 144.077 231.665 142.102 238.392 140.668C242.872 139.713 257.148 138.942 259.622 137.26C262.394 137.206 265.168 137.316 267.939 137.392C258.311 127.107 245.301 121.313 231.188 120.819C216.139 120.292 202.383 126.176 191.508 136.389C176.128 150.834 161.581 166.378 146.63 181.283C136.631 191.251 119.763 206.159 112.325 216.985C109.499 221.099 107.774 226.197 106.153 230.888C105.711 232.168 105.442 234.084 104.787 235.19C103 237.219 103.173 240.418 102.941 243.104L102.219 242.593L102.406 243.452L101.426 239.78Z" fill="url(#paint2_linear_33_1791)"/>
<path d="M101.426 239.78L102.406 243.452L102.219 242.593L102.941 243.104C103.173 240.418 103 237.219 104.787 235.19C103.011 252.073 104.786 266.576 115.812 280.124C125.297 291.78 138.528 299.048 153.499 300.577C160.854 301.328 168.615 300.488 175.55 297.883L176.828 300.771C167.885 303.335 158.851 304.266 149.608 302.937C134.643 300.698 121.18 292.615 112.173 280.463C103.673 269.061 99.3868 253.936 101.426 239.78Z" fill="#04396D"/>
<path d="M176.964 179.722C178.118 180.293 178.172 180.345 178.725 181.508L175.347 186.662C161.309 210.494 156.447 237.248 163.395 264.271C166.329 275.89 171.42 286.855 178.403 296.596C177.316 296.907 176.488 297.248 175.55 297.883C167.17 283.339 160.678 269.296 158.467 252.453C155.846 232.493 160.662 201.614 173.166 185.426C174.261 183.372 175.557 181.574 176.964 179.722Z" fill="#04396D"/>
<path d="M195.905 159.528C214.175 144.937 236.356 137.56 259.622 137.26C257.148 138.942 242.872 139.713 238.392 140.668C231.665 142.102 224.86 144.077 218.673 147.122C221.894 146.626 224.362 144.911 227.758 144.917C217.342 149.019 209.169 154.016 199.713 159.824C198.399 159.432 197.254 159.484 195.905 159.528Z" fill="#073752"/>
<path d="M764.483 244.928C766.995 243.501 824.246 243.344 830.719 244.045L831.419 244.658C832.784 244.261 834.113 244.171 835.53 244.061L835.535 244.588L834.155 245.026C833.293 253.035 845.522 273.862 850.655 280.219C858.13 289.479 869.336 297.314 881.409 298.51C892.579 299.616 903.007 295.368 911.483 288.323C920.488 280.831 926.732 270.842 931.534 260.274C932.406 257.622 933.542 255.018 934.565 252.418C956.09 252.527 977.631 252.206 999.156 252.529L1009.65 252.442L1007.97 259.304C1001.89 277.999 994.334 295.138 982.333 310.895C962.365 337.113 933.906 355.482 900.972 359.828C870.924 363.793 840.539 354.665 816.652 336.23C790.435 315.996 767.28 278.604 762.962 245.451L764.483 244.928Z" fill="#B83DB9"/>
<path d="M762.962 245.451L764.483 244.928C767.343 255.579 769.881 265.854 774.126 276.102C785.514 303.593 807.309 329.379 833.215 344.317C857.88 358.541 886.444 363.088 914.094 355.659C946.436 346.968 974.911 321.565 991.417 292.862C997.671 281.978 1002.72 270.624 1006.16 258.537L1007.97 259.304C1001.89 277.999 994.334 295.138 982.333 310.895C962.365 337.113 933.906 355.482 900.972 359.828C870.924 363.793 840.539 354.665 816.652 336.23C790.435 315.996 767.28 278.604 762.962 245.451Z" fill="#04396D"/>
<path d="M831.419 244.658C832.784 244.261 834.113 244.171 835.53 244.061L835.535 244.588L834.155 245.026C833.293 253.035 845.522 273.862 850.655 280.219C858.13 289.479 869.336 297.314 881.409 298.51C892.579 299.616 903.007 295.368 911.483 288.323C920.488 280.831 926.732 270.842 931.534 260.274C932.406 257.622 933.542 255.018 934.565 252.418C956.09 252.527 977.631 252.206 999.156 252.529C999.27 252.768 999.462 253.315 999.654 253.489C994.375 254.986 986.314 253.998 980.755 253.993C966.871 253.98 952.945 253.745 939.065 253.978C936.335 256.44 934.321 258.634 932.831 262.01C932.146 264.314 931.098 266.453 930.023 268.593C923.353 281.862 913.388 293.392 898.86 298.077C887.43 301.778 874.994 300.714 864.358 295.125C845.164 285.118 837.544 264.06 831.419 244.658Z" fill="#04396D"/>
<path d="M999.156 252.529L1009.65 252.442L1007.97 259.304L1006.16 258.537C1003.8 256.944 1002.53 254.412 999.654 253.489C999.462 253.315 999.27 252.768 999.156 252.529Z" fill="#04396D"/>
<path d="M765.791 182.073C772.533 182.094 829.172 183.014 831.321 181.32C834.233 183.904 843.523 182.248 847.624 182.748C849.846 182.708 852.228 182.832 854.398 182.372L854.398 244.674C848.133 244.652 841.79 244.826 835.535 244.588L835.53 244.061C834.113 244.171 832.784 244.261 831.419 244.658L830.719 244.045C824.246 243.344 766.995 243.501 764.483 244.928L762.962 245.451L762.168 244.561C752.721 245.061 743.082 244.681 733.609 244.684L733.578 361.117L671.069 361.113C670.301 324.155 671.105 287.018 671.012 250.043C678.486 241.752 686.952 234.001 694.857 226.089L739.039 181.997L746.414 182.04L747.873 182.633C752.56 182.579 761.861 183.65 765.791 182.073Z" fill="#FE8027"/>
<path d="M739.039 181.997L746.414 182.04L747.873 182.633C748.563 183.799 748.527 184.008 749.887 184.331C751.667 184.752 753.505 184.367 755.295 184.878L741.457 184.934L696.648 229.707C689.132 237.224 681.258 244.58 674.048 252.38L674.038 354.673C675.035 355.853 676 357.067 677.142 358.107L709.593 358.204C714.892 358.228 721.033 358.868 726.234 357.993C727.365 357.803 728.024 357.455 728.813 356.632C729.981 355.418 730.267 354.452 730.433 352.825C731.58 341.775 730.49 329.235 730.495 318.046L730.526 241.962C737.892 241.953 745.433 242.233 752.778 241.704L751.48 243.133C752.103 244.025 752.238 244.014 753.313 244.238C756.162 244.834 759.328 243.907 762.168 244.561C752.721 245.061 743.082 244.681 733.609 244.684L733.578 361.117L671.069 361.113C670.301 324.155 671.105 287.018 671.012 250.043C678.486 241.752 686.952 234.001 694.857 226.089L739.039 181.997Z" fill="#04396D"/>
<path d="M752.778 241.704C783.153 241.63 813.735 239.928 844.105 241.166C844.203 241.234 844.302 241.304 844.401 241.37C845.423 242.057 846.077 242.293 847.302 242.345L848.07 243.174C843.892 243.605 839.729 244.111 835.53 244.061C834.113 244.171 832.784 244.261 831.419 244.658L830.719 244.045C824.246 243.344 766.995 243.501 764.483 244.928L762.962 245.451L762.168 244.561C759.328 243.907 756.162 244.834 753.313 244.238C752.238 244.014 752.103 244.025 751.48 243.133L752.778 241.704Z" fill="#0B166B"/>
<path d="M765.791 182.073C772.533 182.094 829.172 183.014 831.321 181.32C834.233 183.904 843.523 182.248 847.624 182.748C846.83 183.937 846.871 184.12 845.434 184.41C844.266 184.645 843.072 184.646 841.914 184.868L755.295 184.878C753.505 184.367 751.667 184.752 749.887 184.331C748.527 184.008 748.563 183.799 747.873 182.633C752.56 182.579 761.861 183.65 765.791 182.073Z" fill="#0B166B"/>
<path d="M854.398 182.372L854.398 244.674C848.133 244.652 841.79 244.826 835.535 244.588L835.53 244.061C839.729 244.111 843.892 243.605 848.07 243.174L847.302 242.345C846.077 242.293 845.423 242.057 844.401 241.37C844.302 241.304 844.203 241.234 844.105 241.166C846.254 241.107 848.605 241.18 850.214 239.529C850.79 238.936 851.283 238.226 851.439 237.4C852.275 232.873 851.616 227.206 851.605 222.553L851.512 188.37C851.065 187.878 850.598 187.41 850.126 186.944C847.634 184.499 845.148 184.818 841.914 184.868C843.072 184.646 844.266 184.645 845.434 184.41C846.871 184.12 846.83 183.937 847.624 182.748C849.846 182.708 852.228 182.832 854.398 182.372Z" fill="#04396D"/>
<path d="M671.074 65.895L733.599 65.9168L733.583 176.709L665.526 244.678L551.573 244.691V182.009L671.038 182.015L671.074 65.895Z" fill="#04396D"/>
<path d="M676.602 71.0801C693.752 70.8108 710.948 71.0925 728.102 71.1527C729.099 105.371 728.165 139.815 728.346 174.06C717.887 185.293 706.588 195.937 695.734 206.802C684.948 217.598 674.401 228.829 663.174 239.153C642.916 239.616 622.538 239.244 602.269 239.216C587.211 239.139 572.133 239.527 557.08 239.165C557.252 221.922 557.236 204.678 557.039 187.435C596.866 186.51 636.791 188.228 676.623 187.202C676 148.558 676.213 109.73 676.602 71.0801Z" fill="#3E47CC"/>
<path d="M351.182 14.491C359.835 13.8299 367.435 15.1979 374.849 19.9741C382.762 25.0315 388.292 33.0737 390.179 42.2702C391.028 46.4664 391.026 50.742 390.48 54.9745C389.579 61.9525 377.525 117.187 375.772 119.623C375.14 120.5 374.989 120.508 373.935 120.653C371.119 118.111 371.725 106.284 371.034 102.126C369.807 94.7453 367.429 87.7117 364.358 80.9049L364.12 80.3565C353.213 55.8533 328.741 38.5856 302.655 34.1217C298.819 33.4649 287.861 33.8037 285.402 32.6239C284.709 32.2919 284.762 31.8005 284.592 31.124C284.765 30.7525 284.812 30.5907 285.042 30.2825C285.982 29.0218 288.31 28.2824 289.77 27.8544C296.226 25.9613 303.174 24.9916 309.771 23.5519L351.182 14.491Z" fill="#3E47CC"/>
<path d="M355.126 39.9532C367.019 39.4261 376.21 40.789 387.072 45.8693C387.209 48.6304 387.076 51.3983 386.676 54.1335C385.152 64.3292 382.426 74.5888 380.21 84.6678C378.942 90.4366 378.12 97.4655 375.907 102.868L375.35 102.961L374.748 101.395C369.596 76.0918 358.412 60.3338 338.543 44.3113C344.017 42.2982 349.321 40.6676 355.126 39.9532Z" fill="#FE8027"/>
<path d="M697.966 0.660082C714.825 -1.43956 730.184 10.5392 732.25 27.3953C734.315 44.2505 722.299 59.5805 705.43 61.6091C688.613 63.6314 673.332 51.6639 671.271 34.8584C669.216 18.0529 681.154 2.75345 697.966 0.660082Z" fill="#04396D"/>
<path d="M697.608 5.35355C711.711 3.08679 725.004 12.5821 727.433 26.6477C729.857 40.7127 720.503 54.1096 706.463 56.6907C697.24 58.3862 687.814 54.9952 681.782 47.8122C675.756 40.6292 674.054 30.7624 677.329 21.9768C680.604 13.1912 688.348 6.84255 697.608 5.35355Z" fill="#0DD245"/>
<path d="M35.2627 458.119L40.5362 459.448C39.9549 462.216 38.7369 464.375 36.8821 465.925C35.0551 467.475 32.7159 468.25 29.8646 468.25C26.2658 468.25 23.4699 467.032 21.4767 464.596C19.5112 462.133 18.5285 458.895 18.5285 454.881V451.559C18.5285 447.546 19.5112 444.321 21.4767 441.885C23.4699 439.422 26.2658 438.19 29.8646 438.19C32.7159 438.19 35.0551 438.965 36.8821 440.515C38.7369 442.065 39.9549 444.224 40.5362 446.992L35.2627 448.321C34.5429 445.11 32.7436 443.505 29.8646 443.505C25.9613 443.505 24.0097 446.328 24.0097 451.975V454.466C24.0097 460.112 25.9613 462.936 29.8646 462.936C32.7436 462.936 34.5429 461.33 35.2627 458.119Z" fill="white"/>
<path d="M46.8768 438.688H65.6456V443.837H52.3579V450.604H62.3237V455.753H52.3579V462.604H65.8117V467.752H46.8768V438.688Z" fill="white"/>
<path d="M72.7628 438.688H77.8287L88.7911 457.206H89.0402V438.688H94.4383V467.752H89.3724L78.41 449.234H78.1609V467.752H72.7628V438.688Z" fill="white"/>
<path d="M99.9789 438.688H120.907V444.003H113.184V467.752H107.702V444.003H99.9789V438.688Z" fill="white"/>
<path d="M126.441 438.688H136.24C139.424 438.688 141.971 439.602 143.881 441.429C145.819 443.255 146.787 445.65 146.787 448.612C146.787 450.438 146.386 452.085 145.583 453.552C144.781 455.019 143.659 456.182 142.22 457.04L147.618 467.752H141.472L137.154 458.535H131.922V467.752H126.441V438.688ZM131.922 443.92V453.303H136.116C137.749 453.303 139.022 452.902 139.936 452.099C140.85 451.269 141.306 450.106 141.306 448.612C141.306 447.145 140.85 445.996 139.936 445.165C139.022 444.335 137.749 443.92 136.116 443.92H131.922Z" fill="white"/>
<path d="M152.744 455.006V451.435C152.744 447.421 153.782 444.21 155.858 441.802C157.934 439.394 160.675 438.19 164.08 438.19C167.54 438.19 170.294 439.394 172.343 441.802C174.391 444.21 175.416 447.421 175.416 451.435V455.006C175.416 459.047 174.378 462.271 172.301 464.68C170.253 467.06 167.512 468.25 164.08 468.25C160.619 468.25 157.865 467.046 155.816 464.638C153.768 462.23 152.744 459.019 152.744 455.006ZM158.225 451.85V454.59C158.225 460.154 160.176 462.936 164.08 462.936C167.983 462.936 169.935 460.154 169.935 454.59V451.85C169.935 446.286 167.983 443.505 164.08 443.505C160.176 443.505 158.225 446.286 158.225 451.85Z" fill="white"/>
<path d="M190.717 438.688H199.935C203.783 438.688 206.787 439.865 208.946 442.217C211.133 444.57 212.226 447.753 212.226 451.767V454.673C212.226 458.687 211.133 461.87 208.946 464.223C206.787 466.576 203.783 467.752 199.935 467.752H190.717V438.688ZM196.198 462.438H199.686C201.956 462.438 203.7 461.759 204.918 460.403C206.136 459.019 206.745 456.971 206.745 454.258V452.182C206.745 449.47 206.136 447.435 204.918 446.079C203.7 444.695 201.956 444.003 199.686 444.003H196.198V462.438Z" fill="white"/>
<path d="M218.59 438.688H237.359V443.837H224.071V450.604H234.037V455.753H224.071V462.604H237.525V467.752H218.59V438.688Z" fill="white"/>
<path d="M253.412 438.688H258.893V467.752H253.412V438.688Z" fill="white"/>
<path d="M266.484 438.688H271.55L282.512 457.206H282.761V438.688H288.159V467.752H283.093L272.131 449.234H271.882V467.752H266.484V438.688Z" fill="white"/>
<path d="M295.776 438.688H300.842L311.804 457.206H312.053V438.688H317.452V467.752H312.386L301.423 449.234H301.174V467.752H295.776V438.688Z" fill="white"/>
<path d="M323.823 455.006V451.435C323.823 447.421 324.861 444.21 326.937 441.802C329.013 439.394 331.754 438.19 335.159 438.19C338.619 438.19 341.373 439.394 343.422 441.802C345.47 444.21 346.495 447.421 346.495 451.435V455.006C346.495 459.047 345.457 462.271 343.38 464.68C341.332 467.06 338.591 468.25 335.159 468.25C331.698 468.25 328.944 467.046 326.895 464.638C324.847 462.23 323.823 459.019 323.823 455.006ZM329.304 451.85V454.59C329.304 460.154 331.255 462.936 335.159 462.936C339.062 462.936 341.014 460.154 341.014 454.59V451.85C341.014 446.286 339.062 443.505 335.159 443.505C331.255 443.505 329.304 446.286 329.304 451.85Z" fill="white"/>
<path d="M349.807 438.688H355.703L361.641 460.029H361.973L367.911 438.688H373.808L364.714 467.752H358.901L349.807 438.688Z" fill="white"/>
<path d="M384.724 438.688H390.621L400.503 467.752H394.607L392.697 461.524H382.648L380.738 467.752H374.841L384.724 438.688ZM387.506 445.581L384.226 456.376H391.119L387.838 445.581H387.506Z" fill="white"/>
<path d="M420.526 458.119L425.8 459.448C425.218 462.216 424 464.375 422.146 465.925C420.319 467.475 417.979 468.25 415.128 468.25C411.529 468.25 408.733 467.032 406.74 464.596C404.775 462.133 403.792 458.895 403.792 454.881V451.559C403.792 447.546 404.775 444.321 406.74 441.885C408.733 439.422 411.529 438.19 415.128 438.19C417.979 438.19 420.319 438.965 422.146 440.515C424 442.065 425.218 444.224 425.8 446.992L420.526 448.321C419.807 445.11 418.007 443.505 415.128 443.505C411.225 443.505 409.273 446.328 409.273 451.975V454.466C409.273 460.112 411.225 462.936 415.128 462.936C418.007 462.936 419.807 461.33 420.526 458.119Z" fill="white"/>
<path d="M432.14 438.688H437.622V467.752H432.14V438.688Z" fill="white"/>
<path d="M443.967 455.006V451.435C443.967 447.421 445.005 444.21 447.081 441.802C449.157 439.394 451.898 438.19 455.303 438.19C458.763 438.19 461.517 439.394 463.566 441.802C465.614 444.21 466.639 447.421 466.639 451.435V455.006C466.639 459.047 465.601 462.271 463.524 464.68C461.476 467.06 458.735 468.25 455.303 468.25C451.842 468.25 449.088 467.046 447.039 464.638C444.991 462.23 443.967 459.019 443.967 455.006ZM449.448 451.85V454.59C449.448 460.154 451.399 462.936 455.303 462.936C459.206 462.936 461.158 460.154 461.158 454.59V451.85C461.158 446.286 459.206 443.505 455.303 443.505C451.399 443.505 449.448 446.286 449.448 451.85Z" fill="white"/>
<path d="M473.004 438.688H478.07L489.033 457.206H489.282V438.688H494.68V467.752H489.614L478.651 449.234H478.402V467.752H473.004V438.688Z" fill="white"/>
<path d="M533.489 466.008L529.254 469.579L526.638 466.672C524.866 467.724 522.914 468.25 520.783 468.25C517.323 468.25 514.61 467.323 512.644 465.468C510.706 463.614 509.737 461.109 509.737 457.953C509.737 454.853 510.872 452.321 513.142 450.355C512.783 449.193 512.603 448.072 512.603 446.992C512.603 444.418 513.461 442.314 515.177 440.681C516.893 439.021 519.205 438.19 522.112 438.19C525.766 438.19 528.797 439.546 531.205 442.259L527.51 446.245C526.098 444.363 524.215 443.422 521.862 443.422C520.672 443.422 519.731 443.74 519.039 444.377C518.347 445.013 518.001 445.885 518.001 446.992C518.001 448.598 518.499 449.94 519.496 451.02L526.679 458.742C527.067 457.58 527.261 456.196 527.261 454.59V451.269H532.742V454.59C532.742 457.746 532.008 460.5 530.541 462.853L533.489 466.008ZM520.783 463.019C521.558 463.019 522.305 462.908 523.025 462.687L516.008 454.881C515.482 455.794 515.219 456.763 515.219 457.787C515.219 459.337 515.717 460.597 516.713 461.566C517.71 462.534 519.066 463.019 520.783 463.019Z" fill="white"/>
<path d="M548.609 438.688H567.378V443.837H554.09V450.604H564.056V455.753H554.09V462.604H567.544V467.752H548.609V438.688Z" fill="white"/>
<path d="M574.495 438.688H579.561L587.616 455.504L595.672 438.688H600.738V467.752H595.34V450.646H595.091L589.153 463.06H586.08L580.142 450.646H579.893V467.752H574.495V438.688Z" fill="white"/>
<path d="M608.329 438.688H617.713C621.063 438.688 623.748 439.629 625.769 441.512C627.817 443.394 628.842 445.913 628.842 449.068C628.842 452.307 627.831 454.839 625.81 456.666C623.79 458.465 621.091 459.365 617.713 459.365H613.81V467.752H608.329V438.688ZM613.81 444.003V454.134H617.464C619.291 454.134 620.731 453.691 621.783 452.805C622.835 451.919 623.36 450.674 623.36 449.068C623.36 447.435 622.835 446.19 621.783 445.331C620.731 444.446 619.291 444.003 617.464 444.003H613.81Z" fill="white"/>
<path d="M634.864 438.688H644.663C647.847 438.688 650.394 439.602 652.304 441.429C654.242 443.255 655.21 445.65 655.21 448.612C655.21 450.438 654.809 452.085 654.006 453.552C653.203 455.019 652.082 456.182 650.643 457.04L656.041 467.752H649.895L645.577 458.535H640.345V467.752H634.864V438.688ZM640.345 443.92V453.303H644.539C646.172 453.303 647.445 452.902 648.359 452.099C649.272 451.269 649.729 450.106 649.729 448.612C649.729 447.145 649.272 445.996 648.359 445.165C647.445 444.335 646.172 443.92 644.539 443.92H640.345Z" fill="white"/>
<path d="M662.412 438.688H681.181V443.837H667.893V450.604H677.859V455.753H667.893V462.604H681.347V467.752H662.412V438.688Z" fill="white"/>
<path d="M688.298 438.688H693.364L704.327 457.206H704.576V438.688H709.974V467.752H704.908L693.945 449.234H693.696V467.752H688.298V438.688Z" fill="white"/>
<path d="M717.591 438.688H726.809C730.657 438.688 733.66 439.865 735.82 442.217C738.007 444.57 739.1 447.753 739.1 451.767V454.673C739.1 458.687 738.007 461.87 735.82 464.223C733.66 466.576 730.657 467.752 726.809 467.752H717.591V438.688ZM723.072 462.438H726.56C728.83 462.438 730.574 461.759 731.792 460.403C733.01 459.019 733.619 456.971 733.619 454.258V452.182C733.619 449.47 733.01 447.435 731.792 446.079C730.574 444.695 728.83 444.003 726.56 444.003H723.072V462.438Z" fill="white"/>
<path d="M745.464 438.688H750.945V467.752H745.464V438.688Z" fill="white"/>
<path d="M758.536 438.688H763.601L771.657 455.504L779.713 438.688H784.779V467.752H779.381V450.646H779.131L773.194 463.06H770.121L764.183 450.646H763.934V467.752H758.536V438.688Z" fill="white"/>
<path d="M792.37 438.688H797.851V467.752H792.37V438.688Z" fill="white"/>
<path d="M805.441 438.688H824.21V443.837H810.923V450.604H820.888V455.753H810.923V462.604H824.376V467.752H805.441V438.688Z" fill="white"/>
<path d="M831.327 438.688H836.393L847.356 457.206H847.605V438.688H853.003V467.752H847.937L836.975 449.234H836.726V467.752H831.327V438.688Z" fill="white"/>
<path d="M858.544 438.688H879.472V444.003H871.748V467.752H866.267V444.003H858.544V438.688Z" fill="white"/>
<path d="M882.503 455.006V451.435C882.503 447.421 883.541 444.21 885.617 441.802C887.693 439.394 890.434 438.19 893.839 438.19C897.299 438.19 900.053 439.394 902.102 441.802C904.151 444.21 905.175 447.421 905.175 451.435V455.006C905.175 459.047 904.137 462.271 902.06 464.68C900.012 467.06 897.271 468.25 893.839 468.25C890.378 468.25 887.624 467.046 885.575 464.638C883.527 462.23 882.503 459.019 882.503 455.006ZM887.984 451.85V454.59C887.984 460.154 889.935 462.936 893.839 462.936C897.742 462.936 899.694 460.154 899.694 454.59V451.85C899.694 446.286 897.742 443.505 893.839 443.505C889.935 443.505 887.984 446.286 887.984 451.85Z" fill="white"/>
<path d="M920.476 438.688H929.861C933.21 438.688 935.895 439.629 937.916 441.512C939.965 443.394 940.989 445.913 940.989 449.068C940.989 452.307 939.979 454.839 937.958 456.666C935.937 458.465 933.238 459.365 929.861 459.365H925.957V467.752H920.476V438.688ZM925.957 444.003V454.134H929.611C931.438 454.134 932.878 453.691 933.93 452.805C934.982 451.919 935.508 450.674 935.508 449.068C935.508 447.435 934.982 446.19 933.93 445.331C932.878 444.446 931.438 444.003 929.611 444.003H925.957Z" fill="white"/>
<path d="M947.011 438.688H952.492V462.438H965.78V467.752H947.011V438.688Z" fill="white"/>
<path d="M970.217 438.688H975.698V455.587C975.698 457.94 976.168 459.753 977.11 461.026C978.051 462.299 979.393 462.936 981.137 462.936C982.881 462.936 984.224 462.299 985.165 461.026C986.107 459.753 986.577 457.94 986.577 455.587V438.688H992.058V456.044C992.058 459.78 991.076 462.756 989.11 464.97C987.172 467.157 984.515 468.25 981.137 468.25C977.76 468.25 975.089 467.157 973.123 464.97C971.186 462.756 970.217 459.78 970.217 456.044V438.688Z" fill="white"/>
<path d="M1018.57 441.304L1015.75 445.664C1013.7 444.169 1011.29 443.422 1008.52 443.422C1005.59 443.422 1004.12 444.446 1004.12 446.494C1004.12 447.574 1004.51 448.445 1005.29 449.11C1006.09 449.746 1007.46 450.203 1009.4 450.48C1015.63 451.393 1018.74 454.314 1018.74 459.24C1018.74 462.091 1017.88 464.306 1016.16 465.884C1014.45 467.461 1011.85 468.25 1008.36 468.25C1004.68 468.25 1001.22 467.212 997.977 465.136L1000.8 460.777C1003.26 462.271 1005.76 463.019 1008.28 463.019C1011.65 463.019 1013.34 461.87 1013.34 459.573C1013.34 458.493 1012.94 457.649 1012.14 457.04C1011.33 456.403 1009.88 455.933 1007.78 455.628C1001.74 454.77 998.725 451.836 998.725 446.826C998.725 444.224 999.583 442.134 1001.3 440.557C1003.02 438.979 1005.4 438.19 1008.44 438.19C1012.37 438.19 1015.75 439.228 1018.57 441.304Z" fill="white"/>
<defs>
<linearGradient id="paint0_linear_33_1791" x1="409.81" y1="383.3" x2="553.45" y2="-76.7937" gradientUnits="userSpaceOnUse">
<stop stop-color="#02336A"/>
<stop offset="1" stop-color="#0A1987"/>
</linearGradient>
<linearGradient id="paint1_linear_33_1791" x1="513.888" y1="344.47" x2="116.618" y2="94.4651" gradientUnits="userSpaceOnUse">
<stop stop-color="#041D64"/>
<stop offset="1" stop-color="#013B72"/>
</linearGradient>
<linearGradient id="paint2_linear_33_1791" x1="757.853" y1="333.56" x2="609.324" y2="-10.5868" gradientUnits="userSpaceOnUse">
<stop stop-color="#01184F"/>
<stop offset="1" stop-color="#0A395E"/>
</linearGradient>
</defs>
</svg>
